<svg version="1.2" xmlns="http://www.w3.org/2000/svg" viewBox="0 0 1552 354" width="1552" height="354"><style>.a{fill:#1238ff}</style><path  d="m1087.7 275.7c-2.2-2-5.6-1.7-7.4 0.6-9.9 13.5-24.7 20.2-40.3 20.2-28.5 0-58.1-21.9-58.1-63.3 0-41.4 29.6-61.8 58.1-62.3 15.8-0.3 30.6 6.2 40.3 18.9 1.8 2.2 5.1 2.5 7.2 0.7l9.8-8.2 28.7-24.8c2.1-1.9 2.5-5.1 0.6-7.2-21.9-25.1-54.5-37.9-88.1-37.9-60.4 0-122.8 40.5-122.8 120.8 0 80.4 61.9 120.9 122.4 120.4 33.6-0.3 66.5-13.2 88.6-38.1 1.9-2.1 1.5-5.4-0.6-7.2l-34.5-29.1c0 0-3.9-3.5-3.9-3.5zm416.3-13.9v-256.1c0-2.8-2.3-5.1-5.1-5.1h-55.5c-2.8 0-5.1 2.3-5.1 5.1v256.1c0 80.5 41 99.1 109.3 87.8 2.5-0.4 4.4-2.7 4.2-5.3l-1.9-39.8c-0.1-2.9-2.7-5.2-5.6-4.8-28.1 3.5-40.3-4.8-40.3-37.9zm-129.2 20.5v-80.3c0-66.1-49.5-89.1-108.5-89.1-29.4 0-64.3 6.4-91.9 21.3-2.4 1.3-3.2 4.4-2 6.8l18 35.2c1.2 2.4 4.2 3.5 6.6 2.3 14.9-7.1 36.2-12.9 60.8-12.9 22.8 0 53.2 6.5 53.2 34.5v4.6c0 3.8-3.9 6.1-7.4 4.5-16.1-7.9-35.9-10.7-53.6-10.7-50.9 0-91.3 26.7-89 82.8 1.5 44.2 40.5 71.8 83.3 71.8 27 0 59.5-9.1 75.5-32.4 1.3-2 4.3-1.3 4.6 1.1 4.6 31.6 37.1 34 68.2 27.9 2.4-0.5 4.1-2.6 4-5l-0.3-27.8c0-2.8-2.3-5-5-5-16.9-0.6-16.5-11.7-16.5-29.6m-65.3-15.7c-2.3 24.2-30 35.2-51.9 35.2-15.2 0-29.9-8.1-31.4-24.8-2.4-22.3 14.8-34.3 35.7-35.7 15.7 0 32.3 3.9 45.2 11.8 1.5 1 2.4 2.6 2.4 4.4v9.1zm-550.7-153.7c-60.4 0.5-120.4 40.8-120.4 120.3 0 79.5 61.4 120.4 122.4 120.4 60.9 0 120.9-39.9 120.9-120.4 0-80.4-61.4-120.8-122.9-120.3zm0.5 182.6c-27.6 0-54.7-20.9-54.7-62.3 0-41.4 28.1-61.8 56.2-61.8 28.1 0 54.7 20.9 54.7 61.8 0 41-28.1 62.8-56.2 62.3zm-190.3-33.7v-256.1c0-2.8-2.3-5.1-5.1-5.1h-55.5c-2.8 0-5.1 2.3-5.1 5.1v256.1c0 80.5 41.1 99.1 109.3 87.8 2.6-0.4 4.4-2.7 4.3-5.3l-1.9-39.8c-0.1-2.9-2.7-5.2-5.6-4.8-28.1 3.5-40.4-4.8-40.4-37.9zm-340.4 10.5v-266.1c0-2.8-2.2-5.1-5.1-5.1h-56.3c-2.9 0-5.1 2.3-5.1 5.1v121.7c-79.9-39.4-162.1 15.7-162.1 105.9 0 64.2 36.6 121.7 106 120.2 29.9-0.5 56.1-15.7 68.9-44.1v6.1c1.4 38.3 39.1 40.3 71.6 33.7 2.3-0.5 4-2.6 4-5l-0.4-34c0-2.7-2.2-4.9-4.9-5-15.9-0.8-16.5-12.9-16.5-33.3m-64.7-29.5c0 28-18.6 52.2-47.6 52.2-35.6 0-50.3-28.4-50.3-61.3 0-56.3 48.5-76.6 95.2-51.3 1.6 0.9 2.7 2.6 2.7 4.5z"/><path fill-rule="evenodd" class="a" d="m336.1 181.9h57.8c2.3 0 4.2 1.9 4.2 4.2v57.7c0 2.3-1.9 4.2-4.2 4.2h-57.8c-2.3 0-4.2-1.9-4.2-4.2v-57.7c0-2.3 1.9-4.2 4.2-4.2z"/></svg>