<svg width="331" height="79" viewBox="0 0 331 79" fill="none" xmlns="http://www.w3.org/2000/svg">
<g clip-path="url(#clip0_83_44)">
<path d="M231.977 61.5263C231.508 61.0799 230.783 61.1469 230.399 61.6602C228.288 64.6729 225.131 66.1681 221.804 66.1681C215.726 66.1681 209.413 61.2808 209.413 52.0418C209.413 42.8028 215.726 38.2503 221.804 38.1387C225.174 38.0717 228.33 39.5223 230.399 42.3565C230.783 42.8475 231.487 42.9144 231.935 42.5127L234.025 40.6828L240.146 35.1483C240.593 34.7243 240.679 34.0102 240.274 33.5415C235.603 27.9401 228.65 25.0836 221.484 25.0836C208.603 25.0836 195.294 34.1217 195.294 52.0418C195.294 69.9842 208.496 79.0223 221.399 78.9107C228.565 78.8438 235.582 75.965 240.295 70.4082C240.7 69.9395 240.615 69.2031 240.167 68.8014L232.809 62.3073L231.977 61.5263ZM320.763 58.4243V1.27204C320.763 0.647177 320.272 0.1339 319.675 0.1339H307.839C307.241 0.1339 306.751 0.647177 306.751 1.27204V58.4243C306.751 76.389 315.495 80.5398 330.062 78.0181C330.595 77.9288 331 77.4155 330.957 76.8353L330.552 67.9534C330.531 67.3062 329.976 66.7929 329.358 66.8822C323.365 67.6633 320.763 65.811 320.763 58.4243ZM293.208 62.9991V45.0791C293.208 30.328 282.651 25.1952 270.068 25.1952C263.798 25.1952 256.354 26.6234 250.468 29.9486C249.956 30.2387 249.786 30.9305 250.042 31.4661L253.88 39.3215C254.136 39.8571 254.776 40.1025 255.288 39.8347C258.466 38.2503 263.009 36.9559 268.255 36.9559C273.118 36.9559 279.601 38.4065 279.601 44.6551V45.6816C279.601 46.5297 278.769 47.0429 278.023 46.6859C274.589 44.9229 270.366 44.298 266.591 44.298C255.736 44.298 247.12 50.2565 247.61 62.776C247.93 72.6398 256.248 78.7992 265.376 78.7992C271.134 78.7992 278.066 76.7684 281.478 71.5686C281.755 71.1223 282.395 71.2785 282.459 71.8141C283.44 78.8661 290.371 79.4017 297.004 78.0404C297.516 77.9288 297.879 77.4602 297.857 76.9246L297.793 70.7206C297.793 70.0958 297.303 69.6048 296.727 69.6048C293.123 69.4709 293.208 66.9938 293.208 62.9991ZM279.281 59.4955C278.791 64.896 272.883 67.3508 268.212 67.3508C264.971 67.3508 261.835 65.5432 261.516 61.8164C261.004 56.8398 264.672 54.1619 269.129 53.8494C272.478 53.8494 276.018 54.7198 278.769 56.4828C279.089 56.7059 279.281 57.063 279.281 57.4647V59.4955ZM161.832 25.1952C148.95 25.3068 136.154 34.3003 136.154 52.0418C136.154 69.7833 149.249 78.9107 162.258 78.9107C175.247 78.9107 188.043 70.0065 188.043 52.0418C188.043 34.0994 174.948 25.0836 161.832 25.1952ZM161.938 65.9449C156.052 65.9449 150.272 61.2808 150.272 52.0418C150.272 42.8028 156.265 38.2503 162.258 38.2503C168.251 38.2503 173.924 42.9144 173.924 52.0418C173.924 61.1915 167.931 66.0565 161.938 65.9449ZM121.352 58.4243V1.27204C121.352 0.647177 120.862 0.1339 120.265 0.1339H108.428C107.831 0.1339 107.34 0.647177 107.34 1.27204V58.4243C107.34 76.389 116.106 80.5398 130.651 78.0181C131.206 77.9288 131.59 77.4155 131.568 76.8353L131.163 67.9534C131.142 67.3062 130.587 66.7929 129.969 66.8822C123.976 67.6633 121.352 65.811 121.352 58.4243ZM48.7543 60.7675V1.38362C48.7543 0.758758 48.2851 0.245482 47.6666 0.245482H35.6593C35.0408 0.245482 34.5716 0.758758 34.5716 1.38362V28.5427C17.5311 19.75 0 32.0463 0 52.1757C0 66.5028 7.8058 79.3347 22.607 79C28.9838 78.8884 34.5716 75.4963 37.3015 69.1585V70.5198C37.6001 79.0669 45.6405 79.5133 52.5718 78.0404C53.0624 77.9288 53.4249 77.4602 53.4249 76.9246L53.3396 69.337C53.3396 68.7345 52.8704 68.2435 52.2946 68.2212C48.9035 68.0427 48.7756 65.3424 48.7756 60.7898M34.9768 54.2065C34.9768 60.4551 31.0099 65.8556 24.825 65.8556C17.2325 65.8556 14.0974 59.5178 14.0974 52.1757C14.0974 39.6116 24.4411 35.0814 34.401 40.7274C34.7422 40.9282 34.9768 41.3076 34.9768 41.7316V54.2065Z" fill="white"/>
<path fill-rule="evenodd" clip-rule="evenodd" d="M71.6809 40.5935H84.0081C84.4986 40.5935 84.9038 41.0175 84.9038 41.5308V54.4073C84.9038 54.9206 84.4986 55.3446 84.0081 55.3446H71.6809C71.1904 55.3446 70.7852 54.9206 70.7852 54.4073V41.5308C70.7852 41.0175 71.1904 40.5935 71.6809 40.5935Z" fill="#1238FF"/>
</g>
<defs>
<clipPath id="clip0_83_44">
<rect width="331" height="79" fill="white"/>
</clipPath>
</defs>
</svg>
