<svg width="477" height="99" viewBox="0 0 477 99" fill="none" xmlns="http://www.w3.org/2000/svg">
<path d="M73.3386 49.209C73.3386 45.5156 75.8156 43.0171 79.5846 43.0171C83.0308 43.0171 85.4 45.5156 85.4 49.209C85.4 52.7936 83.0308 55.1834 79.5846 55.1834C75.8156 55.1834 73.3386 52.7936 73.3386 49.209ZM64.077 29.873C66.2308 26.7228 67.6307 22.9207 67.6307 17.598C72.9077 20.7482 77.3229 25.2019 80.4461 30.5248C75.2769 30.5248 71.5075 31.9367 68.3847 34.218C67.1998 32.5885 65.6925 31.0681 64.077 29.873ZM63.8614 68.7619C65.4769 67.5674 66.877 66.0463 68.1691 64.5255C71.2922 66.9156 75.1694 68.3276 80.4461 68.3276C77.3229 73.7589 72.9077 78.2128 67.6307 81.2544C67.6307 75.8231 66.2308 71.9122 63.8614 68.7619ZM60.6308 4.23659C80.7692 9.34215 95.2 27.3746 95.2 49.4261C95.2 58.6596 88.3078 65.5032 79.3693 65.5032C75.7078 65.5032 72.2615 64.3083 69.6771 62.3529C71.0769 60.0719 72.0462 57.5734 72.6924 54.8575C74.4154 56.8129 76.8923 58.0078 79.5846 58.0078C84.2154 58.0078 88.2 53.9885 88.2 49.209C88.2 34.1096 79.5846 20.8568 66.9848 14.2304C66.0156 10.3198 63.6461 6.73504 60.6308 4.23659ZM55.5694 62.3529C60.2002 59.9632 63.4308 55.0749 63.4308 49.4261C63.4308 38.7804 72.7999 31.8283 82.0615 33.5662C83.2461 36.1735 84.1076 39.1063 84.7538 42.0394C83.2461 40.8445 81.5231 40.1927 79.5846 40.1927C74.6307 40.1927 70.5383 44.3207 70.5383 49.209C70.5383 56.5957 67.1998 62.896 62.1384 66.8068C60.3077 64.8514 58.046 63.3306 55.5694 62.3529ZM42.9693 18.9014C42.9693 15.2081 45.4463 12.7096 49.2153 12.7096C52.6615 12.7096 55.0307 15.2081 55.0307 18.9014C55.0307 22.4862 52.6615 24.876 49.2153 24.876C45.4463 24.876 42.9693 22.4862 42.9693 18.9014ZM42.9693 80.1682C42.9693 76.4749 45.4463 73.9764 49.2153 73.9764C52.6615 73.9764 55.0307 76.4749 55.0307 80.1682C55.0307 83.7529 52.6615 86.1426 49.2153 86.1426C45.4463 86.1426 42.9693 83.7529 42.9693 80.1682ZM37.3692 49.4261C37.3692 42.6912 42.3231 37.6942 49.1078 37.6942C55.7847 37.6942 60.6308 42.6912 60.6308 49.4261C60.6308 56.2698 55.7847 61.158 49.1078 61.158C42.3231 61.158 37.3692 56.2698 37.3692 49.4261ZM49.1078 34.8699C38.7691 34.8699 31.877 26.1796 33.3846 16.1857C36.0769 14.8822 39.0922 13.9045 42.1075 13.3614C40.923 14.8822 40.1693 16.8376 40.1693 18.9014C40.1693 23.6811 44.2614 27.7005 49.2153 27.7005C56.4308 27.7005 62.6768 30.7421 66.4461 35.8476C64.4001 37.803 62.8924 40.1927 61.8153 42.7997C59.4462 38.1286 54.6001 34.8699 49.1078 34.8699ZM33.1693 79.9508C33.1693 76.2574 34.3539 72.8899 36.2925 70.283C38.446 71.5863 40.8155 72.6728 43.3999 73.3246C41.4613 74.9538 40.1693 77.4526 40.1693 80.1682C40.1693 84.9477 44.2614 88.967 49.2153 88.967C64.2923 88.967 77.2154 80.3854 83.677 67.7842C87.6616 66.8068 91.2153 64.5255 93.6923 61.3752C88.6309 81.5803 70.8613 96.0278 49 96.0278C40.0615 96.0278 33.1693 89.0758 33.1693 79.9508ZM31.877 62.7876C33.7077 60.8321 35.2154 58.5508 36.1847 56.0526C38.5538 60.7237 43.5077 63.9824 49.1078 63.9824C59.4462 63.9824 66.2309 73.2158 64.6154 82.8839C61.9231 84.0788 59.0153 85.0565 56 85.5996C57.077 84.0788 57.8307 82.2321 57.8307 80.1682C57.8307 75.2797 53.8461 71.1517 49.2153 71.1517C42 71.1517 35.7538 67.893 31.877 62.7876ZM17.6616 68.3276C22.8308 68.3276 26.7077 66.9156 29.8308 64.5255C31.123 66.0463 32.5231 67.5674 34.1386 68.7619C31.7691 71.9122 30.3693 75.8231 30.3693 81.1456C25.0923 77.9954 20.7847 73.6505 17.6616 68.3276ZM17.5539 30.5248C20.677 25.3105 25.0923 20.8568 30.3693 17.7066C30.3693 23.138 31.7691 27.0487 34.2461 30.1989C32.6306 31.3937 31.123 32.806 29.9385 34.4355C26.8154 31.9367 22.9385 30.5248 17.5539 30.5248ZM13.1385 56.0526C14.7538 57.2475 16.6923 58.0078 18.8461 58.0078C23.4769 58.0078 27.4616 53.9885 27.4616 49.209C27.4616 42.1478 30.8002 36.0647 35.8616 32.1542C37.7998 34.0009 40.0615 35.5217 42.5384 36.4994C37.7998 38.8891 34.5692 43.8861 34.5692 49.4261C34.5692 60.0719 25.6307 66.8068 16.0462 65.2861C14.7538 62.3529 13.7846 59.3114 13.1385 56.0526ZM12.6 49.209C12.6 45.5156 15.0769 43.0171 18.8461 43.0171C22.2923 43.0171 24.6615 45.5156 24.6615 49.209C24.6615 52.7936 22.2923 55.1834 18.8461 55.1834C15.0769 55.1834 12.6 52.7936 12.6 49.209ZM4.2 37.5858C9.36923 17.2721 27.1385 2.8244 48.8922 2.8244C57.9385 2.8244 64.8307 9.77663 64.8307 18.7928C64.8307 22.4862 63.7539 25.7451 61.9231 28.3521C59.7693 27.0487 57.3998 26.071 54.8154 25.5278C56.6461 23.8984 57.8307 21.5085 57.8307 18.9014C57.8307 14.0132 53.8461 9.88528 49.2153 9.88528C34.0308 9.88528 20.8924 18.5755 14.3231 31.0681C10.3384 32.0455 6.7846 34.4355 4.2 37.5858ZM2.79999 49.4261C2.79999 40.3015 9.69229 33.3491 18.7384 33.3491C22.4 33.3491 25.7384 34.544 28.323 36.6081C27.0308 38.672 26.0615 40.9533 25.4154 43.4515C23.8 41.496 21.4307 40.1927 18.8461 40.1927C13.8923 40.1927 9.8 44.3207 9.8 49.209C9.8 64.6342 18.3076 77.7782 30.9077 84.5131C31.877 88.5324 34.2461 92.0086 37.3692 94.6158C17.2308 89.6188 2.79999 71.5863 2.79999 49.4261ZM48.8922 98.8522C75.0616 98.8522 98 77.7782 98 49.4261C98 22.0516 76.1387 6.10352e-05 48.8922 6.10352e-05C21.8615 6.10352e-05 0 22.0516 0 49.4261C0 76.8008 21.8615 98.8522 48.8922 98.8522Z" fill="white"/>
<path d="M73.3386 49.209C73.3386 45.5156 75.8156 43.0171 79.5846 43.0171C83.0308 43.0171 85.4 45.5156 85.4 49.209C85.4 52.7936 83.0308 55.1834 79.5846 55.1834C75.8156 55.1834 73.3386 52.7936 73.3386 49.209ZM64.077 29.873C66.2308 26.7228 67.6307 22.9207 67.6307 17.598C72.9077 20.7482 77.3229 25.2019 80.4461 30.5248C75.2769 30.5248 71.5075 31.9367 68.3847 34.218C67.1998 32.5885 65.6925 31.0681 64.077 29.873ZM63.8614 68.7619C65.4769 67.5674 66.877 66.0463 68.1691 64.5255C71.2922 66.9156 75.1694 68.3276 80.4461 68.3276C77.3229 73.7589 72.9077 78.2128 67.6307 81.2544C67.6307 75.8231 66.2308 71.9122 63.8614 68.7619ZM60.6308 4.23659C80.7692 9.34215 95.2 27.3746 95.2 49.4261C95.2 58.6596 88.3078 65.5032 79.3693 65.5032C75.7078 65.5032 72.2615 64.3083 69.6771 62.3529C71.0769 60.0719 72.0462 57.5734 72.6924 54.8575C74.4154 56.8129 76.8923 58.0078 79.5846 58.0078C84.2154 58.0078 88.2 53.9885 88.2 49.209C88.2 34.1096 79.5846 20.8568 66.9848 14.2304C66.0156 10.3198 63.6461 6.73504 60.6308 4.23659ZM55.5694 62.3529C60.2002 59.9632 63.4308 55.0749 63.4308 49.4261C63.4308 38.7804 72.7999 31.8283 82.0615 33.5662C83.2461 36.1735 84.1076 39.1063 84.7538 42.0394C83.2461 40.8445 81.5231 40.1927 79.5846 40.1927C74.6307 40.1927 70.5383 44.3207 70.5383 49.209C70.5383 56.5957 67.1998 62.896 62.1384 66.8068C60.3077 64.8514 58.046 63.3306 55.5694 62.3529ZM42.9693 18.9014C42.9693 15.2081 45.4463 12.7096 49.2153 12.7096C52.6615 12.7096 55.0307 15.2081 55.0307 18.9014C55.0307 22.4862 52.6615 24.876 49.2153 24.876C45.4463 24.876 42.9693 22.4862 42.9693 18.9014ZM42.9693 80.1682C42.9693 76.4749 45.4463 73.9764 49.2153 73.9764C52.6615 73.9764 55.0307 76.4749 55.0307 80.1682C55.0307 83.7529 52.6615 86.1426 49.2153 86.1426C45.4463 86.1426 42.9693 83.7529 42.9693 80.1682ZM37.3692 49.4261C37.3692 42.6912 42.3231 37.6942 49.1078 37.6942C55.7847 37.6942 60.6308 42.6912 60.6308 49.4261C60.6308 56.2698 55.7847 61.158 49.1078 61.158C42.3231 61.158 37.3692 56.2698 37.3692 49.4261ZM49.1078 34.8699C38.7691 34.8699 31.877 26.1796 33.3846 16.1857C36.0769 14.8822 39.0922 13.9045 42.1075 13.3614C40.923 14.8822 40.1693 16.8376 40.1693 18.9014C40.1693 23.6811 44.2614 27.7005 49.2153 27.7005C56.4308 27.7005 62.6768 30.7421 66.4461 35.8476C64.4001 37.803 62.8924 40.1927 61.8153 42.7997C59.4462 38.1286 54.6001 34.8699 49.1078 34.8699ZM33.1693 79.9508C33.1693 76.2574 34.3539 72.8899 36.2925 70.283C38.446 71.5863 40.8155 72.6728 43.3999 73.3246C41.4613 74.9538 40.1693 77.4526 40.1693 80.1682C40.1693 84.9477 44.2614 88.967 49.2153 88.967C64.2923 88.967 77.2154 80.3854 83.677 67.7842C87.6616 66.8068 91.2153 64.5255 93.6923 61.3752C88.6309 81.5803 70.8613 96.0278 49 96.0278C40.0615 96.0278 33.1693 89.0758 33.1693 79.9508ZM31.877 62.7876C33.7077 60.8321 35.2154 58.5508 36.1847 56.0526C38.5538 60.7237 43.5077 63.9824 49.1078 63.9824C59.4462 63.9824 66.2309 73.2158 64.6154 82.8839C61.9231 84.0788 59.0153 85.0565 56 85.5996C57.077 84.0788 57.8307 82.2321 57.8307 80.1682C57.8307 75.2797 53.8461 71.1517 49.2153 71.1517C42 71.1517 35.7538 67.893 31.877 62.7876ZM17.6616 68.3276C22.8308 68.3276 26.7077 66.9156 29.8308 64.5255C31.123 66.0463 32.5231 67.5674 34.1386 68.7619C31.7691 71.9122 30.3693 75.8231 30.3693 81.1456C25.0923 77.9954 20.7847 73.6505 17.6616 68.3276ZM17.5539 30.5248C20.677 25.3105 25.0923 20.8568 30.3693 17.7066C30.3693 23.138 31.7691 27.0487 34.2461 30.1989C32.6306 31.3937 31.123 32.806 29.9385 34.4355C26.8154 31.9367 22.9385 30.5248 17.5539 30.5248ZM13.1385 56.0526C14.7538 57.2475 16.6923 58.0078 18.8461 58.0078C23.4769 58.0078 27.4616 53.9885 27.4616 49.209C27.4616 42.1478 30.8002 36.0647 35.8616 32.1542C37.7998 34.0009 40.0615 35.5217 42.5384 36.4994C37.7998 38.8891 34.5692 43.8861 34.5692 49.4261C34.5692 60.0719 25.6307 66.8068 16.0462 65.2861C14.7538 62.3529 13.7846 59.3114 13.1385 56.0526ZM12.6 49.209C12.6 45.5156 15.0769 43.0171 18.8461 43.0171C22.2923 43.0171 24.6615 45.5156 24.6615 49.209C24.6615 52.7936 22.2923 55.1834 18.8461 55.1834C15.0769 55.1834 12.6 52.7936 12.6 49.209ZM4.2 37.5858C9.36923 17.2721 27.1385 2.8244 48.8922 2.8244C57.9385 2.8244 64.8307 9.77663 64.8307 18.7928C64.8307 22.4862 63.7539 25.7451 61.9231 28.3521C59.7693 27.0487 57.3998 26.071 54.8154 25.5278C56.6461 23.8984 57.8307 21.5085 57.8307 18.9014C57.8307 14.0132 53.8461 9.88528 49.2153 9.88528C34.0308 9.88528 20.8924 18.5755 14.3231 31.0681C10.3384 32.0455 6.7846 34.4355 4.2 37.5858ZM2.79999 49.4261C2.79999 40.3015 9.69229 33.3491 18.7384 33.3491C22.4 33.3491 25.7384 34.544 28.323 36.6081C27.0308 38.672 26.0615 40.9533 25.4154 43.4515C23.8 41.496 21.4307 40.1927 18.8461 40.1927C13.8923 40.1927 9.8 44.3207 9.8 49.209C9.8 64.6342 18.3076 77.7782 30.9077 84.5131C31.877 88.5324 34.2461 92.0086 37.3692 94.6158C17.2308 89.6188 2.79999 71.5863 2.79999 49.4261ZM48.8922 98.8522C75.0616 98.8522 98 77.7782 98 49.4261C98 22.0516 76.1387 6.10352e-05 48.8922 6.10352e-05C21.8615 6.10352e-05 0 22.0516 0 49.4261C0 76.8008 21.8615 98.8522 48.8922 98.8522Z" fill="white"/>
<path d="M117.793 28.3636H129.17L141.188 57.6818H141.699L153.716 28.3636H165.094V72H156.145V43.598H155.783L144.49 71.7869H138.396L127.104 43.4915H126.741V72H117.793V28.3636ZM182.895 72V28.3636H212.298V35.9702H192.121V46.3679H210.786V53.9744H192.121V64.3935H212.384V72H182.895ZM229.833 72V28.3636H247.049C250.345 28.3636 253.157 28.9531 255.487 30.1321C257.83 31.2969 259.613 32.9517 260.835 35.0966C262.07 37.2273 262.688 39.7344 262.688 42.6179C262.688 45.5156 262.063 48.0085 260.813 50.0966C259.563 52.1705 257.752 53.7614 255.38 54.8693C253.022 55.9773 250.167 56.5312 246.815 56.5312H235.288V49.1165H245.323C247.085 49.1165 248.548 48.875 249.713 48.392C250.877 47.9091 251.744 47.1847 252.312 46.2188C252.894 45.2528 253.186 44.0526 253.186 42.6179C253.186 41.169 252.894 39.9474 252.312 38.9531C251.744 37.9588 250.87 37.206 249.691 36.6946C248.526 36.169 247.056 35.9062 245.281 35.9062H239.059V72H229.833ZM253.399 52.142L264.244 72H254.059L243.448 52.142H253.399ZM317.91 43.6406H308.577C308.407 42.4332 308.059 41.3608 307.533 40.4233C307.008 39.4716 306.333 38.6619 305.509 37.9943C304.685 37.3267 303.734 36.8153 302.654 36.4602C301.589 36.1051 300.431 35.9276 299.181 35.9276C296.922 35.9276 294.955 36.4886 293.279 37.6108C291.603 38.7187 290.303 40.3381 289.38 42.4688C288.457 44.5852 287.995 47.1562 287.995 50.1818C287.995 53.2926 288.457 55.9062 289.38 58.0227C290.317 60.1392 291.624 61.7372 293.3 62.8168C294.976 63.8963 296.915 64.4361 299.117 64.4361C300.353 64.4361 301.496 64.2727 302.547 63.946C303.613 63.6193 304.557 63.1435 305.381 62.5185C306.205 61.8793 306.887 61.1051 307.427 60.196C307.981 59.2869 308.364 58.25 308.577 57.0852L317.91 57.1278C317.668 59.1307 317.064 61.0625 316.099 62.9233C315.147 64.7699 313.861 66.4247 312.242 67.8878C310.637 69.3366 308.719 70.4872 306.489 71.3395C304.273 72.1776 301.766 72.5966 298.968 72.5966C295.076 72.5966 291.596 71.7159 288.528 69.9545C285.474 68.1932 283.059 65.6435 281.283 62.3054C279.522 58.9673 278.641 54.9261 278.641 50.1818C278.641 45.4233 279.536 41.375 281.326 38.0369C283.116 34.6989 285.545 32.1562 288.613 30.4091C291.681 28.6477 295.133 27.767 298.968 27.767C301.496 27.767 303.84 28.1222 305.999 28.8324C308.172 29.5426 310.097 30.5795 311.773 31.9432C313.449 33.2926 314.813 34.9474 315.864 36.9077C316.93 38.8679 317.611 41.1122 317.91 43.6406ZM361.679 28.3636H370.904V56.7017C370.904 59.8835 370.144 62.6676 368.625 65.054C367.119 67.4403 365.01 69.3011 362.296 70.6364C359.583 71.9574 356.423 72.6179 352.815 72.6179C349.193 72.6179 346.025 71.9574 343.312 70.6364C340.599 69.3011 338.49 67.4403 336.984 65.054C335.478 62.6676 334.725 59.8835 334.725 56.7017V28.3636H343.951V55.9134C343.951 57.5753 344.313 59.0526 345.038 60.3452C345.777 61.6378 346.813 62.6534 348.149 63.392C349.484 64.1307 351.039 64.5 352.815 64.5C354.605 64.5 356.16 64.1307 357.481 63.392C358.816 62.6534 359.846 61.6378 360.571 60.3452C361.309 59.0526 361.679 57.5753 361.679 55.9134V28.3636ZM388.695 72V28.3636H405.911C409.206 28.3636 412.019 28.9531 414.348 30.1321C416.692 31.2969 418.475 32.9517 419.696 35.0966C420.932 37.2273 421.55 39.7344 421.55 42.6179C421.55 45.5156 420.925 48.0085 419.675 50.0966C418.425 52.1705 416.614 53.7614 414.242 54.8693C411.884 55.9773 409.029 56.5312 405.676 56.5312H394.15V49.1165H404.185C405.946 49.1165 407.409 48.875 408.574 48.392C409.739 47.9091 410.605 47.1847 411.174 46.2188C411.756 45.2528 412.047 44.0526 412.047 42.6179C412.047 41.169 411.756 39.9474 411.174 38.9531C410.605 37.9588 409.732 37.206 408.553 36.6946C407.388 36.169 405.918 35.9062 404.142 35.9062H397.921V72H388.695ZM412.26 52.142L423.105 72H412.921L402.31 52.142H412.26ZM433.897 28.3636H444.231L454.181 47.1562H454.607L464.557 28.3636H474.891L458.975 56.5739V72H449.813V56.5739L433.897 28.3636Z" fill="white"/>
</svg>
