<svg width="43" height="36" viewBox="0 0 43 36" fill="none" xmlns="http://www.w3.org/2000/svg">
<path d="M29.25 22.5H24.75C23.4844 22.5 22.5 23.5547 22.5 24.75V33.75C22.5 35.0156 23.4844 36 24.75 36H29.25C30.4453 36 31.5 35.0156 31.5 33.75V24.75C31.5 23.5547 30.4453 22.5 29.25 22.5ZM28.125 32.625H25.875V25.875H28.125V32.625ZM40.5 13.5H36C34.7344 13.5 33.75 14.5547 33.75 15.75V33.75C33.75 35.0156 34.7344 36 36 36H40.5C41.6953 36 42.75 35.0156 42.75 33.75V15.75C42.75 14.5547 41.6953 13.5 40.5 13.5ZM39.375 32.625H37.125V16.875H39.375V32.625ZM18 13.5H13.5C12.2344 13.5 11.25 14.5547 11.25 15.75V33.75C11.25 35.0156 12.2344 36 13.5 36H18C19.1953 36 20.25 35.0156 20.25 33.75V15.75C20.25 14.5547 19.1953 13.5 18 13.5ZM16.875 32.625H14.625V16.875H16.875V32.625ZM6.75 24.75H2.25C0.984375 24.75 0 25.8047 0 27V33.75C0 35.0156 0.984375 36 2.25 36H6.75C7.94531 36 9 35.0156 9 33.75V27C9 25.8047 7.94531 24.75 6.75 24.75ZM5.625 32.625H3.375V28.125H5.625V32.625ZM4.5 18C6.32812 18 7.875 16.5234 7.875 14.625C7.875 14.3438 7.80469 14.0625 7.73438 13.7812L14.8359 6.67969C15.1172 6.75 15.3984 6.75 15.75 6.75C16.1719 6.75 16.5234 6.67969 16.9453 6.53906L23.625 11.8828C23.625 12.0938 23.625 12.2344 23.625 12.375C23.625 14.2734 25.1016 15.75 27 15.75C28.8281 15.75 30.375 14.2734 30.375 12.375C30.375 12.2344 30.3047 12.0938 30.3047 11.8828L36.9844 6.53906C37.4062 6.67969 37.7578 6.75 38.25 6.75C40.0781 6.75 41.625 5.27344 41.625 3.375C41.625 1.54688 40.0781 0 38.25 0C36.3516 0 34.875 1.54688 34.875 3.375C34.875 3.58594 34.875 3.72656 34.875 3.9375L28.1953 9.28125C27.7734 9.14062 27.4219 9 26.9297 9C26.5078 9 26.1562 9.14062 25.7344 9.28125L19.0547 3.9375C19.0547 3.72656 19.125 3.58594 19.125 3.375C19.125 1.54688 17.5781 0 15.75 0C13.8516 0 12.375 1.54688 12.375 3.375C12.375 3.72656 12.375 4.00781 12.4453 4.28906L5.34375 11.3906C5.0625 11.3203 4.78125 11.25 4.5 11.25C2.60156 11.25 1.125 12.7969 1.125 14.625C1.125 16.5234 2.60156 18 4.5 18Z" fill="url(#paint0_linear_15643_162)"/>
<defs>
<linearGradient id="paint0_linear_15643_162" x1="42.75" y1="18" x2="0" y2="18" gradientUnits="userSpaceOnUse">
<stop stop-color="#F29501"/>
<stop offset="1" stop-color="#FCCA01"/>
</linearGradient>
</defs>
</svg>
