<svg width="17" height="19" viewBox="0 0 17 19" fill="none" xmlns="http://www.w3.org/2000/svg">
<path d="M16.0121 13.2344C15.3194 12.4687 13.9705 11.3385 13.9705 7.58333C13.9705 4.77604 12.0017 2.51562 9.30378 1.93229V1.16667C9.30378 0.546875 8.79337 0 8.17358 0C7.51733 0 7.00691 0.546875 7.00691 1.16667V1.93229C4.30899 2.51562 2.34024 4.77604 2.34024 7.58333C2.34024 11.3385 0.991284 12.4687 0.298576 13.2344C0.0798255 13.4531 -0.0295495 13.7448 0.00690887 14C0.00690887 14.6198 0.444409 15.1667 1.17358 15.1667H15.1371C15.8663 15.1667 16.3038 14.6198 16.3402 14C16.3402 13.7448 16.2309 13.4531 16.0121 13.2344ZM2.44962 13.4167C3.21524 12.4323 4.05378 10.7187 4.09024 7.61979C4.09024 7.61979 4.09024 7.61979 4.09024 7.58333C4.09024 5.35937 5.91316 3.5 8.17358 3.5C10.3975 3.5 12.2569 5.35937 12.2569 7.58333C12.2569 7.61979 12.2205 7.61979 12.2205 7.61979C12.2569 10.7187 13.0955 12.4323 13.8611 13.4167H2.44962ZM8.17358 18.6667C9.44962 18.6667 10.4705 17.6458 10.4705 16.3333H5.84024C5.84024 17.6458 6.86108 18.6667 8.17358 18.6667Z" fill="url(#paint0_linear_15643_685)"/>
<defs>
<linearGradient id="paint0_linear_15643_685" x1="16.3402" y1="9.33333" x2="0" y2="9.33333" gradientUnits="userSpaceOnUse">
<stop stop-color="#F29501"/>
<stop offset="1" stop-color="#FCCA01"/>
</linearGradient>
</defs>
</svg>
