<svg width="23" height="30" viewBox="0 0 23 30" fill="none" xmlns="http://www.w3.org/2000/svg">
<path d="M21.6279 9.625C21.1695 8.82292 20.3102 8.30729 19.3935 8.30729H13.9508L15.6122 3.32292C15.8414 2.52083 15.6695 1.71875 15.1539 1.03125C14.6383 0.401042 13.8935 0 13.0914 0H5.58621C4.2685 0 3.17996 1.03125 3.00808 2.17708L0.0289168 14.3229C-0.0856666 15.125 0.1435 15.8698 0.659125 16.5C1.17475 17.0729 1.97683 17.4167 2.77892 17.4167H8.3935L6.38829 26.125C6.21642 26.9271 6.38829 27.7292 6.84662 28.3594C7.36225 28.9896 8.10704 29.3333 8.90912 29.3333C9.88308 29.3333 10.7425 28.875 11.1435 28.1302L21.6279 12.2604C22.1435 11.4583 22.1435 10.4844 21.6279 9.625ZM9.19558 26.2396L11.831 14.6667H2.72163L5.58621 2.75H12.9195L10.1695 11.0573H19.1643L9.19558 26.2396Z" fill="url(#paint0_linear_15643_83)"/>
<defs>
<linearGradient id="paint0_linear_15643_83" x1="22.0146" y1="14.6667" x2="0" y2="14.6667" gradientUnits="userSpaceOnUse">
<stop stop-color="#F29501"/>
<stop offset="1" stop-color="#FCCA01"/>
</linearGradient>
</defs>
</svg>
