<svg width="42" height="38" viewBox="0 0 42 38" fill="none" xmlns="http://www.w3.org/2000/svg">
<path d="M12.8333 7C10.8646 7 9.33333 8.60417 9.33333 10.5C9.33333 12.4687 10.8646 14 12.8333 14C14.7292 14 16.3333 12.4687 16.3333 10.5C16.3333 8.60417 14.7292 7 12.8333 7ZM26.8333 7C24.8646 7 23.3333 8.60417 23.3333 10.5C23.3333 12.4687 24.8646 14 26.8333 14C28.7292 14 30.3333 12.4687 30.3333 10.5C30.3333 8.60417 28.7292 7 26.8333 7ZM40.1042 17.5C39.6667 17.5729 39.3021 17.6458 39.0104 17.8646L32.6667 22.1667C32.5937 21.2917 32.375 20.4167 31.8646 19.6875C35.0729 17.8646 37.3333 14.4375 37.3333 10.5C37.3333 4.73958 32.5937 0 26.8333 0C24.2083 0 21.7292 1.02083 19.8333 2.77083C17.8646 1.02083 15.3854 0 12.8333 0C7 0 2.33333 4.73958 2.33333 10.5C2.33333 13.1979 3.35417 15.6771 5.03125 17.5H2.33333C1.02083 17.5 0 18.5937 0 19.8333V24.5C0 25.8125 1.02083 26.8333 2.33333 26.8333H5.83333V32.6667C5.83333 35.2917 7.875 37.3333 10.5 37.3333H28C30.5521 37.3333 32.6667 35.2917 32.6667 32.6667V32.7396L39.0104 37.0417C39.3021 37.2604 39.6667 37.3333 40.1042 37.3333C41.0521 37.3333 42 36.6042 42 35.5104V19.3958C42 18.3021 41.0521 17.5 40.1042 17.5ZM29.1667 32.6667C29.1667 33.3229 28.5833 33.8333 28 33.8333H10.5C9.84375 33.8333 9.33333 33.3229 9.33333 32.6667V23.3333H3.5V21H28C28.5833 21 29.1667 21.5833 29.1667 22.1667V32.6667ZM26.8333 17.5H12.8333C8.96875 17.5 5.83333 14.3646 5.83333 10.5C5.83333 6.70833 8.96875 3.5 12.8333 3.5C14.5104 3.5 16.1146 4.15625 17.4271 5.32292L19.8333 7.4375L22.1667 5.32292C23.4792 4.15625 25.0833 3.5 26.8333 3.5C30.625 3.5 33.8333 6.70833 33.8333 10.5C33.8333 14.3646 30.625 17.5 26.8333 17.5ZM38.5 32.4479L32.6667 28.5104V26.3229L38.5 22.4583V32.4479Z" fill="url(#paint0_linear_15643_746)"/>
<defs>
<linearGradient id="paint0_linear_15643_746" x1="42" y1="18.6667" x2="0" y2="18.6667" gradientUnits="userSpaceOnUse">
<stop stop-color="#F29501"/>
<stop offset="1" stop-color="#FCCA01"/>
</linearGradient>
</defs>
</svg>
