<svg width="30" height="22" viewBox="0 0 30 22" fill="none" xmlns="http://www.w3.org/2000/svg">
<path d="M6.70313 12.2604C7.04688 12.6042 7.67708 12.6042 8.02083 12.2604L11 9.28125L15.8125 14.151C16.1563 14.4948 16.7865 14.4948 17.1302 14.151L23.4323 7.84896L25.151 9.51042C26.0104 10.4271 27.5 9.79688 27.5 8.53646V2.75C27.5 2.29167 27.0417 1.83333 26.5833 1.83333H20.7969C19.5365 1.83333 18.9063 3.32292 19.8229 4.18229L21.4844 5.90104L16.5 10.9427L11.6302 6.07292C11.2865 5.72917 10.6563 5.72917 10.3125 6.07292L6.07292 10.3125C5.72917 10.6563 5.72917 11.2865 6.07292 11.6302L6.70313 12.2604ZM28.4167 19.25H2.75V0.916667C2.75 0.458333 2.29167 0 1.83333 0H0.916667C0.401042 0 0 0.458333 0 0.916667V20.1667C0 21.1979 0.802083 22 1.83333 22H28.4167C28.875 22 29.3333 21.599 29.3333 21.0833V20.1667C29.3333 19.7083 28.875 19.25 28.4167 19.25Z" fill="url(#paint0_linear_15643_394)"/>
<defs>
<linearGradient id="paint0_linear_15643_394" x1="29.3333" y1="11" x2="0" y2="11" gradientUnits="userSpaceOnUse">
<stop stop-color="#F29501"/>
<stop offset="1" stop-color="#FCCA01"/>
</linearGradient>
</defs>
</svg>
