<svg width="45" height="36" viewBox="0 0 45 36" fill="none" xmlns="http://www.w3.org/2000/svg">
<path d="M39.9375 25.8047C38.5312 25.8047 37.3359 26.3672 36.4219 27.2109L30.9375 24.0469C31.2891 23.2031 31.5 22.2891 31.5 21.3047C31.5 17.0156 27.9141 13.4297 23.625 13.4297C22.9922 13.4297 22.4297 13.5703 21.8672 13.6406L19.6172 8.78906C20.6719 7.875 21.375 6.53906 21.375 5.0625C21.375 2.25 19.0547 0 16.3125 0C13.5 0 11.25 2.25 11.25 5.0625C11.25 7.80469 13.5 10.125 16.3125 10.125C16.3125 10.125 16.3828 10.0547 16.4531 10.0547L18.8438 15.1172C16.9453 16.5234 15.75 18.7734 15.75 21.3047C15.75 25.6641 19.2656 29.1797 23.625 29.1797C25.7344 29.1797 27.7031 28.3359 29.1094 26.9297L34.9453 30.2344C34.875 30.4453 34.875 30.6562 34.875 30.8672C34.875 33.6797 37.125 35.9297 39.9375 35.9297C42.6797 35.9297 45 33.6797 45 30.8672C45 28.125 42.6797 25.8047 39.9375 25.8047ZM16.3125 6.67969C15.3281 6.67969 14.625 5.97656 14.625 4.99219C14.625 4.07812 15.3281 3.30469 16.3125 3.30469C17.2266 3.30469 18 4.07812 18 4.99219C18 5.97656 17.2266 6.67969 16.3125 6.67969ZM23.625 25.8047C21.0938 25.8047 19.125 23.8359 19.125 21.3047C19.125 18.8438 21.0938 16.8047 23.625 16.8047C26.0859 16.8047 28.125 18.8438 28.125 21.3047C28.125 23.8359 26.0859 25.8047 23.625 25.8047ZM39.9375 32.5547C38.9531 32.5547 38.25 31.8516 38.25 30.8672C38.25 29.9531 38.9531 29.1797 39.9375 29.1797C40.8516 29.1797 41.625 29.9531 41.625 30.8672C41.625 31.8516 40.8516 32.5547 39.9375 32.5547ZM36.0703 14.2031L34.7344 12.4453L31.3594 14.9766L32.6953 16.7344L36.0703 14.2031ZM40.5 13.4297C42.9609 13.4297 45 11.4609 45 8.92969C45 6.46875 42.9609 4.42969 40.5 4.42969C37.9688 4.42969 36 6.46875 36 8.92969C36 11.4609 37.9688 13.4297 40.5 13.4297ZM10.6875 22.4297H14.0625V20.1797H10.6875V22.4297ZM4.5 16.8047C1.96875 16.8047 0 18.8438 0 21.3047C0 23.8359 1.96875 25.8047 4.5 25.8047C6.96094 25.8047 9 23.8359 9 21.3047C9 18.8438 6.96094 16.8047 4.5 16.8047Z" fill="url(#paint0_linear_15643_735)"/>
<defs>
<linearGradient id="paint0_linear_15643_735" x1="45" y1="17.9648" x2="0" y2="17.9648" gradientUnits="userSpaceOnUse">
<stop stop-color="#F29501"/>
<stop offset="1" stop-color="#FCCA01"/>
</linearGradient>
</defs>
</svg>
