<svg width="37" height="30" viewBox="0 0 37 30" fill="none" xmlns="http://www.w3.org/2000/svg">
<path d="M35.7715 8.49023C36.123 8.13867 36.123 7.64648 35.7715 7.29492L28.7402 0.263672C28.3887 -0.0878906 27.8262 -0.0878906 27.5449 0.263672L26.1387 1.66992C25.7871 1.95117 25.7871 2.51367 26.1387 2.86523L29.7246 6.16992H0.896484C0.404297 6.16992 0.0527344 6.5918 0.0527344 7.01367V8.70117C0.0527344 9.19336 0.404297 9.54492 0.896484 9.54492H29.7246L26.1387 12.9199C25.7871 13.2715 25.7871 13.834 26.1387 14.1152L27.5449 15.5215C27.8262 15.873 28.3887 15.873 28.7402 15.5215L35.7715 8.49023ZM0.263672 21.9902L7.29492 29.0215C7.64648 29.373 8.20898 29.373 8.49023 29.0215L9.89648 27.6152C10.248 27.334 10.248 26.7715 9.89648 26.4199L6.31055 23.0449H35.209C35.6309 23.0449 36.0527 22.6934 36.0527 22.2012V20.5137C36.0527 20.0918 35.6309 19.6699 35.209 19.6699H6.31055L9.89648 16.3652C10.248 16.0137 10.248 15.4512 9.89648 15.1699L8.49023 13.7637C8.20898 13.4121 7.64648 13.4121 7.29492 13.7637L0.263672 20.7949C-0.0878906 21.1465 -0.0878906 21.6387 0.263672 21.9902Z" fill="url(#paint0_linear_15643_544)"/>
<defs>
<linearGradient id="paint0_linear_15643_544" x1="36.0527" y1="14.6426" x2="0" y2="14.6426" gradientUnits="userSpaceOnUse">
<stop stop-color="#F29501"/>
<stop offset="1" stop-color="#FCCA01"/>
</linearGradient>
</defs>
</svg>
