<svg width="18" height="19" viewBox="0 0 18 19" fill="none" xmlns="http://www.w3.org/2000/svg">
<path d="M17.8646 9.04167C17.8281 4.04688 13.7813 0 8.82292 0C6.30729 0 4.01042 1.05729 2.36979 2.69792L0.729167 1.05729C0.473958 0.802083 0 0.984375 0 1.38542V5.97917C0 6.23438 0.182292 6.41667 0.4375 6.41667H5.10417C5.50521 6.41667 5.6875 5.94271 5.43229 5.6875L3.64583 3.9375C4.95833 2.58854 6.78125 1.75 8.82292 1.75C12.8333 1.75 16.1146 5.03125 16.1146 9.04167C16.1146 13.0885 12.8333 16.3333 8.82292 16.3333C6.92708 16.3333 5.25 15.6406 3.9375 14.5104C3.79167 14.3646 3.5 14.3646 3.35417 14.5104L2.73438 15.1302C2.55208 15.3125 2.55208 15.6042 2.73438 15.7865C4.33854 17.2083 6.48958 18.1198 8.82292 18.0833C13.7813 18.0833 17.8646 14.0365 17.8646 9.04167ZM11.7396 12.3229L12.2865 11.6302C12.3958 11.4115 12.3594 11.1563 12.1771 11.0104L9.69792 9.1875V3.9375C9.69792 3.71875 9.47917 3.5 9.26042 3.5H8.38542C8.13021 3.5 7.94792 3.71875 7.94792 3.9375V10.099L11.1563 12.4323C11.3385 12.5781 11.6302 12.5417 11.7396 12.3229Z" fill="url(#paint0_linear_15643_527)"/>
<defs>
<linearGradient id="paint0_linear_15643_527" x1="17.8646" y1="9.04219" x2="0" y2="9.04219" gradientUnits="userSpaceOnUse">
<stop stop-color="#F29501"/>
<stop offset="1" stop-color="#FCCA01"/>
</linearGradient>
</defs>
</svg>
