<svg width="109" height="110" viewBox="0 0 109 110" fill="none" xmlns="http://www.w3.org/2000/svg">
<g clip-path="url(#clip0_15448_2371)">
<path d="M54.7391 115C53.902 114.401 53.6329 113.533 53.6329 112.544C53.6329 108.052 53.603 103.56 53.6329 99.0677C53.6329 97.211 54.3803 96.5222 56.2638 96.5222C57.3699 96.5222 58.5059 96.4922 59.6121 96.5222C60.509 96.5521 60.8079 96.3125 60.5986 95.3542C59.4028 89.8138 57.7287 84.4232 55.8153 79.1224C53.3639 72.2644 50.8227 65.4063 48.3115 58.5782C47.7136 56.931 47.8332 55.3438 48.6104 53.7865C50.7629 49.5938 56.2937 49.2943 58.8348 53.3373C61.4656 57.5599 63.9769 61.8425 66.5479 66.0951C67.7736 68.1315 68.9695 70.2279 70.255 72.2344C71.4209 74.0912 73.2446 74.6901 75.0682 73.9414C76.5929 73.3125 77.4599 72.2045 77.4599 70.5274C77.4599 70.3177 77.43 70.0782 77.4898 69.8685C77.6691 68.9401 78.1774 68.2813 79.1938 68.2214C80.2103 68.1315 80.8979 68.6107 81.1968 69.6289C81.7948 71.6953 80.569 74.8099 78.5361 76.3972C74.8888 79.2422 69.9261 78.4935 67.2355 74.6302C66.1294 73.043 65.1727 71.336 64.1861 69.6589C61.4058 65.0469 58.6255 60.4349 55.8452 55.8229C55.0679 54.5352 54.0515 54.086 53.0051 54.5352C51.9289 54.9844 51.4804 56.2123 52.0186 57.6198C54.0216 63.1003 56.0844 68.5508 58.0575 74.0313C60.5688 81.0391 62.9903 88.0769 64.4552 95.4141C64.6346 96.2526 64.9634 96.5521 65.8603 96.5521C72.1982 96.5222 78.5361 96.5222 84.874 96.5222C85.442 96.5222 85.9503 96.4922 86.2193 95.8034C88.312 90.3229 90.9429 85.0521 92.8562 79.4818C93.7531 76.9063 94.4706 74.2709 94.5304 71.5157C94.5603 69.4792 94.052 67.6823 92.9459 66.0052C90.5841 62.4714 87.5646 59.5065 84.4854 56.6315C83.2895 55.4935 82.0339 54.4453 80.8381 53.3373C79.8216 52.3789 79.7021 51.3607 80.4793 50.4922C81.2267 49.6537 82.2731 49.5938 83.2596 50.4623C87.5646 54.1459 91.6604 58.069 95.218 62.5313C98.9848 67.293 98.925 72.474 97.3705 77.9545C95.8159 83.375 93.3644 88.4362 91.2418 93.6172C90.9728 94.2461 90.7336 94.875 90.4645 95.474C90.1058 96.2227 90.2254 96.5821 91.1521 96.5521C92.0191 96.5222 92.8562 96.5222 93.7232 96.5521C95.0386 96.612 95.7561 97.3008 95.7561 98.5886C95.786 103.41 95.7561 108.232 95.786 113.083C95.786 113.922 95.3375 114.461 94.7994 115C81.436 115 68.0726 115 54.7391 115ZM74.7394 111.316C80.1206 111.316 85.4719 111.316 90.8532 111.316C91.6903 111.316 92.049 111.107 92.049 110.178C91.9892 107.303 91.9892 104.428 92.049 101.523C92.049 100.625 91.7202 100.326 90.8532 100.385C89.0295 100.475 87.2059 100.595 85.3823 100.565C76.5032 100.565 67.6242 100.715 58.775 100.356C57.8183 100.326 57.4297 100.565 57.4596 101.613C57.5194 104.428 57.5194 107.214 57.4596 110.029C57.4297 111.047 57.7884 111.286 58.7451 111.286C64.0965 111.316 69.4179 111.316 74.7394 111.316Z" fill="#383E51"/>
<path d="M41.3458 55.7929C41.3458 56.6614 41.3757 57.5299 41.3458 58.3685C41.286 59.4765 40.5984 60.1653 39.6417 60.2552C38.5655 60.345 37.7583 59.776 37.6088 58.638C37.3697 56.7213 37.3697 54.7448 37.6088 52.8281C37.7284 51.6601 38.5356 51.0911 39.6118 51.151C40.6283 51.2109 41.3159 51.9596 41.3458 53.0976C41.4056 53.9961 41.3757 54.8945 41.3458 55.7929Z" fill="#383E51"/>
<path d="M46.0097 66.8737C43.7675 66.8438 41.5253 66.8737 39.2832 66.8737C35.8153 66.8737 33.9916 65.0469 33.9916 61.513C33.9916 55.3437 33.9916 49.2044 33.9916 43.0352H30.2546C30.2546 49.5039 30.2546 55.9727 30.2546 62.4714C30.2546 66.5443 33.2143 69.9583 37.2503 70.5573C40.18 71.0065 43.1397 70.707 46.0695 70.737C47.5045 70.737 48.3117 69.9284 48.2818 68.7604C48.2818 67.5924 47.4746 66.9036 46.0097 66.8737Z" fill="#383E51"/>
<path d="M72.587 43.0652C72.587 49.2345 72.587 55.4037 72.587 61.6029C72.587 62.9207 72.288 64.0886 71.5406 65.1967C70.7633 66.3048 70.9128 67.4128 71.8396 68.0417C72.7663 68.6707 73.9024 68.4311 74.6498 67.3829C75.7858 65.8256 76.4435 64.0886 76.4435 62.172C76.4435 55.823 76.4435 49.4441 76.4435 43.0951H72.587V43.0652Z" fill="#383E51"/>
<path d="M41.3758 43.0652H37.5193C37.3997 44.6225 37.4296 46.2097 37.6089 47.767C37.7285 48.935 38.5058 49.5339 39.5821 49.474C40.5985 49.4441 41.316 48.6954 41.3758 47.5574C41.4057 46.6889 41.3758 45.8503 41.3758 44.9819C41.3758 44.3529 41.3758 43.6941 41.3758 43.0652Z" fill="#383E51"/>
<path d="M57.131 14.7044C57.131 13.8359 57.1011 12.9974 57.131 12.1289C57.2207 9.85286 58.9546 8.11588 61.1968 8.02604C62.4225 7.96614 63.6482 7.99609 64.874 8.02604C67.3553 8.05598 69.179 9.79296 69.2986 12.2786C69.3583 13.8958 69.3583 15.4831 69.2986 17.1003C69.2089 19.4362 67.5945 21.1133 65.2626 21.4427C63.7379 21.6523 62.2133 21.6523 60.6886 21.4128C58.6258 21.0833 57.1609 19.4062 57.1011 17.3099C57.1011 16.4414 57.131 15.5729 57.131 14.7044ZM65.442 14.7044C65.4121 11.3802 65.8306 11.7695 62.5421 11.7695C62.5122 11.7695 62.4823 11.7695 62.4225 11.7695C60.9875 11.7695 60.8679 11.9193 60.8679 13.2969C60.8679 14.2253 60.8679 15.1536 60.8679 16.112C60.8679 17.6094 60.9576 17.6992 62.4823 17.6992C65.8306 17.6393 65.4121 18.1185 65.442 14.7044Z" fill="#2A3045"/>
<path d="M48.0426 21.7723C48.0426 25.3959 48.0426 29.0196 48.0426 32.6433C48.0426 33.0926 48.0426 33.5418 47.923 33.991C47.6839 34.9194 47.056 35.5183 46.0994 35.4884C45.0829 35.4884 44.4551 34.8595 44.2159 33.8712C44.1263 33.5118 44.1562 33.1225 44.1562 32.7631C44.1562 25.396 44.1562 18.0288 44.1562 10.6616C44.1562 10.2124 44.1562 9.76314 44.2757 9.34387C44.5149 8.50532 45.1427 8.05611 46.0097 8.02616C46.9066 7.99621 47.5045 8.41548 47.8333 9.22407C48.0426 9.73319 48.0426 10.2423 48.0426 10.7814C48.0426 14.435 48.0426 18.1186 48.0426 21.7723Z" fill="#2A3045"/>
<path d="M54.5898 17.5495C54.5898 19.9753 54.5898 22.401 54.5898 24.8268C54.5898 26.2344 53.9021 26.9831 52.7362 27.013C51.5703 27.013 50.8528 26.2344 50.8528 24.8568C50.8528 19.9753 50.8528 15.0638 50.8528 10.1823C50.8528 8.77474 51.5404 8.02604 52.7063 7.99609C53.8723 7.99609 54.5898 8.77474 54.5898 10.1523C54.5898 12.638 54.5898 15.0937 54.5898 17.5495Z" fill="#2A3045"/>
<path d="M10.7926 32.4337C9.68642 32.4038 9.0586 31.9246 8.81944 30.9663C8.58027 30.0079 9.0586 29.1095 10.0751 28.7501C11.7492 28.1511 13.4832 27.642 15.1872 27.103C17.3696 26.4142 19.5221 25.7254 21.7045 25.0665C23.0498 24.6472 24.0663 25.0965 24.4549 26.2045C24.8137 27.2827 24.2158 28.3009 22.8705 28.7202C19.1036 29.9181 15.3367 31.086 11.5698 32.254C11.2709 32.3439 10.9719 32.3738 10.7926 32.4337Z" fill="#2A3045"/>
<path d="M86.4586 14.1355C85.472 14.1055 84.6051 13.3868 84.5154 12.4883C84.3958 11.4701 84.8741 10.7214 85.8308 10.4219C88.1029 9.67322 90.3749 8.95447 92.647 8.23572C94.2913 7.72661 95.9057 7.18754 97.5499 6.70838C98.7458 6.349 99.7921 6.79822 100.121 7.7865C100.51 8.86463 99.9715 9.94275 98.7458 10.3321C94.8294 11.5899 90.943 12.7878 87.0266 14.0157C86.8173 14.0756 86.5782 14.1055 86.4586 14.1355Z" fill="#2A3045"/>
<path d="M97.9386 32.4036C97.4004 32.2539 96.653 32.0143 95.9056 31.8047C92.647 30.7864 89.3585 29.7383 86.0998 28.72C85.1133 28.4205 84.4556 27.8216 84.4556 26.7135C84.4556 25.5755 85.5617 24.5872 86.6679 24.9466C90.8533 26.1744 95.0088 27.4922 99.1344 28.8698C100.091 29.1992 100.39 30.1276 100.121 31.1159C99.8818 32.0442 99.1643 32.4635 97.9386 32.4036Z" fill="#2A3045"/>
<path d="M10.6431 6.52856C10.7926 6.55851 10.972 6.58846 11.1513 6.64836C15.1275 7.90617 19.1335 9.13403 23.0798 10.4218C24.3653 10.8411 24.8735 12.039 24.2756 13.0872C23.8271 13.9257 23.0798 14.3749 22.1231 14.1054C18.1171 12.8176 14.0512 11.5299 10.0153 10.2421C9.02874 9.91268 8.64009 9.10409 8.81947 8.08586C8.96895 7.09758 9.68644 6.6783 10.6431 6.52856Z" fill="#2A3045"/>
<path d="M7.95231 17.6692C9.83575 17.6692 11.7491 17.6692 13.6325 17.6692C15.0077 17.6692 15.8448 18.358 15.9046 19.4661C15.9644 20.634 15.1871 21.5025 13.7521 21.5025C9.89554 21.5624 6.00909 21.5624 2.15253 21.5025C0.717536 21.5025 -0.059754 20.664 3.75097e-05 19.496C0.0598291 18.3879 0.896911 17.6991 2.27212 17.6991C4.15555 17.6692 6.06888 17.6692 7.95231 17.6692Z" fill="#2A3045"/>
<path d="M101.048 17.6694C102.931 17.6694 104.845 17.6694 106.728 17.6694C108.103 17.6694 108.94 18.3582 109 19.4363C109.06 20.6042 108.283 21.4727 106.878 21.5027C103.021 21.5626 99.1345 21.5626 95.278 21.5027C93.843 21.4727 93.0657 20.6342 93.0956 19.4662C93.1553 18.3282 93.9924 17.6694 95.4573 17.6394C97.3109 17.6694 99.1644 17.6694 101.048 17.6694Z" fill="#2A3045"/>
<path d="M41.3758 12.5782C41.3758 13.4767 41.4057 14.3751 41.3758 15.2735C41.316 16.3517 40.6284 17.0704 39.6718 17.1602C38.5955 17.2501 37.7883 16.6811 37.6388 15.5131C37.3997 13.5964 37.3997 11.6199 37.6388 9.70322C37.7584 8.53525 38.5656 7.96624 39.6419 8.05608C40.6583 8.11598 41.316 8.86468 41.3758 10.0326C41.4057 10.8412 41.3758 11.7097 41.3758 12.5782Z" fill="#2A3045"/>
<path d="M41.346 23.3594C41.346 24.2578 41.3759 25.1563 41.346 26.0547C41.2862 27.1328 40.5986 27.8516 39.6121 27.9115C38.5358 28.0013 37.7286 27.4323 37.6091 26.2643C37.3699 24.3177 37.3699 22.3711 37.6091 20.4544C37.7585 19.2865 38.5358 18.7175 39.6121 18.8073C40.5986 18.8672 41.2862 19.5859 41.346 20.6641C41.4058 21.5625 41.346 22.4609 41.346 23.3594Z" fill="#2A3045"/>
<path d="M41.3758 34.1406C41.3758 35.0091 41.4057 35.8476 41.3758 36.7161C41.316 37.8841 40.6583 38.6028 39.6418 38.6927C38.5656 38.7526 37.7584 38.1836 37.6388 37.0455C37.4295 35.0989 37.3996 33.1523 37.6388 31.2356C37.7883 30.0976 38.5955 29.5286 39.6717 29.5885C40.6284 29.6484 41.316 30.3672 41.3758 31.4752C41.4057 32.3437 41.3459 33.2422 41.3758 34.1406Z" fill="#2A3045"/>
<path d="M33.9916 43.0651C33.9916 31.7148 33.9916 20.3346 33.9916 8.98438C33.9916 5.54036 35.9049 3.59375 39.3131 3.59375C48.6704 3.59375 58.0278 3.59375 67.3852 3.59375C70.9428 3.59375 72.5871 5.24089 72.5871 8.80469C72.5871 20.2148 72.5871 31.625 72.5871 43.0651H76.4735C76.4735 31.4453 76.4735 19.8555 76.4436 8.23568C76.4436 4.97135 74.9787 2.39583 72.0788 0.748698C71.6005 0.479167 71.0923 0.239583 70.584 0C59.1938 0 47.8035 0 36.3833 0C35.7854 0.299479 35.1277 0.509115 34.5596 0.86849C31.8989 2.51562 30.2845 4.85156 30.2845 8.02604C30.2546 19.7057 30.2546 31.3854 30.2546 43.0651H33.9916Z" fill="#2A3045"/>
<path d="M41.3758 43.065C41.3758 42.7955 41.3758 42.5559 41.3459 42.2864C41.2862 41.1484 40.5986 40.3997 39.5821 40.3398C38.5058 40.2799 37.7286 40.8788 37.609 42.0468C37.5791 42.3762 37.5492 42.7057 37.5193 43.0351H41.3758V43.065Z" fill="#2A3045"/>
</g>
<defs>
<clipPath id="clip0_15448_2371">
<rect width="109" height="115" fill="white"/>
</clipPath>
</defs>
</svg>
