<svg width="19" height="19" viewBox="0 0 19 19" fill="none" xmlns="http://www.w3.org/2000/svg">
<path d="M11.6667 1.75C14.5469 1.75 16.9167 4.11979 16.9167 7C16.9167 9.91667 14.5469 12.25 11.6667 12.25C10.974 12.25 10.2812 12.1406 9.69792 11.8854L8.16667 13.4167H7V15.1667H5.25V16.9167H1.75V13.4167L6.63542 8.53125C6.48958 8.05729 6.41667 7.54687 6.41667 7.03646C6.41667 7.03646 6.41667 7.03646 6.41667 7C6.41667 4.11979 8.75 1.75 11.6667 1.75ZM11.6667 0C7.76562 0 4.66667 3.13542 4.66667 7C4.66667 7.32812 4.66667 7.65625 4.70312 7.98437L0.255208 12.4687C0.0729167 12.6146 0 12.8333 0 13.0885V17.7917C0 18.3021 0.364583 18.6667 0.875 18.6667H6.125C6.59896 18.6667 7 18.3021 7 17.7917V16.9167H7.875C8.34896 16.9167 8.75 16.5521 8.75 16.0417V15.3125L10.2083 13.8542C10.6823 13.9635 11.1562 14 11.6667 14C15.5312 14 18.6667 10.901 18.6667 7C18.6667 3.13542 15.5312 0 11.6667 0ZM11.6667 5.25C11.6667 6.23437 12.4323 7 13.4167 7C14.3646 7 15.1667 6.23437 15.1667 5.25C15.1667 4.30208 14.3646 3.5 13.4167 3.5C12.4323 3.5 11.6667 4.30208 11.6667 5.25Z" fill="url(#paint0_linear_15643_1340)"/>
<defs>
<linearGradient id="paint0_linear_15643_1340" x1="18.6667" y1="9.33333" x2="0" y2="9.33333" gradientUnits="userSpaceOnUse">
<stop stop-color="#F29501"/>
<stop offset="1" stop-color="#FCCA01"/>
</linearGradient>
</defs>
</svg>
