<svg width="327" height="273" viewBox="0 0 327 273" fill="none" xmlns="http://www.w3.org/2000/svg">
<path opacity="0.1" d="M-257.3 0.525C-256.1 -0.175 -254 -0.175 -252.8 0.525C-251.9 1.025 -251.6 1.825 -252.1 2.525L-182.6 42.625V93.325L-165.7 103.125V158.225L-107.7 191.725L-98.7 186.525L-143.4 160.725V130.525L-143.2 130.425L-92.3 101.025V90.725L-121.1 74.125C-122.3 74.625 -124.1 74.625 -125.2 73.925C-126.4 73.225 -126.4 72.025 -125.2 71.325C-124 70.625 -121.9 70.625 -120.7 71.325C-119.6 71.925 -119.5 72.925 -120.4 73.725L-91.6 90.325V101.425L-91.8 101.525L-142.7 130.925V160.325L-108.9 179.825V167.225L-124.4 158.325C-125.6 158.825 -127.4 158.825 -128.5 158.125C-129.7 157.425 -129.7 156.225 -128.5 155.525C-127.3 154.825 -125.2 154.825 -124 155.525C-122.9 156.125 -122.8 157.125 -123.7 157.925L-108.2 166.825V180.225L-98 186.125L-85.9 179.125V157.225L-108.7 144.025V128.825L-108.5 128.725L-60.5 101.025C-61.4 100.325 -61.3 99.325 -60.2 98.625C-59 97.925 -56.9 97.925 -55.7 98.625C-54.5 99.325 -54.5 100.525 -55.7 101.225C-56.8 101.825 -58.6 101.925 -59.8 101.425L-108 129.225V143.525L-85.9 156.325V141.225L-85.7 141.125L-56.3 124.125C-57.2 123.425 -57.1 122.425 -56 121.725C-54.8 121.025 -52.7 121.025 -51.5 121.725C-50.3 122.425 -50.3 123.625 -51.5 124.325C-52.6 124.925 -54.4 125.025 -55.6 124.525L-85.1 141.625V178.625L-76.6 173.725L-62.6 181.825L-49.9 174.525V156.725L-49.7 156.625L-16.2 137.325V120.525C-16.9 120.525 -17.6 120.325 -18.1 120.025C-19.3 119.325 -19.3 118.125 -18.1 117.425C-16.9 116.725 -14.8 116.725 -13.6 117.425C-12.4 118.125 -12.4 119.325 -13.6 120.025C-14.1 120.325 -14.8 120.525 -15.5 120.525V137.725L-15.7 137.825L-49.2 157.125V174.125L5.29999 142.625V109.225L-24.3 92.125H-51.4H-51.5L-98.1 65.225C-99.3 65.725 -101.1 65.725 -102.2 65.025C-103.4 64.325 -103.4 63.125 -102.2 62.425C-101 61.725 -98.9 61.725 -97.7 62.425C-96.6 63.025 -96.5 64.125 -97.4 64.825L-51.3 91.425H-25.6L-111.1 42.025C-112.3 42.525 -114.1 42.525 -115.2 41.825C-116.4 41.125 -116.4 39.925 -115.2 39.225C-114 38.525 -111.9 38.525 -110.7 39.225C-109.6 39.825 -109.5 40.925 -110.4 41.625L6.09998 108.925V143.125L5.89996 143.225L-61.8 182.325L-48.2 190.225L67.4 123.425V83.625L67.6 83.525L106.9 60.825C106 60.125 106.1 59.125 107.2 58.425C108.4 57.725 110.5 57.725 111.7 58.425C112.9 59.125 112.9 60.325 111.7 61.025C110.6 61.625 108.8 61.725 107.6 61.225L68.1 84.025V123.825L67.9 123.925L-47.6 190.625L-34.6 198.125L79.8 132.125H148L190.6 107.525V69.725C190.2 69.625 189.7 69.525 189.4 69.325C188.2 68.625 188.2 67.425 189.4 66.725C190.6 66.025 192.7 66.025 193.9 66.725C195.1 67.425 195.1 68.625 193.9 69.325C193.2 69.725 192.3 69.925 191.4 69.825V107.925L191.2 108.025L148.2 132.825H80L-16.5 188.525H2.89996L35.8 169.525H61.2H61.3L96.5 189.825C97.7 189.325 99.5 189.325 100.6 190.025C101.8 190.725 101.8 191.925 100.6 192.625C99.4 193.325 97.3 193.325 96.1 192.625C95 192.025 94.9 190.925 95.8 190.225L61 170.125H36L3.09998 189.125H-17.7L-33.8 198.425L0.799988 218.425L10.7 212.725V197.825L35.7 183.425C34.8 182.725 34.9 181.725 36 181.025C37.2 180.325 39.3 180.325 40.5 181.025C41.7 181.725 41.7 182.925 40.5 183.625C39.4 184.225 37.6 184.325 36.4 183.825L11.4 198.225V212.325L38.1 197.025H50.7H50.8L65.9 205.725C67.1 205.225 68.9 205.225 70 205.925C71.2 206.625 71.2 207.825 70 208.525C68.8 209.225 66.7 209.225 65.5 208.525C64.4 207.925 64.3 206.825 65.2 206.125L50.6 197.725H38.3L1.59998 218.925L8.29999 222.825L-13 235.125L-3.00003 240.925H12.1L22.9 234.725C22 234.025 22.2 233.025 23.3 232.425C24.5 231.725 26.6 231.725 27.8 232.425C29 233.125 29 234.325 27.8 235.025C26.7 235.725 24.9 235.725 23.7 235.225L12.4 241.725H-1.60004L23.8 256.425L83.6 221.925H126.6H126.7L150.9 235.925C152.1 235.425 153.9 235.425 155 236.125C156.2 236.825 156.2 238.025 155 238.725C153.8 239.425 151.7 239.425 150.5 238.725C149.4 238.125 149.3 237.025 150.2 236.325L126.4 222.625H83.7L37.6 249.225H57.3L76.6 238.125C75.7 237.425 75.8 236.425 76.9 235.725C78.1 235.025 80.2 235.025 81.4 235.725C82.6 236.425 82.6 237.625 81.4 238.325C80.3 238.925 78.5 239.025 77.3 238.525L57.5 249.925H36.3L24.4 256.825L54.8 274.325H151.9L227.1 230.625C226.2 229.925 226.3 228.925 227.4 228.225C228.6 227.525 230.7 227.525 231.9 228.225C233.1 228.925 233.1 230.125 231.9 230.825C230.8 231.425 229 231.525 227.8 231.025L151.9 274.825H55.9L67.9 281.825H139.8H139.9L175.3 302.325C176.5 301.825 178.3 301.825 179.4 302.525C180.6 303.225 180.6 304.425 179.4 305.125C178.2 305.825 176.1 305.825 174.9 305.125C173.8 304.525 173.7 303.425 174.6 302.725L139.6 282.525H67.7H67.6L-13.8 235.525L-22.8 240.725L62.8 290.125H125.4H125.5L201.1 333.825H305.9L326.1 322.125V322.925L306 334.525H200.9H200.8L153.3 307.125V323.325L184.6 341.425C185.8 340.925 187.6 340.925 188.7 341.625C189.9 342.325 189.9 343.525 188.7 344.225C187.5 344.925 185.4 344.925 184.2 344.225C183.1 343.625 183 342.525 183.9 341.825L152.6 323.725V306.825H152.8L125.2 290.925H62.6H62.5L-23.5 241.225L-33.8 247.125L133.2 343.525V360.925H132.5V343.925L-34.5 247.525L-47.2 254.825L38.9 304.525V313.425L54.2 322.225V342.625L83.8 359.725C85 359.225 86.8 359.225 87.9 359.925C88.4 360.225 88.6 360.525 88.8 360.825H82.6C82.7 360.625 82.9 360.325 83.1 360.125L53.5 343.025V322.625L38.9 314.225V346.925L30.3 351.925L45.8 360.825H44.4L29.6 352.325L14.8 360.825H13.4L38.2 346.525V304.925L-47.9 255.225L-59.5 261.925L1.49997 297.025C2.69998 296.525 4.49997 296.525 5.59998 297.225C6.79999 297.925 6.79999 299.125 5.59998 299.825C4.39996 300.525 2.29999 300.525 1.09998 299.825C-3.05176e-05 299.225 -0.100006 298.225 0.799988 297.425L-60.1 262.225L-71.3 268.625L1.59998 310.725H21.4C21.5 310.425 21.8 310.025 22.3 309.825C23.5 309.125 25.6 309.125 26.8 309.825C28 310.525 28 311.725 26.8 312.425C25.6 313.125 23.5 313.125 22.3 312.425C21.8 312.125 21.5 311.825 21.4 311.525H1.39996H1.29999L-72 269.225L-76.5 271.825L-80 269.825L-97.5 279.925V293.925L-83.1 302.225H-60.5H-60.4L-35.6 316.525C-34.4 316.025 -32.6 316.025 -31.5 316.725C-30.3 317.425 -30.3 318.625 -31.5 319.325C-32.7 320.025 -34.8 320.025 -36 319.325C-37.1 318.725 -37.2 317.625 -36.3 316.925L-60.7 302.825H-81.9L-39.5 327.325C-38.3 326.725 -36.5 326.825 -35.3 327.425C-34.1 328.125 -34.1 329.325 -35.3 330.025C-36.5 330.725 -38.6 330.725 -39.8 330.025C-40.9 329.425 -41 328.425 -40.2 327.725L-93.1 297.125V303.925L-61.6 322.125V334.925L-36 349.725C-34.8 349.225 -33 349.225 -31.9 349.925C-30.7 350.625 -30.7 351.825 -31.9 352.525C-33.1 353.225 -35.2 353.225 -36.4 352.525C-37.5 351.925 -37.6 350.825 -36.7 350.125L-62.3 335.325V322.525L-93.8 304.325V296.725L-98.2 294.225V279.325L-80.7 269.225L-92.2 262.625L-128.1 283.425V307.025L-103.7 321.125C-102.5 320.525 -100.7 320.625 -99.5 321.225C-98.3 321.925 -98.3 323.125 -99.5 323.825C-100.7 324.525 -102.8 324.525 -104 323.825C-105.1 323.225 -105.2 322.225 -104.4 321.525L-128.1 307.825V326.925L-109.4 337.725V360.825H-110.1V338.125L-128.1 327.725V360.825H-128.8V283.025L-92.9 262.225L-105.8 254.825L-152.8 281.925V346.525L-175.4 359.525V360.825H-176.1V359.125L-153.5 346.125V281.525L-106.5 254.425L-116.1 248.925L-179.5 285.525V340.625L-214.6 360.825H-216L-180.2 340.225V285.125L-116.8 248.525L-132.3 239.625L-237.8 300.525V327.925L-274 348.825V348.025L-238.6 327.525V300.125L-179.3 265.825H-226.2L-274 293.425V292.625L-226.2 265.025H-177.9L-133 239.125L-151 228.725L-189.6 251.025H-251.6L-273.9 263.925V263.125L-269 260.325H-273.9V259.625H-267.8L-251.8 250.425H-189.8L-179 244.225H-205.4H-205.5L-218.7 236.625H-273.8L-274 236.725V235.925H-220L-234.9 227.325C-236.1 227.825 -237.9 227.825 -239 227.125C-240.2 226.425 -240.2 225.225 -239 224.525C-237.8 223.825 -235.7 223.825 -234.5 224.525C-233.4 225.125 -233.3 226.225 -234.2 226.925L-205.3 243.625H-177.9L-151.8 228.625L-161.4 223.025L-155.2 219.425H-173.2L-196.7 233.025C-195.8 233.725 -195.9 234.725 -197 235.425C-198.2 236.125 -200.3 236.125 -201.5 235.425C-202.7 234.725 -202.7 233.525 -201.5 232.825C-200.4 232.225 -198.6 232.125 -197.4 232.625L-173.3 218.725H-153.9L-140.7 211.125L-148.8 206.425H-163.2L-175.8 199.125H-185.2L-206.5 211.425C-205.5 212.125 -205.6 213.125 -206.8 213.825C-208 214.525 -210.1 214.525 -211.3 213.825C-212.5 213.125 -212.5 211.925 -211.3 211.225C-210.2 210.625 -208.5 210.525 -207.3 211.025L-185.5 198.425H-175.7L-163.1 205.725H-150.1L-176 190.725H-190L-219.2 207.525H-274V206.825H-219.4L-190.2 190.025H-175.8H-175.7L-140 210.625L-130.6 205.225L-170.9 181.925H-199.3L-222.8 195.425H-273.9V194.725H-223L-200.8 181.925H-273.9V181.025H-170.8H-170.7L-129.9 204.625L-119.3 198.525L-175.5 166.025H-273.9V165.325H-202.2L-273.9 123.925V123.125L-200.8 165.325H-176L-229.3 134.525V127.725L-254.8 113.025C-256 113.525 -257.8 113.525 -258.9 112.825C-260.1 112.125 -260.1 110.925 -258.9 110.225C-257.7 109.525 -255.6 109.525 -254.4 110.225C-253.3 110.825 -253.2 111.825 -254.1 112.625L-240.2 120.625V102.025L-273.9 82.625V81.825L-239.5 101.625V121.025L-228.6 127.325V134.125L-174.9 165.125L-175.1 165.425L-118.6 198.025L-108.3 192.125L-166.3 158.625V103.525L-273.9 41.425V40.625L-183.3 92.925V43.125L-252.7 3.125L-252.8 3.225C-254 3.925 -256.1 3.925 -257.3 3.225C-258.5 2.425 -258.5 1.325 -257.3 0.525ZM-159.9 222.725L-76.6 270.825L6.69998 222.725L-76.6 174.625L-159.9 222.725Z" fill="white"/>
</svg>
