<svg width="30" height="30" viewBox="0 0 30 30" fill="none" xmlns="http://www.w3.org/2000/svg">
<path d="M18.0039 11.3008C17.3737 10.6706 16.6862 10.2122 15.9414 9.8112C15.6549 9.69661 15.3685 9.75391 15.1393 9.98307L14.9102 10.2122C14.3945 10.6706 14.1081 11.3008 14.0508 11.931C13.9935 12.2174 14.1654 12.5039 14.3945 12.6758C14.9102 12.9049 15.3685 13.1914 15.7122 13.5924C17.6029 15.4831 17.6029 18.5195 15.7122 20.4102L11.4154 24.707C9.52474 26.5977 6.48828 26.5977 4.59766 24.707C2.70703 22.8164 2.70703 19.7799 4.59766 17.8893L7.23307 15.2539C7.40495 15.082 7.46224 14.8529 7.40495 14.6237C7.23307 13.9362 7.17578 13.1914 7.11849 12.4466C7.11849 11.8737 6.3737 11.5872 5.97266 11.9883C5.28516 12.6758 4.19661 13.7643 2.36328 15.5977C-0.78776 18.7487 -0.78776 23.8477 2.36328 26.9414C5.45703 30.0924 10.556 30.0924 13.707 26.9414C18.4049 22.2435 18.1758 22.4727 18.5195 22.0143C21.0977 18.9206 20.9258 14.2227 18.0039 11.3008ZM26.9414 2.36328C23.8477 -0.78776 18.7487 -0.78776 15.5977 2.36328C10.8997 7.0612 11.1289 6.83203 10.7852 7.29036C8.20703 10.3841 8.37891 15.082 11.3008 18.0039C11.931 18.6341 12.6185 19.0924 13.3633 19.4935C13.6497 19.6081 13.9362 19.5508 14.1654 19.3216L14.3945 19.0924C14.9102 18.6341 15.1966 18.0039 15.2539 17.3737C15.3112 17.0872 15.1393 16.8008 14.9102 16.6289C14.3945 16.3997 13.9362 16.1133 13.5924 15.7122C11.7018 13.8216 11.7018 10.7852 13.5924 8.89453L17.8893 4.59766C19.7799 2.70703 22.8164 2.70703 24.707 4.59766C26.5977 6.48828 26.5977 9.52474 24.707 11.4154L22.0716 14.0508C21.8997 14.2227 21.8424 14.4518 21.8997 14.681C22.0716 15.3685 22.1289 16.1133 22.1862 16.8581C22.1862 17.431 22.931 17.7174 23.332 17.3164C24.0195 16.6289 25.1081 15.5404 26.9414 13.707C30.0924 10.556 30.0924 5.45703 26.9414 2.36328Z" fill="url(#paint0_linear_15643_694)"/>
<defs>
<linearGradient id="paint0_linear_15643_694" x1="29.3047" y1="14.6523" x2="0" y2="14.6523" gradientUnits="userSpaceOnUse">
<stop stop-color="#F29501"/>
<stop offset="1" stop-color="#FCCA01"/>
</linearGradient>
</defs>
</svg>
