<svg width="14" height="19" viewBox="0 0 14 19" fill="none" xmlns="http://www.w3.org/2000/svg">
<path d="M7 0C3.09896 0 0 3.17188 0 7C0 9.625 0.838542 10.4271 5.50521 17.8646C6.19792 18.9583 7.76562 18.9583 8.45833 17.8646C13.125 10.4271 14 9.625 14 7C14 3.13542 10.8281 0 7 0ZM7 16.9167C2.33333 9.47917 1.75 9.00521 1.75 7C1.75 4.11979 4.08333 1.75 7 1.75C9.88021 1.75 12.25 4.11979 12.25 7C12.25 9.00521 11.6667 9.40625 7 16.9167ZM4.08333 7C4.08333 8.64063 5.35937 9.91667 7 9.91667C8.60417 9.91667 9.91667 8.64063 9.91667 7C9.91667 5.39583 8.60417 4.08333 7 4.08333C5.35937 4.08333 4.08333 5.39583 4.08333 7Z" fill="url(#paint0_linear_15643_89)"/>
<defs>
<linearGradient id="paint0_linear_15643_89" x1="14" y1="9.34245" x2="0" y2="9.34245" gradientUnits="userSpaceOnUse">
<stop stop-color="#F29501"/>
<stop offset="1" stop-color="#FCCA01"/>
</linearGradient>
</defs>
</svg>
