<svg width="23" height="36" viewBox="0 0 23 36" fill="none" xmlns="http://www.w3.org/2000/svg">
<path d="M13.5 29.25C13.5 28.0547 12.4453 27 11.25 27C9.98438 27 9 28.0547 9 29.25C9 30.5156 9.98438 31.5 11.25 31.5C12.4453 31.5 13.5 30.5156 13.5 29.25ZM22.5 3.375C22.5 1.54688 20.9531 0 19.125 0H3.375C1.47656 0 0 1.54688 0 3.375V32.625C0 34.5234 1.47656 36 3.375 36H19.125C20.9531 36 22.5 34.5234 22.5 32.625V3.375ZM19.125 32.2031C19.125 32.4844 18.9141 32.625 18.7031 32.625H3.79688C3.51562 32.625 3.375 32.4844 3.375 32.2031V3.79688C3.375 3.58594 3.51562 3.375 3.79688 3.375H18.7031C18.9141 3.375 19.125 3.58594 19.125 3.79688V32.2031Z" fill="url(#paint0_linear_15643_1266)"/>
<defs>
<linearGradient id="paint0_linear_15643_1266" x1="22.5" y1="18" x2="0" y2="18" gradientUnits="userSpaceOnUse">
<stop stop-color="#F29501"/>
<stop offset="1" stop-color="#FCCA01"/>
</linearGradient>
</defs>
</svg>
