<svg width="37" height="36" viewBox="0 0 37 36" fill="none" xmlns="http://www.w3.org/2000/svg">
<path d="M30.9785 0.456417L1.72851 17.3314C-0.732428 18.7377 -0.52149 22.3236 2.08007 23.3783L10.166 26.683V32.5892C10.166 35.8939 14.3144 37.2299 16.2129 34.6283L19.3066 30.4799L27.1816 33.7142C27.6035 33.9252 28.0254 33.9955 28.4473 33.9955C29.0098 33.9955 29.5723 33.8549 30.1348 33.5736C31.0488 33.0111 31.6113 32.1674 31.8223 31.1127L35.9707 3.90173C36.3926 1.08923 33.3691 -0.949833 30.9785 0.456417ZM13.541 32.5892V28.0892L16.0723 29.1439L13.541 32.5892ZM28.4473 30.6205L17.6191 26.1205L27.5332 11.9174C28.2363 10.7924 26.8301 9.52673 25.8457 10.4408L10.9394 23.3783L3.41601 20.2142L32.666 3.33923L28.4473 30.6205Z" fill="url(#paint0_linear_15643_400)"/>
<defs>
<linearGradient id="paint0_linear_15643_400" x1="36.0104" y1="17.9995" x2="0" y2="17.9995" gradientUnits="userSpaceOnUse">
<stop stop-color="#F29501"/>
<stop offset="1" stop-color="#FCCA01"/>
</linearGradient>
</defs>
</svg>
