<svg width="38" height="30" viewBox="0 0 38 30" fill="none" xmlns="http://www.w3.org/2000/svg">
<path d="M32.8125 12.5H29.1667V11.9792C29.1667 10.5469 30.2734 9.375 31.7708 9.375H32.2917C33.9844 9.375 35.4167 8.00781 35.4167 6.25V3.125C35.4167 1.43229 33.9844 0 32.2917 0H31.7708C25.1302 0 19.7917 5.40365 19.7917 11.9792V24.4792C19.7917 27.0833 21.875 29.1667 24.4792 29.1667H32.8125C35.3516 29.1667 37.5 27.0833 37.5 24.4792V17.1875C37.5 14.6484 35.3516 12.5 32.8125 12.5ZM34.375 24.4792C34.375 25.3906 33.6589 26.0417 32.8125 26.0417H24.4792C23.5677 26.0417 22.9167 25.3906 22.9167 24.4792V11.9792C22.9167 7.09635 26.888 3.125 31.7708 3.125H32.2917V6.25H31.7708C28.5807 6.25 26.0417 8.85417 26.0417 11.9792V15.625H32.8125C33.6589 15.625 34.375 16.3411 34.375 17.1875V24.4792ZM13.0208 12.5H9.375V11.9792C9.375 10.5469 10.4818 9.375 11.9792 9.375H12.5C14.1927 9.375 15.625 8.00781 15.625 6.25V3.125C15.625 1.43229 14.1927 0 12.5 0H11.9792C5.33854 0 0 5.40365 0 11.9792V24.4792C0 27.0833 2.08333 29.1667 4.6875 29.1667H13.0208C15.5599 29.1667 17.7083 27.0833 17.7083 24.4792V17.1875C17.7083 14.6484 15.5599 12.5 13.0208 12.5ZM14.5833 24.4792C14.5833 25.3906 13.8672 26.0417 13.0208 26.0417H4.6875C3.77604 26.0417 3.125 25.3906 3.125 24.4792V11.9792C3.125 7.09635 7.09635 3.125 11.9792 3.125H12.5V6.25H11.9792C8.78906 6.25 6.25 8.85417 6.25 11.9792V15.625H13.0208C13.8672 15.625 14.5833 16.3411 14.5833 17.1875V24.4792Z" fill="#2A3045"/>
</svg>
