<svg width="30" height="30" viewBox="0 0 30 30" fill="none" xmlns="http://www.w3.org/2000/svg">
<path d="M18.682 6.64583L21.833 2.00521C21.9476 1.83333 21.9476 1.60417 21.9476 1.43229C21.9476 0.630208 21.3747 0.0572917 20.6299 0H8.71325C7.91116 0 7.33825 0.630208 7.33825 1.375C7.33825 1.60417 7.33825 1.83333 7.45283 2.00521L10.6612 6.64583C-0.568005 13.5208 0.00491184 22.5156 0.00491184 23.6042C0.00491184 26.8125 2.8122 29.3333 6.2497 29.3333H23.0362C26.4737 29.3333 29.281 26.8125 29.281 23.6042C29.281 22.5156 29.7966 13.4635 18.682 6.64583ZM17.9945 2.75L15.8174 5.95833H13.4685L11.2914 2.75H17.9945ZM26.531 23.6042C26.531 25.2656 24.9841 26.5833 23.0362 26.5833H6.2497C4.30179 26.5833 2.75491 25.2656 2.75491 23.6042C2.69762 18.9635 4.58825 13.5781 12.5518 8.70833H16.7914C24.6403 13.5781 26.5882 18.9635 26.531 23.6042ZM16.333 17.8177L13.5257 17.0156C13.182 16.901 13.0101 16.5573 13.0101 16.2135C13.0101 15.7552 13.2966 15.4115 13.6976 15.4115H15.4737C15.7601 15.4115 16.0466 15.4688 16.2757 15.6406C16.333 15.6979 16.4476 15.6979 16.5622 15.6979C16.6768 15.6979 16.7914 15.6406 16.906 15.5833L17.6507 14.8958C17.708 14.7813 17.7653 14.6667 17.7653 14.5521C17.7653 14.3802 17.708 14.2083 17.5935 14.151C17.0205 13.75 16.3903 13.4635 15.6455 13.4635V12.4323C15.6455 12.1458 15.4164 11.974 15.1299 11.974V11.9167H14.156C13.8695 11.9167 13.6403 12.1458 13.6403 12.4323V13.4635C12.1507 13.4635 11.0049 14.724 11.0049 16.2135C11.0049 17.474 11.807 18.5625 12.9528 18.9063L15.7601 19.7083C16.1039 19.8229 16.2757 20.1667 16.2757 20.5104C16.2757 20.9688 15.9893 21.3125 15.5882 21.3125H13.8122C13.5257 21.3125 13.2393 21.2552 13.0101 21.0833C12.9528 21.026 12.8382 21.026 12.7237 21.026C12.6091 21.026 12.4945 21.0833 12.3799 21.1406L11.6351 21.8281C11.5778 21.9427 11.5205 22.0573 11.5205 22.1719C11.5205 22.3438 11.5778 22.5156 11.6924 22.5729C12.2653 22.974 12.8955 23.2604 13.6403 23.2604V24.2917C13.6403 24.5781 13.8695 24.75 14.156 24.75H15.1299C15.4164 24.75 15.6455 24.5781 15.6455 24.2917V23.2604C17.1351 23.2604 18.281 22 18.281 20.5104C18.3382 19.25 17.4789 18.1615 16.333 17.8177Z" fill="url(#paint0_linear_15643_1300)"/>
<defs>
<linearGradient id="paint0_linear_15643_1300" x1="29.2847" y1="14.6667" x2="0" y2="14.6667" gradientUnits="userSpaceOnUse">
<stop stop-color="#F29501"/>
<stop offset="1" stop-color="#FCCA01"/>
</linearGradient>
</defs>
</svg>
