<svg width="34" height="36" viewBox="0 0 34 36" fill="none" xmlns="http://www.w3.org/2000/svg">
<path d="M16.875 28.7578V6.96094L6.82031 11.1797C7.38281 19.3359 11.3906 25.4531 16.875 28.7578ZM31.6406 5.83594L18.1406 0.210938C17.7188 0.0703125 17.2969 0 16.875 0C16.3828 0 15.9609 0.0703125 15.5391 0.210938L2.03906 5.83594C0.773438 6.39844 0 7.59375 0 8.92969C0 22.9219 8.01562 32.5547 15.5391 35.7188C16.3828 36.0703 17.2969 36.0703 18.1406 35.7188C24.1875 33.1875 33.75 24.5391 33.75 8.92969C33.75 7.59375 32.9062 6.39844 31.6406 5.83594ZM16.875 32.5547C9.98438 29.7422 3.375 20.8828 3.375 8.92969L16.875 3.30469L30.375 8.92969C30.375 21.1641 23.4141 29.8125 16.875 32.5547Z" fill="url(#paint0_linear_15643_515)"/>
<defs>
<linearGradient id="paint0_linear_15643_515" x1="33.75" y1="17.9912" x2="0" y2="17.9912" gradientUnits="userSpaceOnUse">
<stop stop-color="#F29501"/>
<stop offset="1" stop-color="#FCCA01"/>
</linearGradient>
</defs>
</svg>
