<svg width="45" height="36" viewBox="0 0 45 36" fill="none" xmlns="http://www.w3.org/2000/svg">
<path d="M41.625 0H3.375C1.47656 0 0 1.54688 0 3.375V25.875C0 27.7734 1.47656 29.25 3.375 29.25H20.8125V32.625H7.875C7.24219 32.625 6.75 33.1875 6.75 33.75V34.875C6.75 35.5078 7.24219 36 7.875 36H37.125C37.6875 36 38.25 35.5078 38.25 34.875V33.75C38.25 33.1875 37.6875 32.625 37.125 32.625H24.1875V29.25H41.625C43.4531 29.25 45 27.7734 45 25.875V3.375C45 1.54688 43.4531 0 41.625 0ZM41.625 25.875H3.375V3.375H41.625V25.875Z" fill="url(#paint0_linear_15643_700)"/>
<defs>
<linearGradient id="paint0_linear_15643_700" x1="45" y1="18" x2="0" y2="18" gradientUnits="userSpaceOnUse">
<stop stop-color="#F29501"/>
<stop offset="1" stop-color="#FCCA01"/>
</linearGradient>
</defs>
</svg>
