<svg width="15" height="15" viewBox="0 0 15 15" fill="none" xmlns="http://www.w3.org/2000/svg">
<path d="M14.25 12.9688H14V11.2188C14 10.8125 13.6562 10.4688 13.25 10.4688H12.75V5.71875H11.25V10.4688H9.75V5.71875H8.25V10.4688H6.75V5.71875H5.25V10.4688H3.75V5.71875H2.25V10.4688H1.75C1.3125 10.4688 1 10.8125 1 11.2188V12.9688H0.75C0.3125 12.9688 0 13.3125 0 13.7188V14.2188C0 14.375 0.09375 14.4688 0.25 14.4688H14.75C14.875 14.4688 15 14.375 15 14.2188V13.7188C15 13.3125 14.6562 12.9688 14.25 12.9688ZM12.5 12.9688H2.5V11.9688H12.5V12.9688ZM14.75 2.90625L7.96875 0.0625C7.8125 0 7.65625 0 7.5 0C7.3125 0 7.15625 0 7 0.0625L0.21875 2.90625C0.09375 2.9375 0 3.09375 0 3.25V4.09375C0 4.3125 0.15625 4.46875 0.375 4.46875H1V4.84375C1 5.0625 1.15625 5.21875 1.375 5.21875H13.625C13.8125 5.21875 14 5.0625 14 4.84375V4.46875H14.625C14.8125 4.46875 15 4.3125 15 4.09375V3.25C15 3.09375 14.875 2.9375 14.75 2.90625ZM1.5 3.71875L7.5 1.46875L13.5 3.71875H1.5Z" fill="#2A3045"/>
</svg>
