<svg width="18" height="17" viewBox="0 0 18 17" fill="none" xmlns="http://www.w3.org/2000/svg">
<path d="M16.625 15.1302H16.3333V13.0885C16.3333 12.6146 15.9323 12.2135 15.4583 12.2135H14.875V6.67188H13.125V12.2135H11.375V6.67188H9.625V12.2135H7.875V6.67188H6.125V12.2135H4.375V6.67188H2.625V12.2135H2.04167C1.53125 12.2135 1.16667 12.6146 1.16667 13.0885V15.1302H0.875C0.364583 15.1302 0 15.5313 0 16.0052V16.5885C0 16.7708 0.109375 16.8802 0.291667 16.8802H17.2083C17.3542 16.8802 17.5 16.7708 17.5 16.5885V16.0052C17.5 15.5313 17.099 15.1302 16.625 15.1302ZM14.5833 15.1302H2.91667V13.9635H14.5833V15.1302ZM17.2083 3.39063L9.29687 0.0729167C9.11458 0 8.93229 0 8.75 0C8.53125 0 8.34896 0 8.16667 0.0729167L0.255208 3.39063C0.109375 3.42708 0 3.60938 0 3.79167V4.77604C0 5.03125 0.182292 5.21354 0.4375 5.21354H1.16667V5.65104C1.16667 5.90625 1.34896 6.08854 1.60417 6.08854H15.8958C16.1146 6.08854 16.3333 5.90625 16.3333 5.65104V5.21354H17.0625C17.2812 5.21354 17.5 5.03125 17.5 4.77604V3.79167C17.5 3.60938 17.3542 3.42708 17.2083 3.39063ZM1.75 4.33854L8.75 1.71354L15.75 4.33854H1.75Z" fill="url(#paint0_linear_15643_76)"/>
<defs>
<linearGradient id="paint0_linear_15643_76" x1="17.5" y1="8.4401" x2="0" y2="8.4401" gradientUnits="userSpaceOnUse">
<stop stop-color="#F29501"/>
<stop offset="1" stop-color="#FCCA01"/>
</linearGradient>
</defs>
</svg>
