<svg width="47" height="33" viewBox="0 0 47 33" fill="none" xmlns="http://www.w3.org/2000/svg">
<path d="M39.6667 14C42.875 14 45.5 11.4479 45.5 8.16667C45.5 4.95833 42.875 2.33333 39.6667 2.33333C36.3854 2.33333 33.8333 4.95833 33.8333 8.16667C33.8333 11.4479 36.3854 14 39.6667 14ZM39.6667 5.83333C40.9063 5.83333 42 6.92708 42 8.16667C42 9.47917 40.9063 10.5 39.6667 10.5C38.3542 10.5 37.3333 9.47917 37.3333 8.16667C37.3333 6.92708 38.3542 5.83333 39.6667 5.83333ZM7 14C10.2083 14 12.8333 11.4479 12.8333 8.16667C12.8333 4.95833 10.2083 2.33333 7 2.33333C3.71875 2.33333 1.16667 4.95833 1.16667 8.16667C1.16667 11.4479 3.71875 14 7 14ZM7 5.83333C8.23958 5.83333 9.33333 6.92708 9.33333 8.16667C9.33333 9.47917 8.23958 10.5 7 10.5C5.6875 10.5 4.66667 9.47917 4.66667 8.16667C4.66667 6.92708 5.6875 5.83333 7 5.83333ZM35.875 21.2188C33.8333 18.3021 29.9688 17.1354 26.5417 18.2292C25.5208 18.5208 24.4271 18.6667 23.2604 18.6667C22.1667 18.6667 21.0729 18.5208 20.0521 18.2292C16.625 17.1354 12.6875 18.2292 10.7188 21.2188C9.84375 22.6042 9.26042 24.2083 9.26042 25.9583V29.1667C9.26042 31.1354 10.8646 32.6667 12.7604 32.6667H33.7604C35.7292 32.6667 37.2604 31.1354 37.2604 29.1667V25.9583C37.3333 24.2083 36.75 22.6042 35.875 21.2188ZM33.8333 29.1667H12.8333V25.9583C12.8333 23.2604 14.9479 21.0729 17.5729 21C19.3958 21.8021 21.3646 22.1667 23.3333 22.1667C25.2292 22.1667 27.1979 21.8021 29.0208 21C31.6458 21.0729 33.8333 23.2604 33.8333 25.9583V29.1667ZM40.5417 16.3333H38.7917C37.4792 16.3333 36.3125 16.7708 35.3646 17.4271C36.3125 18.1563 37.1875 19.0313 37.8438 20.0521C38.1354 19.9792 38.4271 19.8333 38.7188 19.8333H40.4688C41.9271 19.8333 43.0938 21.0729 43.0938 22.4583C43.0938 23.4792 43.8958 24.2083 44.8438 24.2083C45.8646 24.2083 46.5938 23.4792 46.5938 22.4583C46.6667 19.1042 43.8958 16.3333 40.5417 16.3333ZM23.3333 16.3333C27.7813 16.3333 31.5 12.6875 31.5 8.16667C31.5 3.71875 27.7813 0 23.3333 0C18.8125 0 15.1667 3.71875 15.1667 8.16667C15.1667 12.6875 18.8125 16.3333 23.3333 16.3333ZM23.3333 3.5C25.8854 3.5 28 5.61458 28 8.16667C28 10.7917 25.8854 12.8333 23.3333 12.8333C20.7083 12.8333 18.6667 10.7917 18.6667 8.16667C18.6667 5.61458 20.7083 3.5 23.3333 3.5ZM11.2292 17.4271C10.2813 16.7708 9.11458 16.3333 7.875 16.3333H6.125C2.69792 16.3333 0 19.1042 0 22.4583C0 23.4792 0.729167 24.2083 1.75 24.2083C2.69792 24.2083 3.5 23.4792 3.5 22.4583C3.5 21.0729 4.66667 19.8333 6.125 19.8333H7.875C8.16667 19.8333 8.45833 19.9792 8.75 20.0521C9.40625 19.0313 10.2813 18.1563 11.2292 17.4271Z" fill="url(#paint0_linear_15643_412)"/>
<defs>
<linearGradient id="paint0_linear_15643_412" x1="46.5952" y1="16.3333" x2="0" y2="16.3333" gradientUnits="userSpaceOnUse">
<stop stop-color="#F29501"/>
<stop offset="1" stop-color="#FCCA01"/>
</linearGradient>
</defs>
</svg>
