<svg width="47" height="38" viewBox="0 0 47 38" fill="none" xmlns="http://www.w3.org/2000/svg">
<path d="M5.83333 3.5H40.8333V13.2708C42.0729 13.4896 43.3125 13.9271 44.3333 14.6562V3.64583C44.3333 1.67708 42.7292 0 40.8333 0H5.83333C3.86458 0 2.33333 1.67708 2.33333 3.64583V14.6562C3.28125 13.9271 4.52083 13.4896 5.83333 13.2708V3.5ZM7.875 29.4583H6.125C2.69792 29.4583 0 32.2292 0 35.5833C0 36.6042 0.729167 37.3333 1.75 37.3333C2.69792 37.3333 3.5 36.6042 3.5 35.5833C3.5 34.1979 4.66667 32.9583 6.125 32.9583H7.875C9.26042 32.9583 10.5 34.1979 10.5 35.5833C10.5 36.6042 11.2292 37.3333 12.25 37.3333C13.1979 37.3333 14 36.6042 14 35.5833C14 32.2292 11.2292 29.4583 7.875 29.4583ZM39.6667 15.4583C36.3854 15.4583 33.8333 18.0833 33.8333 21.2917C33.8333 24.5729 36.3854 27.125 39.6667 27.125C42.875 27.125 45.5 24.5729 45.5 21.2917C45.5 18.0833 42.875 15.4583 39.6667 15.4583ZM39.6667 23.625C38.3542 23.625 37.3333 22.6042 37.3333 21.2917C37.3333 20.0521 38.3542 18.9583 39.6667 18.9583C40.9063 18.9583 42 20.0521 42 21.2917C42 22.6042 40.9063 23.625 39.6667 23.625ZM40.5417 29.4583H38.7917C35.3646 29.4583 32.6667 32.2292 32.6667 35.5833C32.6667 36.6042 33.3958 37.3333 34.4167 37.3333C35.3646 37.3333 36.1667 36.6042 36.1667 35.5833C36.1667 34.1979 37.3333 32.9583 38.7917 32.9583H40.5417C41.9271 32.9583 43.1667 34.1979 43.1667 35.5833C43.1667 36.6042 43.8958 37.3333 44.9167 37.3333C45.8646 37.3333 46.6667 36.6042 46.6667 35.5833C46.6667 32.2292 43.8958 29.4583 40.5417 29.4583ZM7 27.125C10.2083 27.125 12.8333 24.5729 12.8333 21.2917C12.8333 18.0833 10.2083 15.4583 7 15.4583C3.71875 15.4583 1.16667 18.0833 1.16667 21.2917C1.16667 24.5729 3.71875 27.125 7 27.125ZM7 18.9583C8.23958 18.9583 9.33333 20.0521 9.33333 21.2917C9.33333 22.6042 8.23958 23.625 7 23.625C5.6875 23.625 4.66667 22.6042 4.66667 21.2917C4.66667 20.0521 5.6875 18.9583 7 18.9583ZM17.5 21.2917C17.5 24.5729 20.0521 27.125 23.3333 27.125C26.5417 27.125 29.1667 24.5729 29.1667 21.2917C29.1667 18.0833 26.5417 15.4583 23.3333 15.4583C20.0521 15.4583 17.5 18.0833 17.5 21.2917ZM25.6667 21.2917C25.6667 22.6042 24.5729 23.625 23.3333 23.625C22.0208 23.625 21 22.6042 21 21.2917C21 20.0521 22.0208 18.9583 23.3333 18.9583C24.5729 18.9583 25.6667 20.0521 25.6667 21.2917ZM24.2083 29.4583H22.4583C19.0313 29.4583 16.3333 32.2292 16.3333 35.5833C16.3333 36.6042 17.0625 37.3333 18.0833 37.3333C19.0313 37.3333 19.8333 36.6042 19.8333 35.5833C19.8333 34.1979 21 32.9583 22.4583 32.9583H24.2083C25.5938 32.9583 26.8333 34.1979 26.8333 35.5833C26.8333 36.6042 27.5625 37.3333 28.5833 37.3333C29.5313 37.3333 30.3333 36.6042 30.3333 35.5833C30.3333 32.2292 27.5625 29.4583 24.2083 29.4583Z" fill="url(#paint0_linear_15643_817)"/>
<defs>
<linearGradient id="paint0_linear_15643_817" x1="46.6667" y1="18.6667" x2="0" y2="18.6667" gradientUnits="userSpaceOnUse">
<stop stop-color="#F29501"/>
<stop offset="1" stop-color="#FCCA01"/>
</linearGradient>
</defs>
</svg>
