<svg width="47" height="38" viewBox="0 0 47 38" fill="none" xmlns="http://www.w3.org/2000/svg">
<path d="M11.6667 23.3333C15.5313 23.3333 18.6667 20.1979 18.6667 16.3333C18.6667 12.4687 15.5313 9.33333 11.6667 9.33333C7.80208 9.33333 4.66667 12.4687 4.66667 16.3333C4.66667 20.1979 7.80208 23.3333 11.6667 23.3333ZM11.6667 12.8333C13.5625 12.8333 15.1667 14.4375 15.1667 16.3333C15.1667 18.3021 13.5625 19.8333 11.6667 19.8333C9.69792 19.8333 8.16667 18.3021 8.16667 16.3333C8.16667 14.4375 9.69792 12.8333 11.6667 12.8333ZM30.4063 18.7396L35.6563 13.4896L37.4063 15.3125C38.2083 16.1146 39.6667 15.5312 39.6667 14.3646V7.875C39.6667 7.4375 39.2292 7 38.7917 7H32.3021C31.1354 7 30.5521 8.45833 31.3542 9.26042L33.1771 11.0104L29.1667 15.0208L25.1563 11.0104C24.4271 10.3542 23.3333 10.3542 22.6771 11.0104L20.4167 13.2708C20.7813 14.2187 21 15.3125 21 16.3333C21 16.8437 20.9271 17.3542 20.8542 17.7917L23.9167 14.7292L27.9271 18.7396C28.5833 19.4687 29.6771 19.4687 30.4063 18.7396ZM43.1667 0H15.1667C13.1979 0 11.6667 1.67708 11.6667 3.64583V7C12.1042 7 12.4688 7.07292 12.7604 7.14583C13.1979 7.21875 13.5625 7.29167 13.9271 7.36458C14.2188 7.4375 14.5104 7.51042 14.8021 7.65625C14.9479 7.65625 15.0208 7.65625 15.1667 7.72917V3.5H43.1667V26.8333H25.6667V30.3333H43.1667C45.0625 30.3333 46.6667 28.7292 46.6667 26.7604V3.64583C46.6667 1.67708 45.0625 0 43.1667 0ZM16.4792 24.9375C15.75 24.9375 15.0208 25.0833 14.3646 25.3021C13.4896 25.5208 12.6146 25.6667 11.6667 25.6667C10.7188 25.6667 9.77083 25.5208 8.89583 25.3021C8.23958 25.0833 7.51042 24.9375 6.78125 24.9375C4.59375 24.9375 2.40625 25.9583 1.16667 27.8542C0.4375 28.9479 0 30.2604 0 31.7187V34.4167C0 36.0937 1.23958 37.3333 2.91667 37.3333H20.4167C22.0208 37.3333 23.3333 36.0937 23.3333 34.4167V31.7187C23.3333 30.2604 22.8958 28.9479 22.0938 27.8542C20.8542 25.9583 18.7396 24.9375 16.4792 24.9375ZM19.8333 33.8333H3.5V31.7187C3.5 31.0625 3.64583 30.3333 4.08333 29.75C4.59375 28.9479 5.61458 28.5104 6.78125 28.5104C7.14583 28.5104 7.51042 28.5104 7.875 28.6562C9.11458 29.0208 10.3542 29.2396 11.6667 29.2396C12.9063 29.2396 14.1458 29.0208 15.3854 28.6562C15.75 28.5104 16.1146 28.5104 16.4792 28.5104C17.6458 28.5104 18.6667 28.9479 19.1771 29.75C19.6146 30.3333 19.8333 31.0625 19.8333 31.7187V33.8333Z" fill="#2A3045"/>
</svg>
