<svg width="17" height="14" viewBox="0 0 17 14" fill="none" xmlns="http://www.w3.org/2000/svg">
<path d="M5.83333 7.5C7.89062 7.5 9.58333 5.83333 9.58333 3.75C9.58333 1.69271 7.89062 0 5.83333 0C3.75 0 2.08333 1.69271 2.08333 3.75C2.08333 5.83333 3.75 7.5 5.83333 7.5ZM5.83333 1.25C7.1875 1.25 8.33333 2.39583 8.33333 3.75C8.33333 5.13021 7.1875 6.25 5.83333 6.25C4.45312 6.25 3.33333 5.13021 3.33333 3.75C3.33333 2.39583 4.45312 1.25 5.83333 1.25ZM8.15104 7.91667C7.39583 7.91667 7.05729 8.33333 5.83333 8.33333C4.58333 8.33333 4.24479 7.91667 3.48958 7.91667C1.5625 7.91667 0 9.50521 0 11.4323V12.0833C0 12.7865 0.546875 13.3333 1.25 13.3333H10.4167C11.0937 13.3333 11.6667 12.7865 11.6667 12.0833V11.4323C11.6667 9.50521 10.0781 7.91667 8.15104 7.91667ZM10.4167 12.0833H1.25V11.4323C1.25 10.1823 2.23958 9.16667 3.48958 9.16667C3.88021 9.16667 4.47917 9.58333 5.83333 9.58333C7.16146 9.58333 7.76042 9.16667 8.15104 9.16667C9.40104 9.16667 10.4167 10.1823 10.4167 11.4323V12.0833ZM16.25 5.625H14.375V3.75C14.375 3.54167 14.1667 3.33333 13.9583 3.33333H13.5417C13.3073 3.33333 13.125 3.54167 13.125 3.75V5.625H11.25C11.0156 5.625 10.8333 5.83333 10.8333 6.04167V6.45833C10.8333 6.69271 11.0156 6.875 11.25 6.875H13.125V8.75C13.125 8.98437 13.3073 9.16667 13.5417 9.16667H13.9583C14.1667 9.16667 14.375 8.98437 14.375 8.75V6.875H16.25C16.4583 6.875 16.6667 6.69271 16.6667 6.45833V6.04167C16.6667 5.83333 16.4583 5.625 16.25 5.625Z" fill="#2A3045"/>
</svg>
