<svg width="36" height="32" viewBox="0 0 36 32" fill="none" xmlns="http://www.w3.org/2000/svg">
<path d="M31.5 5.625V4.5C31.5 2.03906 29.4609 0 27 0H6.75C2.95312 0 0 3.02344 0 6.75V24.75C0 28.5469 2.95312 31.5 6.75 31.5H31.5C33.9609 31.5 36 29.5312 36 27V10.125C36 7.66406 33.9609 5.625 31.5 5.625ZM32.625 27C32.625 27.6328 32.0625 28.125 31.5 28.125H6.75C4.85156 28.125 3.375 26.6484 3.375 24.75V6.75C3.375 4.92188 4.85156 3.375 6.75 3.375H27C27.5625 3.375 28.125 3.9375 28.125 4.5V6.75H7.875C7.24219 6.75 6.75 7.3125 6.75 7.875C6.75 8.50781 7.24219 9 7.875 9H31.5C32.0625 9 32.625 9.5625 32.625 10.125V27ZM27 15.75C25.7344 15.75 24.75 16.8047 24.75 18C24.75 19.2656 25.7344 20.25 27 20.25C28.1953 20.25 29.25 19.2656 29.25 18C29.25 16.8047 28.1953 15.75 27 15.75Z" fill="url(#paint0_linear_15643_1307)"/>
<defs>
<linearGradient id="paint0_linear_15643_1307" x1="36" y1="15.75" x2="0" y2="15.75" gradientUnits="userSpaceOnUse">
<stop stop-color="#F29501"/>
<stop offset="1" stop-color="#FCCA01"/>
</linearGradient>
</defs>
</svg>
