<svg width="834" height="511" viewBox="0 0 834 511" fill="none" xmlns="http://www.w3.org/2000/svg">
<rect x="471" width="178" height="64" rx="24" fill="#050B16"/>
<rect x="471.5" y="0.5" width="177" height="63" rx="23.5" stroke="#C2C0C0" stroke-opacity="0.32"/>
<rect x="168" width="178" height="64" rx="24" fill="#050B16"/>
<rect x="168.5" y="0.5" width="177" height="63" rx="23.5" stroke="#C2C0C0" stroke-opacity="0.32"/>
<path d="M259.168 24.8182H260.709V31.5149C260.709 32.2275 260.542 32.8589 260.207 33.4091C259.872 33.956 259.402 34.3868 258.795 34.7017C258.189 35.0133 257.478 35.169 256.662 35.169C255.85 35.169 255.141 35.0133 254.535 34.7017C253.928 34.3868 253.457 33.956 253.123 33.4091C252.788 32.8589 252.621 32.2275 252.621 31.5149V24.8182H254.157V31.3906C254.157 31.8513 254.258 32.2607 254.46 32.6186C254.666 32.9766 254.956 33.2583 255.33 33.4638C255.705 33.666 256.149 33.767 256.662 33.767C257.18 33.767 257.625 33.666 258 33.4638C258.378 33.2583 258.666 32.9766 258.865 32.6186C259.067 32.2607 259.168 31.8513 259.168 31.3906V24.8182ZM268.966 29.228L267.619 29.4666C267.562 29.2943 267.473 29.1302 267.35 28.9744C267.231 28.8187 267.068 28.6911 266.863 28.5916C266.657 28.4922 266.4 28.4425 266.092 28.4425C265.671 28.4425 265.32 28.5369 265.038 28.7259C264.757 28.9115 264.616 29.1518 264.616 29.4467C264.616 29.7019 264.71 29.9074 264.899 30.0632C265.088 30.219 265.393 30.3466 265.814 30.446L267.027 30.7244C267.73 30.8868 268.253 31.1371 268.598 31.4751C268.943 31.8132 269.115 32.2524 269.115 32.7926C269.115 33.25 268.982 33.6577 268.717 34.0156C268.455 34.3703 268.089 34.6487 267.619 34.8509C267.151 35.053 266.609 35.1541 265.993 35.1541C265.138 35.1541 264.44 34.9718 263.9 34.6072C263.36 34.2393 263.028 33.7173 262.905 33.0412L264.342 32.8224C264.432 33.197 264.616 33.4804 264.894 33.6726C265.172 33.8615 265.535 33.956 265.983 33.956C266.47 33.956 266.86 33.8549 267.151 33.6527C267.443 33.4472 267.589 33.197 267.589 32.902C267.589 32.6634 267.499 32.4628 267.32 32.3004C267.145 32.138 266.874 32.0154 266.51 31.9325L265.217 31.6491C264.505 31.4867 263.978 31.2282 263.636 30.8736C263.298 30.5189 263.129 30.0698 263.129 29.5263C263.129 29.0755 263.255 28.6811 263.507 28.343C263.759 28.005 264.107 27.7415 264.551 27.5526C264.995 27.3603 265.504 27.2642 266.077 27.2642C266.903 27.2642 267.552 27.4432 268.026 27.8011C268.5 28.1558 268.813 28.6314 268.966 29.228ZM276.007 31.8331V27.3636H277.498V35H276.037V33.6776H275.957C275.781 34.0852 275.5 34.425 275.112 34.6967C274.727 34.9652 274.248 35.0994 273.675 35.0994C273.185 35.0994 272.75 34.9917 272.372 34.7763C271.998 34.5575 271.703 34.2344 271.488 33.8068C271.275 33.3793 271.169 32.8506 271.169 32.2209V27.3636H272.656V32.0419C272.656 32.5623 272.8 32.9766 273.088 33.2848C273.377 33.593 273.751 33.7472 274.212 33.7472C274.49 33.7472 274.767 33.6776 275.042 33.5384C275.321 33.3991 275.551 33.1887 275.733 32.907C275.919 32.6252 276.01 32.2673 276.007 31.8331ZM282.138 35.169C281.654 35.169 281.216 35.0795 280.825 34.9006C280.434 34.7183 280.124 34.4548 279.896 34.1101C279.67 33.7654 279.558 33.3428 279.558 32.8423C279.558 32.4115 279.64 32.0568 279.806 31.7784C279.972 31.5 280.196 31.2796 280.477 31.1172C280.759 30.9548 281.074 30.8321 281.422 30.7493C281.77 30.6664 282.125 30.6035 282.486 30.5604C282.943 30.5073 283.314 30.4643 283.599 30.4311C283.885 30.3946 284.092 30.3366 284.221 30.2571C284.35 30.1776 284.415 30.0483 284.415 29.8693V29.8345C284.415 29.4003 284.292 29.0639 284.047 28.8253C283.805 28.5866 283.444 28.4673 282.963 28.4673C282.463 28.4673 282.068 28.5784 281.78 28.8004C281.495 29.0192 281.298 29.2628 281.188 29.5312L279.791 29.2131C279.957 28.7491 280.199 28.3745 280.517 28.0895C280.839 27.8011 281.208 27.5923 281.626 27.4631C282.043 27.3305 282.483 27.2642 282.943 27.2642C283.248 27.2642 283.571 27.3007 283.913 27.3736C284.257 27.4432 284.579 27.5724 284.877 27.7614C285.179 27.9503 285.426 28.2204 285.618 28.5717C285.81 28.9197 285.906 29.3722 285.906 29.929V35H284.455V33.956H284.395C284.299 34.1482 284.155 34.3371 283.962 34.5227C283.77 34.7083 283.523 34.8625 283.222 34.9851C282.92 35.1077 282.559 35.169 282.138 35.169ZM282.461 33.9759C282.872 33.9759 283.223 33.8946 283.515 33.7322C283.81 33.5698 284.034 33.3577 284.186 33.0959C284.342 32.8307 284.42 32.5473 284.42 32.2457V31.2614C284.367 31.3144 284.264 31.3641 284.112 31.4105C283.962 31.4536 283.792 31.4917 283.599 31.5249C283.407 31.5547 283.22 31.5829 283.038 31.6094C282.855 31.6326 282.703 31.6525 282.58 31.669C282.292 31.7055 282.028 31.7668 281.79 31.853C281.555 31.9392 281.366 32.0634 281.223 32.2259C281.084 32.3849 281.014 32.5971 281.014 32.8622C281.014 33.2301 281.15 33.5085 281.422 33.6974C281.694 33.883 282.04 33.9759 282.461 33.9759ZM288.306 35V27.3636H289.743V28.5767H289.823C289.962 28.1657 290.207 27.8426 290.558 27.6072C290.913 27.3686 291.314 27.2493 291.761 27.2493C291.854 27.2493 291.964 27.2526 292.09 27.2592C292.219 27.2659 292.32 27.2741 292.393 27.2841V28.706C292.333 28.6894 292.227 28.6712 292.075 28.6513C291.922 28.6281 291.77 28.6165 291.617 28.6165C291.266 28.6165 290.953 28.6911 290.678 28.8402C290.406 28.986 290.19 29.1899 290.031 29.4517C289.872 29.7102 289.793 30.0052 289.793 30.3366V35H288.306ZM294.099 35V27.3636H295.586V35H294.099ZM294.85 26.1854C294.591 26.1854 294.369 26.0992 294.184 25.9268C294.002 25.7512 293.91 25.5424 293.91 25.3004C293.91 25.0552 294.002 24.8464 294.184 24.674C294.369 24.4983 294.591 24.4105 294.85 24.4105C295.109 24.4105 295.329 24.4983 295.511 24.674C295.697 24.8464 295.79 25.0552 295.79 25.3004C295.79 25.5424 295.697 25.7512 295.511 25.9268C295.329 26.0992 295.109 26.1854 294.85 26.1854ZM301.222 35.1541C300.506 35.1541 299.882 34.9901 299.348 34.6619C298.814 34.3338 298.4 33.8748 298.105 33.2848C297.81 32.6948 297.663 32.0054 297.663 31.2166C297.663 30.4245 297.81 29.7318 298.105 29.1385C298.4 28.5452 298.814 28.0845 299.348 27.7564C299.882 27.4283 300.506 27.2642 301.222 27.2642C301.938 27.2642 302.563 27.4283 303.097 27.7564C303.63 28.0845 304.044 28.5452 304.339 29.1385C304.634 29.7318 304.782 30.4245 304.782 31.2166C304.782 32.0054 304.634 32.6948 304.339 33.2848C304.044 33.8748 303.63 34.3338 303.097 34.6619C302.563 34.9901 301.938 35.1541 301.222 35.1541ZM301.227 33.9062C301.691 33.9062 302.076 33.7836 302.381 33.5384C302.686 33.2931 302.911 32.9666 303.057 32.5589C303.206 32.1513 303.28 31.7022 303.28 31.2116C303.28 30.7244 303.206 30.277 303.057 29.8693C302.911 29.4583 302.686 29.1286 302.381 28.88C302.076 28.6314 301.691 28.5071 301.227 28.5071C300.76 28.5071 300.372 28.6314 300.064 28.88C299.759 29.1286 299.532 29.4583 299.383 29.8693C299.237 30.277 299.164 30.7244 299.164 31.2116C299.164 31.7022 299.237 32.1513 299.383 32.5589C299.532 32.9666 299.759 33.2931 300.064 33.5384C300.372 33.7836 300.76 33.9062 301.227 33.9062ZM312.583 29.228L311.236 29.4666C311.18 29.2943 311.09 29.1302 310.968 28.9744C310.848 28.8187 310.686 28.6911 310.48 28.5916C310.275 28.4922 310.018 28.4425 309.71 28.4425C309.289 28.4425 308.938 28.5369 308.656 28.7259C308.374 28.9115 308.233 29.1518 308.233 29.4467C308.233 29.7019 308.328 29.9074 308.517 30.0632C308.706 30.219 309.011 30.3466 309.431 30.446L310.645 30.7244C311.347 30.8868 311.871 31.1371 312.216 31.4751C312.56 31.8132 312.733 32.2524 312.733 32.7926C312.733 33.25 312.6 33.6577 312.335 34.0156C312.073 34.3703 311.707 34.6487 311.236 34.8509C310.769 35.053 310.227 35.1541 309.61 35.1541C308.755 35.1541 308.058 34.9718 307.517 34.6072C306.977 34.2393 306.646 33.7173 306.523 33.0412L307.96 32.8224C308.049 33.197 308.233 33.4804 308.512 33.6726C308.79 33.8615 309.153 33.956 309.601 33.956C310.088 33.956 310.477 33.8549 310.769 33.6527C311.061 33.4472 311.206 33.197 311.206 32.902C311.206 32.6634 311.117 32.4628 310.938 32.3004C310.762 32.138 310.492 32.0154 310.127 31.9325L308.835 31.6491C308.122 31.4867 307.595 31.2282 307.254 30.8736C306.916 30.5189 306.747 30.0698 306.747 29.5263C306.747 29.0755 306.873 28.6811 307.125 28.343C307.377 28.005 307.725 27.7415 308.169 27.5526C308.613 27.3603 309.122 27.2642 309.695 27.2642C310.52 27.2642 311.17 27.4432 311.644 27.8011C312.118 28.1558 312.431 28.6314 312.583 29.228Z" fill="#FFFAFA"/>
<path d="M222.502 45.256C224.208 45.7513 225.976 46.0018 227.752 46C230.609 46.0041 233.428 45.3528 235.994 44.096C236.07 42.3034 235.559 40.5349 234.54 39.0587C233.52 37.5824 232.047 36.4787 230.343 35.915C228.64 35.3513 226.799 35.3582 225.1 35.9348C223.401 36.5113 221.937 37.6261 220.928 39.11M220.928 39.11C219.566 36.628 217.417 34.6698 214.819 33.5442C212.222 32.4186 209.323 32.1895 206.581 32.8932C203.839 33.5969 201.409 35.1932 199.674 37.4305C197.939 39.6679 196.998 42.4189 197 45.25L197.002 45.468C200.726 47.71 205.088 49 209.75 49C214.243 49.0076 218.653 47.7862 222.502 45.468V45.256V45.25C222.502 43.024 221.93 40.93 220.928 39.11ZM216.502 19.75C216.502 21.5402 215.791 23.2571 214.525 24.523C213.259 25.7888 211.542 26.5 209.752 26.5C207.962 26.5 206.245 25.7888 204.979 24.523C203.713 23.2571 203.002 21.5402 203.002 19.75C203.002 17.9598 203.713 16.2429 204.979 14.977C206.245 13.7112 207.962 13 209.752 13C211.542 13 213.259 13.7112 214.525 14.977C215.791 16.2429 216.502 17.9598 216.502 19.75ZM233.002 24.25C233.002 25.6424 232.449 26.9777 231.464 27.9623C230.48 28.9469 229.144 29.5 227.752 29.5C226.36 29.5 225.024 28.9469 224.04 27.9623C223.055 26.9777 222.502 25.6424 222.502 24.25C222.502 22.8576 223.055 21.5223 224.04 20.5377C225.024 19.5531 226.36 19 227.752 19C229.144 19 230.48 19.5531 231.464 20.5377C232.449 21.5223 233.002 22.8576 233.002 24.25Z" stroke="#F3BD07" stroke-width="1.5" stroke-linecap="round" stroke-linejoin="round"/>
<rect x="647" y="274" width="178" height="64" rx="24" fill="#050B16"/>
<rect x="647.5" y="274.5" width="177" height="63" rx="23.5" stroke="#C2C0C0" stroke-opacity="0.32"/>
<rect y="274" width="178" height="64" rx="24" fill="#050B16"/>
<rect x="0.5" y="274.5" width="177" height="63" rx="23.5" stroke="#C2C0C0" stroke-opacity="0.32"/>
<rect x="302" y="447" width="216" height="64" rx="24" fill="#050B16"/>
<rect x="302.5" y="447.5" width="215" height="63" rx="23.5" stroke="#C2C0C0" stroke-opacity="0.32"/>
<rect x="253" y="147" width="315" height="209" rx="12" fill="#050B16" stroke="#F3BD07" stroke-width="2"/>
<line x1="408.5" y1="356" x2="408.5" y2="447" stroke="#F3BD07" stroke-dasharray="7 7"/>
<circle cx="176" cy="309" r="5" fill="#F3BD07"/>
<circle cx="647" cy="307" r="5" fill="#F3BD07"/>
<circle cx="408" cy="447" r="5" fill="#F3BD07"/>
<path d="M176 184C176 184 206 179 215 205C224 231 253 223.5 253 223.5" stroke="#F3BD07" stroke-dasharray="5 5"/>
<path d="M569 224.504C569 224.504 599 229.504 608 203.504C617 177.504 646 185.004 646 185.004" stroke="#F3BD07" stroke-dasharray="5 5"/>
<path d="M569 269.386C569 269.386 599 264.386 608 290.386C617 316.386 646 308.886 646 308.886" stroke="#F3BD07" stroke-dasharray="5 5"/>
<path d="M562.186 63C562.186 63 574.169 95.3377 511.855 105.039C449.541 114.74 467.516 146 467.516 146" stroke="#F3BD07" stroke-dasharray="5 5"/>
<path d="M256.925 63C256.925 63 244.941 95.3377 307.255 105.039C369.569 114.74 351.594 146 351.594 146" stroke="#F3BD07" stroke-dasharray="5 5"/>
<path d="M179.001 308.504C179.001 308.504 208.992 313.556 218.037 287.571C227.082 261.587 256.069 269.137 256.069 269.137" stroke="#F3BD07" stroke-dasharray="5 5"/>
<path d="M505 43H536.688M507.438 16V43M524.5 16V43M534.25 22.75V43M512.312 21.625H513.531M512.312 26.125H513.531M512.312 30.625H513.531M518.406 21.625H519.625M518.406 26.125H519.625M518.406 30.625H519.625M512.312 43V37.9375C512.312 37.006 513.132 36.25 514.141 36.25H517.797C518.806 36.25 519.625 37.006 519.625 37.9375V43M506.219 16H525.719M524.5 22.75H535.469M529.375 28.375H529.388V28.387H529.375V28.375ZM529.375 32.875H529.388V32.887H529.375V32.875ZM529.375 37.375H529.388V37.387H529.375V37.375Z" stroke="#F3BD07" stroke-width="1.5" stroke-linecap="round" stroke-linejoin="round"/>
<path d="M551.462 35.5V25.3182H557.846V26.6406H552.999V29.7429H557.513V31.0604H552.999V34.1776H557.906V35.5H551.462ZM560.199 35.5V27.8636H561.625V29.1065H561.72C561.879 28.6856 562.139 28.3575 562.5 28.1222C562.862 27.8835 563.294 27.7642 563.798 27.7642C564.308 27.7642 564.736 27.8835 565.081 28.1222C565.429 28.3608 565.686 28.6889 565.851 29.1065H565.931C566.113 28.6989 566.403 28.3741 566.801 28.1321C567.199 27.8868 567.673 27.7642 568.223 27.7642C568.915 27.7642 569.481 27.9813 569.918 28.4155C570.359 28.8497 570.579 29.5043 570.579 30.3793V35.5H569.093V30.5185C569.093 30.0014 568.952 29.6269 568.67 29.3949C568.388 29.1629 568.052 29.0469 567.661 29.0469C567.177 29.0469 566.801 29.196 566.532 29.4943C566.264 29.7893 566.13 30.1688 566.13 30.6328V35.5H564.648V30.424C564.648 30.0097 564.519 29.6766 564.26 29.4247C564.002 29.1728 563.665 29.0469 563.251 29.0469C562.969 29.0469 562.709 29.1214 562.471 29.2706C562.235 29.4164 562.045 29.6203 561.899 29.8821C561.756 30.1439 561.685 30.4472 561.685 30.7919V35.5H560.199ZM572.992 38.3636V27.8636H574.443V29.1016H574.568C574.654 28.9425 574.778 28.7585 574.94 28.5497C575.103 28.3409 575.328 28.1586 575.617 28.0028C575.905 27.8438 576.286 27.7642 576.76 27.7642C577.377 27.7642 577.927 27.92 578.411 28.2315C578.895 28.5431 579.274 28.9922 579.549 29.5788C579.828 30.1655 579.967 30.8714 579.967 31.6967C579.967 32.522 579.829 33.2296 579.554 33.8196C579.279 34.4062 578.901 34.8587 578.421 35.1768C577.94 35.4917 577.391 35.6491 576.775 35.6491C576.311 35.6491 575.932 35.5713 575.637 35.4155C575.345 35.2597 575.116 35.0774 574.95 34.8686C574.785 34.6598 574.657 34.4742 574.568 34.3118H574.478V38.3636H572.992ZM574.448 31.6818C574.448 32.2187 574.526 32.6894 574.682 33.0938C574.838 33.4981 575.063 33.8146 575.358 34.0433C575.653 34.2687 576.014 34.3814 576.442 34.3814C576.886 34.3814 577.257 34.2637 577.556 34.0284C577.854 33.7898 578.079 33.4666 578.232 33.0589C578.387 32.6513 578.465 32.1922 578.465 31.6818C578.465 31.178 578.389 30.7256 578.237 30.3246C578.088 29.9235 577.862 29.607 577.561 29.375C577.262 29.143 576.889 29.027 576.442 29.027C576.011 29.027 575.646 29.138 575.348 29.3601C575.053 29.5821 574.829 29.892 574.677 30.2898C574.525 30.6875 574.448 31.1515 574.448 31.6818ZM582.052 35.5V27.8636H583.489V29.0767H583.569C583.708 28.6657 583.953 28.3426 584.304 28.1072C584.659 27.8686 585.06 27.7493 585.508 27.7493C585.6 27.7493 585.71 27.7526 585.836 27.7592C585.965 27.7659 586.066 27.7741 586.139 27.7841V29.206C586.079 29.1894 585.973 29.1712 585.821 29.1513C585.668 29.1281 585.516 29.1165 585.363 29.1165C585.012 29.1165 584.699 29.1911 584.424 29.3402C584.152 29.486 583.936 29.6899 583.777 29.9517C583.618 30.2102 583.539 30.5052 583.539 30.8366V35.5H582.052ZM590.863 35.6541C590.111 35.6541 589.463 35.4934 588.919 35.1719C588.379 34.8471 587.961 34.3913 587.666 33.8047C587.375 33.2147 587.229 32.5237 587.229 31.7315C587.229 30.9493 587.375 30.2599 587.666 29.6634C587.961 29.0668 588.372 28.6011 588.899 28.2663C589.43 27.9316 590.049 27.7642 590.759 27.7642C591.19 27.7642 591.607 27.8355 592.011 27.978C592.416 28.1205 592.779 28.3442 593.1 28.6491C593.422 28.9541 593.675 29.3501 593.861 29.8374C594.047 30.3213 594.139 30.9096 594.139 31.6023V32.1293H588.069V31.0156H592.683C592.683 30.6245 592.603 30.2782 592.444 29.9766C592.285 29.6716 592.061 29.4313 591.773 29.2557C591.488 29.08 591.153 28.9922 590.769 28.9922C590.351 28.9922 589.986 29.0949 589.675 29.3004C589.367 29.5026 589.128 29.7678 588.959 30.0959C588.793 30.4207 588.71 30.7737 588.71 31.1548V32.0249C588.71 32.5353 588.8 32.9695 588.979 33.3274C589.161 33.6854 589.415 33.9588 589.739 34.1477C590.064 34.3333 590.444 34.4261 590.878 34.4261C591.16 34.4261 591.417 34.3864 591.649 34.3068C591.881 34.224 592.081 34.1013 592.25 33.9389C592.419 33.7765 592.548 33.576 592.638 33.3374L594.045 33.5909C593.932 34.0052 593.73 34.3681 593.438 34.6797C593.15 34.9879 592.787 35.2282 592.35 35.4006C591.915 35.5696 591.42 35.6541 590.863 35.6541ZM601.931 29.728L600.584 29.9666C600.527 29.7943 600.438 29.6302 600.315 29.4744C600.196 29.3187 600.033 29.1911 599.828 29.0916C599.622 28.9922 599.366 28.9425 599.057 28.9425C598.636 28.9425 598.285 29.0369 598.003 29.2259C597.722 29.4115 597.581 29.6518 597.581 29.9467C597.581 30.2019 597.675 30.4074 597.864 30.5632C598.053 30.719 598.358 30.8466 598.779 30.946L599.992 31.2244C600.695 31.3868 601.218 31.6371 601.563 31.9751C601.908 32.3132 602.08 32.7524 602.08 33.2926C602.08 33.75 601.948 34.1577 601.682 34.5156C601.421 34.8703 601.054 35.1487 600.584 35.3509C600.116 35.553 599.574 35.6541 598.958 35.6541C598.103 35.6541 597.405 35.4718 596.865 35.1072C596.325 34.7393 595.993 34.2173 595.871 33.5412L597.307 33.3224C597.397 33.697 597.581 33.9804 597.859 34.1726C598.138 34.3615 598.501 34.456 598.948 34.456C599.435 34.456 599.825 34.3549 600.116 34.1527C600.408 33.9472 600.554 33.697 600.554 33.402C600.554 33.1634 600.464 32.9628 600.285 32.8004C600.11 32.638 599.84 32.5154 599.475 32.4325L598.182 32.1491C597.47 31.9867 596.943 31.7282 596.601 31.3736C596.263 31.0189 596.094 30.5698 596.094 30.0263C596.094 29.5755 596.22 29.1811 596.472 28.843C596.724 28.505 597.072 28.2415 597.516 28.0526C597.96 27.8603 598.469 27.7642 599.042 27.7642C599.868 27.7642 600.517 27.9432 600.991 28.3011C601.465 28.6558 601.779 29.1314 601.931 29.728ZM606.357 35.669C605.873 35.669 605.435 35.5795 605.044 35.4006C604.653 35.2183 604.343 34.9548 604.115 34.6101C603.889 34.2654 603.777 33.8428 603.777 33.3423C603.777 32.9115 603.859 32.5568 604.025 32.2784C604.191 32 604.415 31.7796 604.696 31.6172C604.978 31.4548 605.293 31.3321 605.641 31.2493C605.989 31.1664 606.344 31.1035 606.705 31.0604C607.162 31.0073 607.533 30.9643 607.818 30.9311C608.104 30.8946 608.311 30.8366 608.44 30.7571C608.569 30.6776 608.634 30.5483 608.634 30.3693V30.3345C608.634 29.9003 608.511 29.5639 608.266 29.3253C608.024 29.0866 607.663 28.9673 607.182 28.9673C606.682 28.9673 606.287 29.0784 605.999 29.3004C605.714 29.5192 605.517 29.7628 605.407 30.0312L604.01 29.7131C604.176 29.2491 604.418 28.8745 604.736 28.5895C605.058 28.3011 605.427 28.0923 605.845 27.9631C606.262 27.8305 606.702 27.7642 607.162 27.7642C607.467 27.7642 607.79 27.8007 608.132 27.8736C608.476 27.9432 608.798 28.0724 609.096 28.2614C609.398 28.4503 609.645 28.7204 609.837 29.0717C610.029 29.4197 610.125 29.8722 610.125 30.429V35.5H608.674V34.456H608.614C608.518 34.6482 608.374 34.8371 608.181 35.0227C607.989 35.2083 607.742 35.3625 607.441 35.4851C607.139 35.6077 606.778 35.669 606.357 35.669ZM606.68 34.4759C607.091 34.4759 607.442 34.3946 607.734 34.2322C608.029 34.0698 608.253 33.8577 608.405 33.5959C608.561 33.3307 608.639 33.0473 608.639 32.7457V31.7614C608.586 31.8144 608.483 31.8641 608.331 31.9105C608.181 31.9536 608.011 31.9917 607.818 32.0249C607.626 32.0547 607.439 32.0829 607.257 32.1094C607.074 32.1326 606.922 32.1525 606.799 32.169C606.511 32.2055 606.247 32.2668 606.009 32.353C605.773 32.4392 605.585 32.5634 605.442 32.7259C605.303 32.8849 605.233 33.0971 605.233 33.3622C605.233 33.7301 605.369 34.0085 605.641 34.1974C605.913 34.383 606.259 34.4759 606.68 34.4759ZM618.248 29.728L616.9 29.9666C616.844 29.7943 616.754 29.6302 616.632 29.4744C616.512 29.3187 616.35 29.1911 616.145 29.0916C615.939 28.9922 615.682 28.9425 615.374 28.9425C614.953 28.9425 614.602 29.0369 614.32 29.2259C614.038 29.4115 613.897 29.6518 613.897 29.9467C613.897 30.2019 613.992 30.4074 614.181 30.5632C614.37 30.719 614.675 30.8466 615.096 30.946L616.309 31.2244C617.011 31.3868 617.535 31.6371 617.88 31.9751C618.224 32.3132 618.397 32.7524 618.397 33.2926C618.397 33.75 618.264 34.1577 617.999 34.5156C617.737 34.8703 617.371 35.1487 616.9 35.3509C616.433 35.553 615.891 35.6541 615.275 35.6541C614.419 35.6541 613.722 35.4718 613.181 35.1072C612.641 34.7393 612.31 34.2173 612.187 33.5412L613.624 33.3224C613.713 33.697 613.897 33.9804 614.176 34.1726C614.454 34.3615 614.817 34.456 615.265 34.456C615.752 34.456 616.141 34.3549 616.433 34.1527C616.725 33.9472 616.87 33.697 616.87 33.402C616.87 33.1634 616.781 32.9628 616.602 32.8004C616.426 32.638 616.156 32.5154 615.792 32.4325L614.499 32.1491C613.786 31.9867 613.259 31.7282 612.918 31.3736C612.58 31.0189 612.411 30.5698 612.411 30.0263C612.411 29.5755 612.537 29.1811 612.789 28.843C613.041 28.505 613.389 28.2415 613.833 28.0526C614.277 27.8603 614.786 27.7642 615.359 27.7642C616.184 27.7642 616.834 27.9432 617.308 28.3011C617.782 28.6558 618.095 29.1314 618.248 29.728Z" fill="#FFFAFA"/>
<rect y="151" width="178" height="64" rx="23" fill="#050B16"/>
<rect x="0.5" y="151.5" width="177" height="63" rx="22.5" stroke="#C2C0C0" stroke-opacity="0.32"/>
<path d="M57.5708 180.538L64 184L57.5708 187.462L49 192.077L40.4292 187.462L34 184L40.4292 180.538M57.5708 180.538L64 177.077L49 169L34 177.077L40.4292 180.538L49 185.154L57.5708 180.538ZM40.4292 187.462L34 190.923L49 199L64 190.923L57.5708 187.462" stroke="#F3BD07" stroke-width="1.5" stroke-linecap="round" stroke-linejoin="round"/>
<path d="M78.3706 189V178.818H79.9068V187.678H84.5204V189H78.3706ZM89.8648 189.154C89.1124 189.154 88.4644 188.993 87.9209 188.672C87.3806 188.347 86.963 187.891 86.668 187.305C86.3764 186.715 86.2305 186.024 86.2305 185.232C86.2305 184.449 86.3764 183.76 86.668 183.163C86.963 182.567 87.374 182.101 87.901 181.766C88.4313 181.432 89.0511 181.264 89.7604 181.264C90.1912 181.264 90.6089 181.335 91.0132 181.478C91.4176 181.621 91.7805 181.844 92.102 182.149C92.4235 182.454 92.677 182.85 92.8626 183.337C93.0483 183.821 93.1411 184.41 93.1411 185.102V185.629H87.0707V184.516H91.6844C91.6844 184.125 91.6048 183.778 91.4457 183.477C91.2867 183.172 91.0629 182.931 90.7746 182.756C90.4895 182.58 90.1548 182.492 89.7703 182.492C89.3527 182.492 88.9881 182.595 88.6766 182.8C88.3683 183.003 88.1297 183.268 87.9607 183.596C87.7949 183.921 87.7121 184.274 87.7121 184.655V185.525C87.7121 186.035 87.8016 186.469 87.9805 186.827C88.1628 187.185 88.4164 187.459 88.7412 187.648C89.066 187.833 89.4455 187.926 89.8797 187.926C90.1614 187.926 90.4183 187.886 90.6503 187.807C90.8823 187.724 91.0828 187.601 91.2519 187.439C91.4209 187.277 91.5501 187.076 91.6396 186.837L93.0466 187.091C92.9339 187.505 92.7317 187.868 92.4401 188.18C92.1517 188.488 91.7888 188.728 91.3513 188.901C90.9171 189.07 90.4216 189.154 89.8648 189.154ZM98.069 189.149C97.4526 189.149 96.9024 188.992 96.4185 188.677C95.9379 188.359 95.5601 187.906 95.285 187.32C95.0132 186.73 94.8773 186.022 94.8773 185.197C94.8773 184.371 95.0148 183.665 95.2899 183.079C95.5683 182.492 95.9495 182.043 96.4334 181.732C96.9173 181.42 97.4658 181.264 98.079 181.264C98.5529 181.264 98.9341 181.344 99.2225 181.503C99.5141 181.659 99.7395 181.841 99.8986 182.05C100.061 182.259 100.187 182.442 100.276 182.602H100.366V178.818H101.852V189H100.401V187.812H100.276C100.187 187.974 100.058 188.16 99.8887 188.369C99.7229 188.577 99.4942 188.76 99.2026 188.915C98.9109 189.071 98.5331 189.149 98.069 189.149ZM98.3972 187.881C98.8247 187.881 99.186 187.769 99.481 187.543C99.7793 187.315 100.005 186.998 100.157 186.594C100.313 186.189 100.391 185.719 100.391 185.182C100.391 184.652 100.315 184.187 100.162 183.79C100.01 183.392 99.7859 183.082 99.4909 182.86C99.1959 182.638 98.8314 182.527 98.3972 182.527C97.9497 182.527 97.5769 182.643 97.2786 182.875C96.9803 183.107 96.7549 183.424 96.6024 183.825C96.4533 184.226 96.3787 184.678 96.3787 185.182C96.3787 185.692 96.4549 186.151 96.6074 186.559C96.7599 186.967 96.9852 187.29 97.2835 187.528C97.5851 187.764 97.9564 187.881 98.3972 187.881ZM107.596 192.023C106.989 192.023 106.467 191.943 106.03 191.784C105.596 191.625 105.241 191.415 104.966 191.153C104.691 190.891 104.485 190.604 104.349 190.293L105.627 189.766C105.716 189.911 105.836 190.066 105.985 190.228C106.137 190.394 106.343 190.535 106.601 190.651C106.863 190.767 107.2 190.825 107.611 190.825C108.174 190.825 108.64 190.687 109.008 190.412C109.376 190.14 109.56 189.706 109.56 189.109V187.608H109.465C109.376 187.77 109.246 187.951 109.077 188.15C108.912 188.349 108.683 188.521 108.391 188.667C108.1 188.813 107.72 188.886 107.253 188.886C106.65 188.886 106.106 188.745 105.622 188.463C105.141 188.178 104.76 187.759 104.479 187.205C104.2 186.648 104.061 185.964 104.061 185.152C104.061 184.34 104.199 183.644 104.474 183.064C104.752 182.484 105.133 182.04 105.617 181.732C106.101 181.42 106.65 181.264 107.263 181.264C107.737 181.264 108.119 181.344 108.411 181.503C108.703 181.659 108.93 181.841 109.092 182.05C109.258 182.259 109.386 182.442 109.475 182.602H109.584V181.364H111.041V189.169C111.041 189.825 110.889 190.364 110.584 190.785C110.279 191.206 109.866 191.517 109.346 191.719C108.829 191.922 108.245 192.023 107.596 192.023ZM107.581 187.653C108.008 187.653 108.37 187.553 108.665 187.354C108.963 187.152 109.188 186.864 109.341 186.489C109.497 186.112 109.574 185.659 109.574 185.132C109.574 184.618 109.498 184.166 109.346 183.775C109.193 183.384 108.97 183.079 108.675 182.86C108.38 182.638 108.015 182.527 107.581 182.527C107.133 182.527 106.761 182.643 106.462 182.875C106.164 183.104 105.939 183.415 105.786 183.81C105.637 184.204 105.562 184.645 105.562 185.132C105.562 185.633 105.639 186.072 105.791 186.45C105.944 186.827 106.169 187.122 106.467 187.335C106.769 187.547 107.14 187.653 107.581 187.653ZM116.746 189.154C115.994 189.154 115.346 188.993 114.802 188.672C114.262 188.347 113.844 187.891 113.549 187.305C113.257 186.715 113.112 186.024 113.112 185.232C113.112 184.449 113.257 183.76 113.549 183.163C113.844 182.567 114.255 182.101 114.782 181.766C115.312 181.432 115.932 181.264 116.641 181.264C117.072 181.264 117.49 181.335 117.894 181.478C118.299 181.621 118.662 181.844 118.983 182.149C119.305 182.454 119.558 182.85 119.744 183.337C119.929 183.821 120.022 184.41 120.022 185.102V185.629H113.952V184.516H118.565C118.565 184.125 118.486 183.778 118.327 183.477C118.168 183.172 117.944 182.931 117.656 182.756C117.371 182.58 117.036 182.492 116.651 182.492C116.234 182.492 115.869 182.595 115.558 182.8C115.249 183.003 115.011 183.268 114.842 183.596C114.676 183.921 114.593 184.274 114.593 184.655V185.525C114.593 186.035 114.683 186.469 114.862 186.827C115.044 187.185 115.297 187.459 115.622 187.648C115.947 187.833 116.327 187.926 116.761 187.926C117.043 187.926 117.299 187.886 117.531 187.807C117.763 187.724 117.964 187.601 118.133 187.439C118.302 187.277 118.431 187.076 118.521 186.837L119.928 187.091C119.815 187.505 119.613 187.868 119.321 188.18C119.033 188.488 118.67 188.728 118.232 188.901C117.798 189.07 117.303 189.154 116.746 189.154ZM122.091 189V181.364H123.528V182.577H123.608C123.747 182.166 123.992 181.843 124.344 181.607C124.698 181.369 125.099 181.249 125.547 181.249C125.64 181.249 125.749 181.253 125.875 181.259C126.004 181.266 126.105 181.274 126.178 181.284V182.706C126.118 182.689 126.012 182.671 125.86 182.651C125.707 182.628 125.555 182.616 125.403 182.616C125.051 182.616 124.738 182.691 124.463 182.84C124.191 182.986 123.976 183.19 123.817 183.452C123.658 183.71 123.578 184.005 123.578 184.337V189H122.091Z" fill="#FFFAFA"/>
<rect x="641" y="149" width="193" height="64" rx="24" fill="#050B16"/>
<rect x="641.5" y="149.5" width="192" height="63" rx="23.5" stroke="#C2C0C0" stroke-opacity="0.32"/>
<path d="M673 182.054L677.5 186.998L685 175.461M679 160C674.471 164.725 668.441 167.317 662.196 167.221C661.402 169.88 660.998 172.661 661 175.459C661 187.747 668.648 198.071 679 201C689.352 198.073 697 187.749 697 175.461C697 172.583 696.58 169.812 695.804 167.219H695.5C689.108 167.219 683.3 164.476 679 160Z" stroke="#F3BD07" stroke-width="1.5" stroke-linecap="round" stroke-linejoin="round"/>
<path d="M725.575 179.129H724.024C723.964 178.798 723.853 178.506 723.691 178.254C723.529 178.002 723.33 177.789 723.094 177.613C722.859 177.437 722.596 177.305 722.304 177.215C722.016 177.126 721.709 177.081 721.384 177.081C720.798 177.081 720.272 177.228 719.808 177.523C719.348 177.818 718.983 178.251 718.714 178.821C718.449 179.391 718.317 180.087 718.317 180.909C718.317 181.738 718.449 182.437 718.714 183.007C718.983 183.577 719.349 184.008 719.813 184.3C720.277 184.591 720.799 184.737 721.379 184.737C721.701 184.737 722.006 184.694 722.294 184.608C722.586 184.518 722.849 184.388 723.085 184.215C723.32 184.043 723.519 183.832 723.681 183.584C723.847 183.332 723.961 183.044 724.024 182.719L725.575 182.724C725.492 183.224 725.332 183.685 725.093 184.106C724.858 184.523 724.554 184.885 724.183 185.19C723.815 185.491 723.394 185.725 722.92 185.891C722.446 186.056 721.929 186.139 721.369 186.139C720.488 186.139 719.702 185.93 719.013 185.513C718.323 185.092 717.78 184.49 717.382 183.708C716.988 182.926 716.79 181.993 716.79 180.909C716.79 179.822 716.989 178.889 717.387 178.11C717.785 177.328 718.328 176.728 719.018 176.31C719.707 175.889 720.491 175.679 721.369 175.679C721.91 175.679 722.413 175.757 722.881 175.913C723.351 176.065 723.774 176.29 724.148 176.589C724.523 176.884 724.833 177.245 725.078 177.673C725.323 178.097 725.489 178.582 725.575 179.129ZM732.552 182.833V178.364H734.043V186H732.581V184.678H732.502C732.326 185.085 732.044 185.425 731.657 185.697C731.272 185.965 730.793 186.099 730.22 186.099C729.729 186.099 729.295 185.992 728.917 185.776C728.543 185.558 728.248 185.234 728.032 184.807C727.82 184.379 727.714 183.851 727.714 183.221V178.364H729.201V183.042C729.201 183.562 729.345 183.977 729.633 184.285C729.922 184.593 730.296 184.747 730.757 184.747C731.035 184.747 731.312 184.678 731.587 184.538C731.865 184.399 732.096 184.189 732.278 183.907C732.464 183.625 732.555 183.267 732.552 182.833ZM736.46 186V178.364H737.887V179.607H737.982C738.141 179.186 738.401 178.857 738.762 178.622C739.123 178.384 739.556 178.264 740.06 178.264C740.57 178.264 740.998 178.384 741.342 178.622C741.69 178.861 741.947 179.189 742.113 179.607H742.193C742.375 179.199 742.665 178.874 743.063 178.632C743.46 178.387 743.934 178.264 744.485 178.264C745.177 178.264 745.742 178.481 746.18 178.915C746.621 179.35 746.841 180.004 746.841 180.879V186H745.355V181.018C745.355 180.501 745.214 180.127 744.932 179.895C744.65 179.663 744.314 179.547 743.923 179.547C743.439 179.547 743.063 179.696 742.794 179.994C742.526 180.289 742.391 180.669 742.391 181.133V186H740.91V180.924C740.91 180.51 740.781 180.177 740.522 179.925C740.264 179.673 739.927 179.547 739.513 179.547C739.231 179.547 738.971 179.621 738.732 179.771C738.497 179.916 738.307 180.12 738.161 180.382C738.018 180.644 737.947 180.947 737.947 181.292V186H736.46ZM749.253 188.864V178.364H750.705V179.602H750.829C750.916 179.442 751.04 179.259 751.202 179.05C751.365 178.841 751.59 178.659 751.878 178.503C752.167 178.344 752.548 178.264 753.022 178.264C753.638 178.264 754.189 178.42 754.672 178.732C755.156 179.043 755.536 179.492 755.811 180.079C756.089 180.665 756.229 181.371 756.229 182.197C756.229 183.022 756.091 183.73 755.816 184.32C755.541 184.906 755.163 185.359 754.682 185.677C754.202 185.992 753.653 186.149 753.037 186.149C752.573 186.149 752.193 186.071 751.898 185.915C751.607 185.76 751.378 185.577 751.212 185.369C751.047 185.16 750.919 184.974 750.829 184.812H750.74V188.864H749.253ZM750.71 182.182C750.71 182.719 750.788 183.189 750.944 183.594C751.1 183.998 751.325 184.315 751.62 184.543C751.915 184.769 752.276 184.881 752.704 184.881C753.148 184.881 753.519 184.764 753.817 184.528C754.116 184.29 754.341 183.967 754.493 183.559C754.649 183.151 754.727 182.692 754.727 182.182C754.727 181.678 754.651 181.226 754.498 180.825C754.349 180.424 754.124 180.107 753.822 179.875C753.524 179.643 753.151 179.527 752.704 179.527C752.273 179.527 751.908 179.638 751.61 179.86C751.315 180.082 751.091 180.392 750.939 180.79C750.786 181.187 750.71 181.652 750.71 182.182ZM759.801 175.818V186H758.314V175.818H759.801ZM762.22 186V178.364H763.707V186H762.22ZM762.971 177.185C762.713 177.185 762.491 177.099 762.305 176.927C762.123 176.751 762.031 176.542 762.031 176.3C762.031 176.055 762.123 175.846 762.305 175.674C762.491 175.498 762.713 175.411 762.971 175.411C763.23 175.411 763.45 175.498 763.632 175.674C763.818 175.846 763.911 176.055 763.911 176.3C763.911 176.542 763.818 176.751 763.632 176.927C763.45 177.099 763.23 177.185 762.971 177.185ZM766.127 186V178.364H767.554V179.607H767.648C767.807 179.186 768.067 178.857 768.429 178.622C768.79 178.384 769.222 178.264 769.726 178.264C770.237 178.264 770.664 178.384 771.009 178.622C771.357 178.861 771.614 179.189 771.779 179.607H771.859C772.041 179.199 772.331 178.874 772.729 178.632C773.127 178.387 773.601 178.264 774.151 178.264C774.844 178.264 775.409 178.481 775.846 178.915C776.287 179.35 776.507 180.004 776.507 180.879V186H775.021V181.018C775.021 180.501 774.88 180.127 774.598 179.895C774.317 179.663 773.98 179.547 773.589 179.547C773.105 179.547 772.729 179.696 772.461 179.994C772.192 180.289 772.058 180.669 772.058 181.133V186H770.576V180.924C770.576 180.51 770.447 180.177 770.189 179.925C769.93 179.673 769.594 179.547 769.179 179.547C768.898 179.547 768.637 179.621 768.399 179.771C768.163 179.916 767.973 180.12 767.827 180.382C767.684 180.644 767.613 180.947 767.613 181.292V186H766.127ZM778.92 186V178.364H780.406V186H778.92ZM779.67 177.185C779.412 177.185 779.19 177.099 779.004 176.927C778.822 176.751 778.731 176.542 778.731 176.3C778.731 176.055 778.822 175.846 779.004 175.674C779.19 175.498 779.412 175.411 779.67 175.411C779.929 175.411 780.149 175.498 780.332 175.674C780.517 175.846 780.61 176.055 780.61 176.3C780.61 176.542 780.517 176.751 780.332 176.927C780.149 177.099 779.929 177.185 779.67 177.185ZM786.117 186.154C785.365 186.154 784.717 185.993 784.173 185.672C783.633 185.347 783.216 184.891 782.921 184.305C782.629 183.715 782.483 183.024 782.483 182.232C782.483 181.449 782.629 180.76 782.921 180.163C783.216 179.567 783.627 179.101 784.154 178.766C784.684 178.432 785.304 178.264 786.013 178.264C786.444 178.264 786.861 178.335 787.266 178.478C787.67 178.621 788.033 178.844 788.354 179.149C788.676 179.454 788.93 179.85 789.115 180.337C789.301 180.821 789.394 181.41 789.394 182.102V182.629H783.323V181.516H787.937C787.937 181.125 787.857 180.778 787.698 180.477C787.539 180.172 787.315 179.931 787.027 179.756C786.742 179.58 786.407 179.492 786.023 179.492C785.605 179.492 785.241 179.595 784.929 179.8C784.621 180.003 784.382 180.268 784.213 180.596C784.047 180.921 783.965 181.274 783.965 181.655V182.525C783.965 183.035 784.054 183.469 784.233 183.827C784.415 184.185 784.669 184.459 784.994 184.648C785.319 184.833 785.698 184.926 786.132 184.926C786.414 184.926 786.671 184.886 786.903 184.807C787.135 184.724 787.335 184.601 787.504 184.439C787.673 184.277 787.803 184.076 787.892 183.837L789.299 184.091C789.186 184.505 788.984 184.868 788.693 185.18C788.404 185.488 788.041 185.728 787.604 185.901C787.17 186.07 786.674 186.154 786.117 186.154ZM792.949 181.466V186H791.463V178.364H792.89V179.607H792.984C793.16 179.202 793.435 178.877 793.809 178.632C794.187 178.387 794.663 178.264 795.236 178.264C795.757 178.264 796.212 178.374 796.604 178.592C796.995 178.808 797.298 179.129 797.513 179.557C797.729 179.984 797.836 180.513 797.836 181.143V186H796.35V181.322C796.35 180.768 796.206 180.336 795.917 180.024C795.629 179.709 795.233 179.552 794.729 179.552C794.385 179.552 794.078 179.626 793.809 179.776C793.544 179.925 793.334 180.143 793.178 180.432C793.026 180.717 792.949 181.062 792.949 181.466ZM803.815 178.364V179.557H799.644V178.364H803.815ZM800.762 176.534H802.249V183.758C802.249 184.046 802.292 184.263 802.378 184.409C802.464 184.552 802.575 184.649 802.711 184.702C802.85 184.752 803.001 184.777 803.163 184.777C803.283 184.777 803.387 184.769 803.477 184.752C803.566 184.736 803.636 184.722 803.685 184.712L803.954 185.94C803.868 185.973 803.745 186.007 803.586 186.04C803.427 186.076 803.228 186.096 802.989 186.099C802.598 186.106 802.234 186.036 801.896 185.891C801.558 185.745 801.284 185.519 801.075 185.214C800.867 184.91 800.762 184.527 800.762 184.066V176.534ZM809.014 186.154C808.298 186.154 807.673 185.99 807.139 185.662C806.606 185.334 806.191 184.875 805.896 184.285C805.601 183.695 805.454 183.005 805.454 182.217C805.454 181.424 805.601 180.732 805.896 180.138C806.191 179.545 806.606 179.085 807.139 178.756C807.673 178.428 808.298 178.264 809.014 178.264C809.73 178.264 810.354 178.428 810.888 178.756C811.422 179.085 811.836 179.545 812.131 180.138C812.426 180.732 812.573 181.424 812.573 182.217C812.573 183.005 812.426 183.695 812.131 184.285C811.836 184.875 811.422 185.334 810.888 185.662C810.354 185.99 809.73 186.154 809.014 186.154ZM809.019 184.906C809.483 184.906 809.867 184.784 810.172 184.538C810.477 184.293 810.702 183.967 810.848 183.559C810.997 183.151 811.072 182.702 811.072 182.212C811.072 181.724 810.997 181.277 810.848 180.869C810.702 180.458 810.477 180.129 810.172 179.88C809.867 179.631 809.483 179.507 809.019 179.507C808.551 179.507 808.164 179.631 807.855 179.88C807.55 180.129 807.323 180.458 807.174 180.869C807.028 181.277 806.955 181.724 806.955 182.212C806.955 182.702 807.028 183.151 807.174 183.559C807.323 183.967 807.55 184.293 807.855 184.538C808.164 184.784 808.551 184.906 809.019 184.906Z" fill="#FFFAFA"/>
<path d="M77.6165 302.141V300.818H85.4964V302.141H82.3196V311H80.7884V302.141H77.6165ZM89.7222 311.154C88.9698 311.154 88.3219 310.993 87.7783 310.672C87.2381 310.347 86.8204 309.891 86.5255 309.305C86.2338 308.715 86.088 308.024 86.088 307.232C86.088 306.449 86.2338 305.76 86.5255 305.163C86.8204 304.567 87.2314 304.101 87.7584 303.766C88.2887 303.432 88.9085 303.264 89.6178 303.264C90.0487 303.264 90.4663 303.335 90.8706 303.478C91.275 303.621 91.6379 303.844 91.9594 304.149C92.2809 304.454 92.5345 304.85 92.7201 305.337C92.9057 305.821 92.9985 306.41 92.9985 307.102V307.629H86.9282V306.516H91.5418C91.5418 306.125 91.4623 305.778 91.3032 305.477C91.1441 305.172 90.9204 304.931 90.632 304.756C90.347 304.58 90.0122 304.492 89.6277 304.492C89.2101 304.492 88.8455 304.595 88.534 304.8C88.2258 305.003 87.9871 305.268 87.8181 305.596C87.6524 305.921 87.5695 306.274 87.5695 306.655V307.525C87.5695 308.035 87.659 308.469 87.838 308.827C88.0203 309.185 88.2738 309.459 88.5986 309.648C88.9234 309.833 89.3029 309.926 89.7371 309.926C90.0188 309.926 90.2757 309.886 90.5077 309.807C90.7397 309.724 90.9402 309.601 91.1093 309.439C91.2783 309.277 91.4076 309.076 91.4971 308.837L92.904 309.091C92.7913 309.505 92.5892 309.868 92.2975 310.18C92.0091 310.488 91.6462 310.728 91.2087 310.901C90.7745 311.07 90.279 311.154 89.7222 311.154ZM100.79 305.228L99.4428 305.467C99.3865 305.294 99.297 305.13 99.1743 304.974C99.055 304.819 98.8926 304.691 98.6871 304.592C98.4816 304.492 98.2248 304.442 97.9165 304.442C97.4956 304.442 97.1443 304.537 96.8626 304.726C96.5808 304.911 96.44 305.152 96.44 305.447C96.44 305.702 96.5344 305.907 96.7233 306.063C96.9123 306.219 97.2172 306.347 97.6381 306.446L98.8512 306.724C99.5538 306.887 100.078 307.137 100.422 307.475C100.767 307.813 100.939 308.252 100.939 308.793C100.939 309.25 100.807 309.658 100.542 310.016C100.28 310.37 99.9134 310.649 99.4428 310.851C98.9755 311.053 98.4336 311.154 97.8171 311.154C96.962 311.154 96.2643 310.972 95.7241 310.607C95.1838 310.239 94.8524 309.717 94.7297 309.041L96.1665 308.822C96.256 309.197 96.44 309.48 96.7184 309.673C96.9968 309.862 97.3597 309.956 97.8072 309.956C98.2944 309.956 98.6838 309.855 98.9755 309.653C99.2671 309.447 99.413 309.197 99.413 308.902C99.413 308.663 99.3235 308.463 99.1445 308.3C98.9688 308.138 98.6987 308.015 98.3341 307.933L97.0415 307.649C96.3289 307.487 95.8019 307.228 95.4606 306.874C95.1225 306.519 94.9535 306.07 94.9535 305.526C94.9535 305.076 95.0794 304.681 95.3313 304.343C95.5832 304.005 95.9312 303.741 96.3753 303.553C96.8195 303.36 97.3282 303.264 97.9016 303.264C98.7269 303.264 99.3765 303.443 99.8505 303.801C100.324 304.156 100.638 304.631 100.79 305.228ZM106.21 311.154C105.494 311.154 104.87 310.99 104.336 310.662C103.802 310.334 103.388 309.875 103.093 309.285C102.798 308.695 102.651 308.005 102.651 307.217C102.651 306.424 102.798 305.732 103.093 305.138C103.388 304.545 103.802 304.085 104.336 303.756C104.87 303.428 105.494 303.264 106.21 303.264C106.926 303.264 107.551 303.428 108.085 303.756C108.618 304.085 109.032 304.545 109.327 305.138C109.622 305.732 109.77 306.424 109.77 307.217C109.77 308.005 109.622 308.695 109.327 309.285C109.032 309.875 108.618 310.334 108.085 310.662C107.551 310.99 106.926 311.154 106.21 311.154ZM106.215 309.906C106.679 309.906 107.064 309.784 107.369 309.538C107.674 309.293 107.899 308.967 108.045 308.559C108.194 308.151 108.269 307.702 108.269 307.212C108.269 306.724 108.194 306.277 108.045 305.869C107.899 305.458 107.674 305.129 107.369 304.88C107.064 304.631 106.679 304.507 106.215 304.507C105.748 304.507 105.36 304.631 105.052 304.88C104.747 305.129 104.52 305.458 104.371 305.869C104.225 306.277 104.152 306.724 104.152 307.212C104.152 307.702 104.225 308.151 104.371 308.559C104.52 308.967 104.747 309.293 105.052 309.538C105.36 309.784 105.748 309.906 106.215 309.906ZM111.849 311V303.364H113.286V304.577H113.366C113.505 304.166 113.75 303.843 114.101 303.607C114.456 303.369 114.857 303.249 115.304 303.249C115.397 303.249 115.507 303.253 115.633 303.259C115.762 303.266 115.863 303.274 115.936 303.284V304.706C115.876 304.689 115.77 304.671 115.618 304.651C115.465 304.628 115.313 304.616 115.16 304.616C114.809 304.616 114.496 304.691 114.221 304.84C113.949 304.986 113.733 305.19 113.574 305.452C113.415 305.71 113.336 306.005 113.336 306.337V311H111.849ZM120.66 311.154C119.908 311.154 119.26 310.993 118.716 310.672C118.176 310.347 117.758 309.891 117.463 309.305C117.172 308.715 117.026 308.024 117.026 307.232C117.026 306.449 117.172 305.76 117.463 305.163C117.758 304.567 118.169 304.101 118.696 303.766C119.227 303.432 119.846 303.264 120.556 303.264C120.986 303.264 121.404 303.335 121.808 303.478C122.213 303.621 122.576 303.844 122.897 304.149C123.219 304.454 123.472 304.85 123.658 305.337C123.843 305.821 123.936 306.41 123.936 307.102V307.629H117.866V306.516H122.48C122.48 306.125 122.4 305.778 122.241 305.477C122.082 305.172 121.858 304.931 121.57 304.756C121.285 304.58 120.95 304.492 120.566 304.492C120.148 304.492 119.783 304.595 119.472 304.8C119.164 305.003 118.925 305.268 118.756 305.596C118.59 305.921 118.507 306.274 118.507 306.655V307.525C118.507 308.035 118.597 308.469 118.776 308.827C118.958 309.185 119.212 309.459 119.536 309.648C119.861 309.833 120.241 309.926 120.675 309.926C120.957 309.926 121.214 309.886 121.446 309.807C121.678 309.724 121.878 309.601 122.047 309.439C122.216 309.277 122.345 309.076 122.435 308.837L123.842 309.091C123.729 309.505 123.527 309.868 123.235 310.18C122.947 310.488 122.584 310.728 122.147 310.901C121.712 311.07 121.217 311.154 120.66 311.154ZM126.006 311V303.364H127.442V304.577H127.522C127.661 304.166 127.906 303.843 128.258 303.607C128.612 303.369 129.013 303.249 129.461 303.249C129.554 303.249 129.663 303.253 129.789 303.259C129.918 303.266 130.019 303.274 130.092 303.284V304.706C130.033 304.689 129.927 304.671 129.774 304.651C129.622 304.628 129.469 304.616 129.317 304.616C128.965 304.616 128.652 304.691 128.377 304.84C128.105 304.986 127.89 305.19 127.731 305.452C127.572 305.71 127.492 306.005 127.492 306.337V311H126.006ZM131.799 311V303.364H133.285V311H131.799ZM131.938 302.344L133.101 300.053H134.667L133.126 302.344H131.938ZM137.927 311.169C137.443 311.169 137.006 311.08 136.615 310.901C136.224 310.718 135.914 310.455 135.685 310.11C135.46 309.765 135.347 309.343 135.347 308.842C135.347 308.411 135.43 308.057 135.596 307.778C135.761 307.5 135.985 307.28 136.267 307.117C136.549 306.955 136.863 306.832 137.211 306.749C137.559 306.666 137.914 306.603 138.275 306.56C138.733 306.507 139.104 306.464 139.389 306.431C139.674 306.395 139.881 306.337 140.01 306.257C140.14 306.178 140.204 306.048 140.204 305.869V305.835C140.204 305.4 140.082 305.064 139.836 304.825C139.594 304.587 139.233 304.467 138.753 304.467C138.252 304.467 137.858 304.578 137.569 304.8C137.284 305.019 137.087 305.263 136.978 305.531L135.581 305.213C135.746 304.749 135.988 304.375 136.307 304.089C136.628 303.801 136.998 303.592 137.415 303.463C137.833 303.33 138.272 303.264 138.733 303.264C139.038 303.264 139.361 303.301 139.702 303.374C140.047 303.443 140.368 303.572 140.667 303.761C140.968 303.95 141.215 304.22 141.407 304.572C141.6 304.92 141.696 305.372 141.696 305.929V311H140.244V309.956H140.184C140.088 310.148 139.944 310.337 139.752 310.523C139.56 310.708 139.313 310.862 139.011 310.985C138.709 311.108 138.348 311.169 137.927 311.169ZM138.25 309.976C138.661 309.976 139.013 309.895 139.304 309.732C139.599 309.57 139.823 309.358 139.976 309.096C140.131 308.831 140.209 308.547 140.209 308.246V307.261C140.156 307.314 140.053 307.364 139.901 307.411C139.752 307.454 139.581 307.492 139.389 307.525C139.197 307.555 139.009 307.583 138.827 307.609C138.645 307.633 138.492 307.652 138.37 307.669C138.081 307.705 137.818 307.767 137.579 307.853C137.344 307.939 137.155 308.063 137.013 308.226C136.873 308.385 136.804 308.597 136.804 308.862C136.804 309.23 136.94 309.509 137.211 309.697C137.483 309.883 137.83 309.976 138.25 309.976Z" fill="#FFFAFA"/>
<path d="M47.9998 321.667C47.9998 321.667 61.3332 315 61.3332 305V293.333L47.9998 288.333L34.6665 293.333V305C34.6665 315 47.9998 321.667 47.9998 321.667Z" stroke="#F5C400" stroke-width="1.5" stroke-linecap="round" stroke-linejoin="round"/>
<path d="M48 295.833V311.833" stroke="#F5C400" stroke-width="1.5" stroke-linecap="round"/>
<path d="M52.0002 298.233H46.0002C45.2576 298.233 44.5454 298.528 44.0203 299.053C43.4952 299.578 43.2002 300.291 43.2002 301.033C43.2002 301.776 43.4952 302.488 44.0203 303.013C44.5454 303.538 45.2576 303.833 46.0002 303.833H50.0002C50.7428 303.833 51.455 304.128 51.9801 304.653C52.5052 305.178 52.8002 305.891 52.8002 306.633C52.8002 307.376 52.5052 308.088 51.9801 308.613C51.455 309.138 50.7428 309.433 50.0002 309.433H43.2002" stroke="#F5C400" stroke-width="1.5" stroke-linecap="round" stroke-linejoin="round"/>
<path d="M385.655 464.818V475H384.119V464.818H385.655ZM389.679 470.466V475H388.193V467.364H389.62V468.607H389.714C389.89 468.202 390.165 467.877 390.539 467.632C390.917 467.387 391.393 467.264 391.966 467.264C392.487 467.264 392.942 467.374 393.333 467.592C393.724 467.808 394.028 468.129 394.243 468.557C394.459 468.984 394.566 469.513 394.566 470.143V475H393.08V470.322C393.08 469.768 392.936 469.336 392.647 469.024C392.359 468.709 391.963 468.552 391.459 468.552C391.114 468.552 390.808 468.626 390.539 468.776C390.274 468.925 390.064 469.143 389.908 469.432C389.755 469.717 389.679 470.062 389.679 470.466ZM400.614 467.364V468.557H396.299V467.364H400.614ZM397.482 475V466.479C397.482 466.001 397.586 465.605 397.795 465.29C398.004 464.972 398.281 464.735 398.626 464.58C398.97 464.42 399.345 464.341 399.749 464.341C400.047 464.341 400.303 464.366 400.515 464.415C400.727 464.462 400.884 464.505 400.987 464.545L400.639 465.748C400.569 465.728 400.48 465.705 400.371 465.678C400.261 465.648 400.129 465.634 399.973 465.634C399.612 465.634 399.353 465.723 399.197 465.902C399.045 466.081 398.969 466.339 398.969 466.678V475H397.482ZM402.568 475V467.364H404.005V468.577H404.084C404.223 468.166 404.469 467.843 404.82 467.607C405.175 467.369 405.576 467.249 406.023 467.249C406.116 467.249 406.225 467.253 406.351 467.259C406.481 467.266 406.582 467.274 406.655 467.284V468.706C406.595 468.689 406.489 468.671 406.336 468.651C406.184 468.628 406.031 468.616 405.879 468.616C405.528 468.616 405.214 468.691 404.939 468.84C404.668 468.986 404.452 469.19 404.293 469.452C404.134 469.71 404.054 470.005 404.054 470.337V475H402.568ZM410.515 475.169C410.031 475.169 409.593 475.08 409.202 474.901C408.811 474.718 408.501 474.455 408.273 474.11C408.047 473.765 407.935 473.343 407.935 472.842C407.935 472.411 408.017 472.057 408.183 471.778C408.349 471.5 408.573 471.28 408.854 471.117C409.136 470.955 409.451 470.832 409.799 470.749C410.147 470.666 410.502 470.603 410.863 470.56C411.32 470.507 411.691 470.464 411.977 470.431C412.262 470.395 412.469 470.337 412.598 470.257C412.727 470.178 412.792 470.048 412.792 469.869V469.835C412.792 469.4 412.669 469.064 412.424 468.825C412.182 468.587 411.821 468.467 411.34 468.467C410.84 468.467 410.445 468.578 410.157 468.8C409.872 469.019 409.675 469.263 409.565 469.531L408.168 469.213C408.334 468.749 408.576 468.375 408.894 468.089C409.216 467.801 409.585 467.592 410.003 467.463C410.42 467.33 410.86 467.264 411.32 467.264C411.625 467.264 411.948 467.301 412.29 467.374C412.634 467.443 412.956 467.572 413.254 467.761C413.556 467.95 413.803 468.22 413.995 468.572C414.187 468.92 414.283 469.372 414.283 469.929V475H412.832V473.956H412.772C412.676 474.148 412.532 474.337 412.339 474.523C412.147 474.708 411.9 474.862 411.599 474.985C411.297 475.108 410.936 475.169 410.515 475.169ZM410.838 473.976C411.249 473.976 411.6 473.895 411.892 473.732C412.187 473.57 412.411 473.358 412.563 473.096C412.719 472.831 412.797 472.547 412.797 472.246V471.261C412.744 471.314 412.641 471.364 412.489 471.411C412.339 471.454 412.169 471.492 411.977 471.525C411.784 471.555 411.597 471.583 411.415 471.609C411.232 471.633 411.08 471.652 410.957 471.669C410.669 471.705 410.405 471.767 410.167 471.853C409.932 471.939 409.743 472.063 409.6 472.226C409.461 472.385 409.391 472.597 409.391 472.862C409.391 473.23 409.527 473.509 409.799 473.697C410.071 473.883 410.417 473.976 410.838 473.976ZM419.974 475.154C419.222 475.154 418.574 474.993 418.031 474.672C417.49 474.347 417.073 473.891 416.778 473.305C416.486 472.715 416.34 472.024 416.34 471.232C416.34 470.449 416.486 469.76 416.778 469.163C417.073 468.567 417.484 468.101 418.011 467.766C418.541 467.432 419.161 467.264 419.87 467.264C420.301 467.264 420.719 467.335 421.123 467.478C421.527 467.621 421.89 467.844 422.212 468.149C422.533 468.454 422.787 468.85 422.972 469.337C423.158 469.821 423.251 470.41 423.251 471.102V471.629H417.18V470.516H421.794C421.794 470.125 421.715 469.778 421.555 469.477C421.396 469.172 421.173 468.931 420.884 468.756C420.599 468.58 420.264 468.492 419.88 468.492C419.462 468.492 419.098 468.595 418.786 468.8C418.478 469.003 418.239 469.268 418.07 469.596C417.905 469.921 417.822 470.274 417.822 470.655V471.525C417.822 472.035 417.911 472.469 418.09 472.827C418.273 473.185 418.526 473.459 418.851 473.648C419.176 473.833 419.555 473.926 419.989 473.926C420.271 473.926 420.528 473.886 420.76 473.807C420.992 473.724 421.193 473.601 421.362 473.439C421.531 473.277 421.66 473.076 421.749 472.837L423.156 473.091C423.044 473.505 422.841 473.868 422.55 474.18C422.261 474.488 421.898 474.728 421.461 474.901C421.027 475.07 420.531 475.154 419.974 475.154ZM431.042 469.228L429.695 469.467C429.639 469.294 429.549 469.13 429.427 468.974C429.307 468.819 429.145 468.691 428.939 468.592C428.734 468.492 428.477 468.442 428.169 468.442C427.748 468.442 427.397 468.537 427.115 468.726C426.833 468.911 426.692 469.152 426.692 469.447C426.692 469.702 426.787 469.907 426.976 470.063C427.165 470.219 427.469 470.347 427.89 470.446L429.103 470.724C429.806 470.887 430.33 471.137 430.674 471.475C431.019 471.813 431.192 472.252 431.192 472.793C431.192 473.25 431.059 473.658 430.794 474.016C430.532 474.37 430.166 474.649 429.695 474.851C429.228 475.053 428.686 475.154 428.069 475.154C427.214 475.154 426.517 474.972 425.976 474.607C425.436 474.239 425.105 473.717 424.982 473.041L426.419 472.822C426.508 473.197 426.692 473.48 426.971 473.673C427.249 473.862 427.612 473.956 428.059 473.956C428.547 473.956 428.936 473.855 429.228 473.653C429.519 473.447 429.665 473.197 429.665 472.902C429.665 472.663 429.576 472.463 429.397 472.3C429.221 472.138 428.951 472.015 428.586 471.933L427.294 471.649C426.581 471.487 426.054 471.228 425.713 470.874C425.375 470.519 425.206 470.07 425.206 469.526C425.206 469.076 425.332 468.681 425.584 468.343C425.835 468.005 426.183 467.741 426.628 467.553C427.072 467.36 427.58 467.264 428.154 467.264C428.979 467.264 429.629 467.443 430.103 467.801C430.577 468.156 430.89 468.631 431.042 469.228ZM436.811 467.364V468.557H432.639V467.364H436.811ZM433.758 465.534H435.245V472.758C435.245 473.046 435.288 473.263 435.374 473.409C435.46 473.552 435.571 473.649 435.707 473.702C435.846 473.752 435.997 473.777 436.159 473.777C436.279 473.777 436.383 473.769 436.472 473.752C436.562 473.736 436.632 473.722 436.681 473.712L436.95 474.94C436.864 474.973 436.741 475.007 436.582 475.04C436.423 475.076 436.224 475.096 435.985 475.099C435.594 475.106 435.23 475.036 434.892 474.891C434.553 474.745 434.28 474.519 434.071 474.214C433.862 473.91 433.758 473.527 433.758 473.066V465.534ZM438.875 475V467.364H440.312V468.577H440.391C440.53 468.166 440.776 467.843 441.127 467.607C441.482 467.369 441.883 467.249 442.33 467.249C442.423 467.249 442.532 467.253 442.658 467.259C442.788 467.266 442.889 467.274 442.962 467.284V468.706C442.902 468.689 442.796 468.671 442.643 468.651C442.491 468.628 442.338 468.616 442.186 468.616C441.835 468.616 441.521 468.691 441.246 468.84C440.975 468.986 440.759 469.19 440.6 469.452C440.441 469.71 440.361 470.005 440.361 470.337V475H438.875ZM449.505 471.833V467.364H450.997V475H449.535V473.678H449.456C449.28 474.085 448.998 474.425 448.61 474.697C448.226 474.965 447.747 475.099 447.174 475.099C446.683 475.099 446.249 474.992 445.871 474.776C445.497 474.558 445.202 474.234 444.986 473.807C444.774 473.379 444.668 472.851 444.668 472.221V467.364H446.154V472.042C446.154 472.562 446.299 472.977 446.587 473.285C446.875 473.593 447.25 473.747 447.711 473.747C447.989 473.747 448.266 473.678 448.541 473.538C448.819 473.399 449.05 473.189 449.232 472.907C449.417 472.625 449.509 472.267 449.505 471.833ZM456.631 475.154C455.892 475.154 455.255 474.987 454.722 474.652C454.191 474.314 453.784 473.848 453.499 473.255C453.214 472.662 453.071 471.982 453.071 471.217C453.071 470.441 453.217 469.757 453.509 469.163C453.8 468.567 454.211 468.101 454.742 467.766C455.272 467.432 455.897 467.264 456.616 467.264C457.196 467.264 457.713 467.372 458.167 467.587C458.621 467.799 458.987 468.098 459.266 468.482C459.547 468.867 459.715 469.316 459.768 469.83H458.321C458.242 469.472 458.059 469.163 457.774 468.905C457.492 468.646 457.115 468.517 456.641 468.517C456.226 468.517 455.863 468.626 455.552 468.845C455.244 469.061 455.003 469.369 454.831 469.77C454.659 470.168 454.573 470.638 454.573 471.182C454.573 471.739 454.657 472.219 454.826 472.624C454.995 473.028 455.234 473.341 455.542 473.563C455.854 473.785 456.22 473.896 456.641 473.896C456.922 473.896 457.178 473.845 457.406 473.742C457.638 473.636 457.832 473.485 457.988 473.29C458.147 473.094 458.258 472.859 458.321 472.584H459.768C459.715 473.078 459.554 473.518 459.286 473.906C459.017 474.294 458.658 474.599 458.207 474.821C457.759 475.043 457.234 475.154 456.631 475.154ZM465.342 467.364V468.557H461.171V467.364H465.342ZM462.29 465.534H463.776V472.758C463.776 473.046 463.819 473.263 463.905 473.409C463.992 473.552 464.103 473.649 464.238 473.702C464.378 473.752 464.528 473.777 464.691 473.777C464.81 473.777 464.915 473.769 465.004 473.752C465.094 473.736 465.163 473.722 465.213 473.712L465.481 474.94C465.395 474.973 465.273 475.007 465.113 475.04C464.954 475.076 464.755 475.096 464.517 475.099C464.126 475.106 463.761 475.036 463.423 474.891C463.085 474.745 462.812 474.519 462.603 474.214C462.394 473.91 462.29 473.527 462.29 473.066V465.534ZM472.244 471.833V467.364H473.735V475H472.274V473.678H472.194C472.018 474.085 471.737 474.425 471.349 474.697C470.964 474.965 470.486 475.099 469.912 475.099C469.422 475.099 468.987 474.992 468.61 474.776C468.235 474.558 467.94 474.234 467.725 473.807C467.513 473.379 467.406 472.851 467.406 472.221V467.364H468.893V472.042C468.893 472.562 469.037 472.977 469.326 473.285C469.614 473.593 469.988 473.747 470.449 473.747C470.728 473.747 471.004 473.678 471.279 473.538C471.558 473.399 471.788 473.189 471.97 472.907C472.156 472.625 472.247 472.267 472.244 471.833ZM476.153 475V467.364H477.589V468.577H477.669C477.808 468.166 478.053 467.843 478.405 467.607C478.759 467.369 479.16 467.249 479.608 467.249C479.701 467.249 479.81 467.253 479.936 467.259C480.065 467.266 480.166 467.274 480.239 467.284V468.706C480.18 468.689 480.074 468.671 479.921 468.651C479.769 468.628 479.616 468.616 479.464 468.616C479.112 468.616 478.799 468.691 478.524 468.84C478.252 468.986 478.037 469.19 477.878 469.452C477.719 469.71 477.639 470.005 477.639 470.337V475H476.153ZM484.1 475.169C483.616 475.169 483.178 475.08 482.787 474.901C482.396 474.718 482.086 474.455 481.857 474.11C481.632 473.765 481.519 473.343 481.519 472.842C481.519 472.411 481.602 472.057 481.768 471.778C481.934 471.5 482.157 471.28 482.439 471.117C482.721 470.955 483.036 470.832 483.384 470.749C483.732 470.666 484.086 470.603 484.448 470.56C484.905 470.507 485.276 470.464 485.561 470.431C485.846 470.395 486.053 470.337 486.183 470.257C486.312 470.178 486.377 470.048 486.377 469.869V469.835C486.377 469.4 486.254 469.064 486.009 468.825C485.767 468.587 485.406 468.467 484.925 468.467C484.424 468.467 484.03 468.578 483.742 468.8C483.457 469.019 483.259 469.263 483.15 469.531L481.753 469.213C481.919 468.749 482.161 468.375 482.479 468.089C482.8 467.801 483.17 467.592 483.588 467.463C484.005 467.33 484.444 467.264 484.905 467.264C485.21 467.264 485.533 467.301 485.874 467.374C486.219 467.443 486.541 467.572 486.839 467.761C487.141 467.95 487.388 468.22 487.58 468.572C487.772 468.92 487.868 469.372 487.868 469.929V475H486.416V473.956H486.357C486.261 474.148 486.116 474.337 485.924 474.523C485.732 474.708 485.485 474.862 485.183 474.985C484.882 475.108 484.521 475.169 484.1 475.169ZM484.423 473.976C484.834 473.976 485.185 473.895 485.477 473.732C485.772 473.57 485.995 473.358 486.148 473.096C486.304 472.831 486.382 472.547 486.382 472.246V471.261C486.329 471.314 486.226 471.364 486.073 471.411C485.924 471.454 485.754 471.492 485.561 471.525C485.369 471.555 485.182 471.583 484.999 471.609C484.817 471.633 484.665 471.652 484.542 471.669C484.254 471.705 483.99 471.767 483.752 471.853C483.516 471.939 483.327 472.063 483.185 472.226C483.046 472.385 482.976 472.597 482.976 472.862C482.976 473.23 483.112 473.509 483.384 473.697C483.656 473.883 484.002 473.976 484.423 473.976ZM384.119 492V481.818H390.433V483.141H385.655V486.243H389.98V487.56H385.655V492H384.119ZM392.622 492V484.364H394.109V492H392.622ZM393.373 483.185C393.115 483.185 392.893 483.099 392.707 482.927C392.525 482.751 392.433 482.542 392.433 482.3C392.433 482.055 392.525 481.846 392.707 481.674C392.893 481.498 393.115 481.411 393.373 481.411C393.632 481.411 393.852 481.498 394.034 481.674C394.22 481.846 394.313 482.055 394.313 482.3C394.313 482.542 394.22 482.751 394.034 482.927C393.852 483.099 393.632 483.185 393.373 483.185ZM398.015 487.466V492H396.529V484.364H397.956V485.607H398.05C398.226 485.202 398.501 484.877 398.875 484.632C399.253 484.387 399.729 484.264 400.302 484.264C400.823 484.264 401.278 484.374 401.669 484.592C402.06 484.808 402.364 485.129 402.579 485.557C402.795 485.984 402.902 486.513 402.902 487.143V492H401.416V487.322C401.416 486.768 401.272 486.336 400.983 486.024C400.695 485.709 400.299 485.552 399.795 485.552C399.45 485.552 399.144 485.626 398.875 485.776C398.61 485.925 398.4 486.143 398.244 486.432C398.091 486.717 398.015 487.062 398.015 487.466ZM407.538 492.169C407.054 492.169 406.617 492.08 406.226 491.901C405.835 491.718 405.525 491.455 405.296 491.11C405.071 490.765 404.958 490.343 404.958 489.842C404.958 489.411 405.041 489.057 405.207 488.778C405.372 488.5 405.596 488.28 405.878 488.117C406.159 487.955 406.474 487.832 406.822 487.749C407.17 487.666 407.525 487.603 407.886 487.56C408.344 487.507 408.715 487.464 409 487.431C409.285 487.395 409.492 487.337 409.621 487.257C409.751 487.178 409.815 487.048 409.815 486.869V486.835C409.815 486.4 409.693 486.064 409.447 485.825C409.205 485.587 408.844 485.467 408.364 485.467C407.863 485.467 407.469 485.578 407.18 485.8C406.895 486.019 406.698 486.263 406.589 486.531L405.192 486.213C405.357 485.749 405.599 485.375 405.917 485.089C406.239 484.801 406.609 484.592 407.026 484.463C407.444 484.33 407.883 484.264 408.344 484.264C408.649 484.264 408.972 484.301 409.313 484.374C409.658 484.443 409.979 484.572 410.278 484.761C410.579 484.95 410.826 485.22 411.018 485.572C411.211 485.92 411.307 486.372 411.307 486.929V492H409.855V490.956H409.795C409.699 491.148 409.555 491.337 409.363 491.523C409.171 491.708 408.924 491.862 408.622 491.985C408.32 492.108 407.959 492.169 407.538 492.169ZM407.861 490.976C408.272 490.976 408.624 490.895 408.915 490.732C409.21 490.57 409.434 490.358 409.587 490.096C409.742 489.831 409.82 489.547 409.82 489.246V488.261C409.767 488.314 409.664 488.364 409.512 488.411C409.363 488.454 409.192 488.492 409 488.525C408.808 488.555 408.62 488.583 408.438 488.609C408.256 488.633 408.103 488.652 407.981 488.669C407.692 488.705 407.429 488.767 407.19 488.853C406.955 488.939 406.766 489.063 406.623 489.226C406.484 489.385 406.415 489.597 406.415 489.862C406.415 490.23 406.551 490.509 406.822 490.697C407.094 490.883 407.44 490.976 407.861 490.976ZM415.193 487.466V492H413.707V484.364H415.133V485.607H415.228C415.404 485.202 415.679 484.877 416.053 484.632C416.431 484.387 416.907 484.264 417.48 484.264C418 484.264 418.456 484.374 418.847 484.592C419.238 484.808 419.542 485.129 419.757 485.557C419.972 485.984 420.08 486.513 420.08 487.143V492H418.594V487.322C418.594 486.768 418.45 486.336 418.161 486.024C417.873 485.709 417.477 485.552 416.973 485.552C416.628 485.552 416.322 485.626 416.053 485.776C415.788 485.925 415.578 486.143 415.422 486.432C415.269 486.717 415.193 487.062 415.193 487.466ZM425.71 492.154C424.971 492.154 424.335 491.987 423.801 491.652C423.271 491.314 422.863 490.848 422.578 490.255C422.293 489.662 422.151 488.982 422.151 488.217C422.151 487.441 422.297 486.757 422.588 486.163C422.88 485.567 423.291 485.101 423.821 484.766C424.352 484.432 424.976 484.264 425.696 484.264C426.276 484.264 426.793 484.372 427.247 484.587C427.701 484.799 428.067 485.098 428.345 485.482C428.627 485.867 428.794 486.316 428.848 486.83H427.401C427.321 486.472 427.139 486.163 426.854 485.905C426.572 485.646 426.194 485.517 425.72 485.517C425.306 485.517 424.943 485.626 424.632 485.845C424.323 486.061 424.083 486.369 423.911 486.77C423.738 487.168 423.652 487.638 423.652 488.182C423.652 488.739 423.737 489.219 423.906 489.624C424.075 490.028 424.313 490.341 424.622 490.563C424.933 490.785 425.299 490.896 425.72 490.896C426.002 490.896 426.257 490.845 426.486 490.742C426.718 490.636 426.912 490.485 427.068 490.29C427.227 490.094 427.338 489.859 427.401 489.584H428.848C428.794 490.078 428.634 490.518 428.365 490.906C428.097 491.294 427.737 491.599 427.286 491.821C426.839 492.043 426.314 492.154 425.71 492.154ZM430.857 492V484.364H432.344V492H430.857ZM431.608 483.185C431.349 483.185 431.127 483.099 430.942 482.927C430.759 482.751 430.668 482.542 430.668 482.3C430.668 482.055 430.759 481.846 430.942 481.674C431.127 481.498 431.349 481.411 431.608 481.411C431.866 481.411 432.087 481.498 432.269 481.674C432.455 481.846 432.548 482.055 432.548 482.3C432.548 482.542 432.455 482.751 432.269 482.927C432.087 483.099 431.866 483.185 431.608 483.185ZM438.055 492.154C437.302 492.154 436.654 491.993 436.111 491.672C435.571 491.347 435.153 490.891 434.858 490.305C434.566 489.715 434.42 489.024 434.42 488.232C434.42 487.449 434.566 486.76 434.858 486.163C435.153 485.567 435.564 485.101 436.091 484.766C436.621 484.432 437.241 484.264 437.95 484.264C438.381 484.264 438.799 484.335 439.203 484.478C439.607 484.621 439.97 484.844 440.292 485.149C440.613 485.454 440.867 485.85 441.053 486.337C441.238 486.821 441.331 487.41 441.331 488.102V488.629H435.261V487.516H439.874C439.874 487.125 439.795 486.778 439.636 486.477C439.477 486.172 439.253 485.931 438.965 485.756C438.679 485.58 438.345 485.492 437.96 485.492C437.543 485.492 437.178 485.595 436.866 485.8C436.558 486.003 436.32 486.268 436.151 486.596C435.985 486.921 435.902 487.274 435.902 487.655V488.525C435.902 489.035 435.991 489.469 436.17 489.827C436.353 490.185 436.606 490.459 436.931 490.648C437.256 490.833 437.635 490.926 438.07 490.926C438.351 490.926 438.608 490.886 438.84 490.807C439.072 490.724 439.273 490.601 439.442 490.439C439.611 490.277 439.74 490.076 439.83 489.837L441.237 490.091C441.124 490.505 440.922 490.868 440.63 491.18C440.342 491.488 439.979 491.728 439.541 491.901C439.107 492.07 438.612 492.154 438.055 492.154ZM443.4 492V484.364H444.837V485.577H444.917C445.056 485.166 445.301 484.843 445.652 484.607C446.007 484.369 446.408 484.249 446.856 484.249C446.948 484.249 447.058 484.253 447.184 484.259C447.313 484.266 447.414 484.274 447.487 484.284V485.706C447.427 485.689 447.321 485.671 447.169 485.651C447.016 485.628 446.864 485.616 446.711 485.616C446.36 485.616 446.047 485.691 445.772 485.84C445.5 485.986 445.285 486.19 445.125 486.452C444.966 486.71 444.887 487.005 444.887 487.337V492H443.4ZM451.347 492.169C450.863 492.169 450.426 492.08 450.035 491.901C449.644 491.718 449.334 491.455 449.105 491.11C448.88 490.765 448.767 490.343 448.767 489.842C448.767 489.411 448.85 489.057 449.016 488.778C449.181 488.5 449.405 488.28 449.687 488.117C449.969 487.955 450.283 487.832 450.631 487.749C450.979 487.666 451.334 487.603 451.695 487.56C452.153 487.507 452.524 487.464 452.809 487.431C453.094 487.395 453.301 487.337 453.43 487.257C453.56 487.178 453.624 487.048 453.624 486.869V486.835C453.624 486.4 453.502 486.064 453.256 485.825C453.014 485.587 452.653 485.467 452.173 485.467C451.672 485.467 451.278 485.578 450.989 485.8C450.704 486.019 450.507 486.263 450.398 486.531L449.001 486.213C449.166 485.749 449.408 485.375 449.727 485.089C450.048 484.801 450.418 484.592 450.835 484.463C451.253 484.33 451.692 484.264 452.153 484.264C452.458 484.264 452.781 484.301 453.122 484.374C453.467 484.443 453.788 484.572 454.087 484.761C454.388 484.95 454.635 485.22 454.827 485.572C455.02 485.92 455.116 486.372 455.116 486.929V492H453.664V490.956H453.604C453.508 491.148 453.364 491.337 453.172 491.523C452.98 491.708 452.733 491.862 452.431 491.985C452.129 492.108 451.768 492.169 451.347 492.169ZM451.67 490.976C452.081 490.976 452.433 490.895 452.724 490.732C453.019 490.57 453.243 490.358 453.396 490.096C453.551 489.831 453.629 489.547 453.629 489.246V488.261C453.576 488.314 453.473 488.364 453.321 488.411C453.172 488.454 453.001 488.492 452.809 488.525C452.617 488.555 452.429 488.583 452.247 488.609C452.065 488.633 451.912 488.652 451.79 488.669C451.501 488.705 451.238 488.767 450.999 488.853C450.764 488.939 450.575 489.063 450.433 489.226C450.293 489.385 450.224 489.597 450.224 489.862C450.224 490.23 450.36 490.509 450.631 490.697C450.903 490.883 451.25 490.976 451.67 490.976Z" fill="#FFFAFA"/>
<path d="M354 498V479.667M362.333 498V479.667M345.667 498V479.667M334 471.333L354 458L374 471.333M370.667 498V474.293C365.153 473.43 359.581 472.998 354 473C348.331 473 342.764 473.444 337.333 474.293V498M334 498H374M354 466.333H354.018V466.351H354V466.333Z" stroke="#F3BD07" stroke-width="1.5" stroke-linecap="round" stroke-linejoin="round"/>
<path d="M694.694 300.179H703L697.707 294.393C696.004 292.531 693.881 291.192 691.553 290.511C689.226 289.83 686.775 289.83 684.447 290.511C682.12 291.193 679.998 292.532 678.294 294.394C676.59 296.256 675.365 298.576 674.742 301.119M681.307 309.821H673.002V318.896M673.002 309.821L678.293 315.607C679.996 317.469 682.119 318.808 684.447 319.489C686.774 320.17 689.225 320.17 691.553 319.489C693.88 318.807 696.002 317.468 697.706 315.606C699.41 313.744 700.635 311.424 701.258 308.881M703 291.104V300.175" stroke="#F3BD07" stroke-width="1.5" stroke-linecap="round" stroke-linejoin="round"/>
<path d="M720.119 311V300.818H721.655V309.678H726.268V311H720.119ZM728.322 311V303.364H729.808V311H728.322ZM729.072 302.185C728.814 302.185 728.592 302.099 728.406 301.927C728.224 301.751 728.133 301.542 728.133 301.3C728.133 301.055 728.224 300.846 728.406 300.674C728.592 300.498 728.814 300.411 729.072 300.411C729.331 300.411 729.551 300.498 729.734 300.674C729.919 300.846 730.012 301.055 730.012 301.3C730.012 301.542 729.919 301.751 729.734 301.927C729.551 302.099 729.331 302.185 729.072 302.185ZM737.384 313.864V309.812H737.294C737.205 309.974 737.075 310.16 736.906 310.369C736.741 310.577 736.512 310.76 736.22 310.915C735.928 311.071 735.551 311.149 735.087 311.149C734.47 311.149 733.92 310.992 733.436 310.677C732.955 310.359 732.578 309.906 732.303 309.32C732.031 308.73 731.895 308.022 731.895 307.197C731.895 306.371 732.032 305.665 732.308 305.079C732.586 304.492 732.967 304.043 733.451 303.732C733.935 303.42 734.483 303.264 735.097 303.264C735.571 303.264 735.952 303.344 736.24 303.503C736.532 303.659 736.757 303.841 736.916 304.05C737.079 304.259 737.205 304.442 737.294 304.602H737.418V303.364H738.87V313.864H737.384ZM735.415 309.881C735.842 309.881 736.204 309.769 736.499 309.543C736.797 309.315 737.022 308.998 737.175 308.594C737.33 308.189 737.408 307.719 737.408 307.182C737.408 306.652 737.332 306.187 737.18 305.79C737.027 305.392 736.803 305.082 736.509 304.86C736.214 304.638 735.849 304.527 735.415 304.527C734.967 304.527 734.594 304.643 734.296 304.875C733.998 305.107 733.772 305.424 733.62 305.825C733.471 306.226 733.396 306.678 733.396 307.182C733.396 307.692 733.473 308.151 733.625 308.559C733.777 308.967 734.003 309.29 734.301 309.528C734.603 309.764 734.974 309.881 735.415 309.881ZM746.126 307.833V303.364H747.617V311H746.156V309.678H746.076C745.901 310.085 745.619 310.425 745.231 310.697C744.847 310.965 744.368 311.099 743.794 311.099C743.304 311.099 742.87 310.992 742.492 310.776C742.117 310.558 741.822 310.234 741.607 309.807C741.395 309.379 741.289 308.851 741.289 308.221V303.364H742.775V308.042C742.775 308.562 742.919 308.977 743.208 309.285C743.496 309.593 743.87 309.747 744.331 309.747C744.61 309.747 744.886 309.678 745.161 309.538C745.44 309.399 745.67 309.189 745.853 308.907C746.038 308.625 746.129 308.267 746.126 307.833ZM750.035 311V303.364H751.521V311H750.035ZM750.785 302.185C750.527 302.185 750.305 302.099 750.119 301.927C749.937 301.751 749.846 301.542 749.846 301.3C749.846 301.055 749.937 300.846 750.119 300.674C750.305 300.498 750.527 300.411 750.785 300.411C751.044 300.411 751.264 300.498 751.447 300.674C751.632 300.846 751.725 301.055 751.725 301.3C751.725 301.542 751.632 301.751 751.447 301.927C751.264 302.099 751.044 302.185 750.785 302.185ZM756.8 311.149C756.183 311.149 755.633 310.992 755.149 310.677C754.669 310.359 754.291 309.906 754.016 309.32C753.744 308.73 753.608 308.022 753.608 307.197C753.608 306.371 753.746 305.665 754.021 305.079C754.299 304.492 754.68 304.043 755.164 303.732C755.648 303.42 756.197 303.264 756.81 303.264C757.284 303.264 757.665 303.344 757.953 303.503C758.245 303.659 758.47 303.841 758.629 304.05C758.792 304.259 758.918 304.442 759.007 304.602H759.097V300.818H760.583V311H759.131V309.812H759.007C758.918 309.974 758.788 310.16 758.619 310.369C758.454 310.577 758.225 310.76 757.933 310.915C757.642 311.071 757.264 311.149 756.8 311.149ZM757.128 309.881C757.555 309.881 757.917 309.769 758.212 309.543C758.51 309.315 758.735 308.998 758.888 308.594C759.044 308.189 759.121 307.719 759.121 307.182C759.121 306.652 759.045 306.187 758.893 305.79C758.74 305.392 758.517 305.082 758.222 304.86C757.927 304.638 757.562 304.527 757.128 304.527C756.68 304.527 756.308 304.643 756.009 304.875C755.711 305.107 755.486 305.424 755.333 305.825C755.184 306.226 755.109 306.678 755.109 307.182C755.109 307.692 755.186 308.151 755.338 308.559C755.491 308.967 755.716 309.29 756.014 309.528C756.316 309.764 756.687 309.881 757.128 309.881ZM765.347 311.169C764.863 311.169 764.426 311.08 764.035 310.901C763.643 310.718 763.334 310.455 763.105 310.11C762.879 309.765 762.767 309.343 762.767 308.842C762.767 308.411 762.85 308.057 763.015 307.778C763.181 307.5 763.405 307.28 763.687 307.117C763.968 306.955 764.283 306.832 764.631 306.749C764.979 306.666 765.334 306.603 765.695 306.56C766.152 306.507 766.524 306.464 766.809 306.431C767.094 306.395 767.301 306.337 767.43 306.257C767.559 306.178 767.624 306.048 767.624 305.869V305.835C767.624 305.4 767.501 305.064 767.256 304.825C767.014 304.587 766.653 304.467 766.172 304.467C765.672 304.467 765.277 304.578 764.989 304.8C764.704 305.019 764.507 305.263 764.397 305.531L763 305.213C763.166 304.749 763.408 304.375 763.726 304.089C764.048 303.801 764.417 303.592 764.835 303.463C765.253 303.33 765.692 303.264 766.152 303.264C766.457 303.264 766.781 303.301 767.122 303.374C767.467 303.443 767.788 303.572 768.086 303.761C768.388 303.95 768.635 304.22 768.827 304.572C769.019 304.92 769.116 305.372 769.116 305.929V311H767.664V309.956H767.604C767.508 310.148 767.364 310.337 767.172 310.523C766.979 310.708 766.732 310.862 766.431 310.985C766.129 311.108 765.768 311.169 765.347 311.169ZM765.67 309.976C766.081 309.976 766.433 309.895 766.724 309.732C767.019 309.57 767.243 309.358 767.395 309.096C767.551 308.831 767.629 308.547 767.629 308.246V307.261C767.576 307.314 767.473 307.364 767.321 307.411C767.172 307.454 767.001 307.492 766.809 307.525C766.616 307.555 766.429 307.583 766.247 307.609C766.065 307.633 765.912 307.652 765.79 307.669C765.501 307.705 765.238 307.767 764.999 307.853C764.764 307.939 764.575 308.063 764.432 308.226C764.293 308.385 764.223 308.597 764.223 308.862C764.223 309.23 764.359 309.509 764.631 309.697C764.903 309.883 765.249 309.976 765.67 309.976ZM774.732 311.154C773.993 311.154 773.357 310.987 772.823 310.652C772.293 310.314 771.885 309.848 771.6 309.255C771.315 308.662 771.172 307.982 771.172 307.217C771.172 306.441 771.318 305.757 771.61 305.163C771.902 304.567 772.313 304.101 772.843 303.766C773.373 303.432 773.998 303.264 774.717 303.264C775.297 303.264 775.814 303.372 776.268 303.587C776.722 303.799 777.089 304.098 777.367 304.482C777.649 304.867 777.816 305.316 777.869 305.83H776.422C776.343 305.472 776.161 305.163 775.876 304.905C775.594 304.646 775.216 304.517 774.742 304.517C774.328 304.517 773.965 304.626 773.653 304.845C773.345 305.061 773.105 305.369 772.932 305.77C772.76 306.168 772.674 306.638 772.674 307.182C772.674 307.739 772.758 308.219 772.927 308.624C773.096 309.028 773.335 309.341 773.643 309.563C773.955 309.785 774.321 309.896 774.742 309.896C775.024 309.896 775.279 309.845 775.508 309.742C775.74 309.636 775.934 309.485 776.089 309.29C776.248 309.094 776.359 308.859 776.422 308.584H777.869C777.816 309.078 777.655 309.518 777.387 309.906C777.118 310.294 776.759 310.599 776.308 310.821C775.861 311.043 775.335 311.154 774.732 311.154ZM779.879 311V303.364H781.365V311H779.879ZM780.63 302.185C780.371 302.185 780.149 302.099 779.963 301.927C779.781 301.751 779.69 301.542 779.69 301.3C779.69 301.055 779.781 300.846 779.963 300.674C780.149 300.498 780.371 300.411 780.63 300.411C780.888 300.411 781.108 300.498 781.291 300.674C781.476 300.846 781.569 301.055 781.569 301.3C781.569 301.542 781.476 301.751 781.291 301.927C781.108 302.099 780.888 302.185 780.63 302.185ZM787.002 311.154C786.286 311.154 785.661 310.99 785.127 310.662C784.594 310.334 784.18 309.875 783.885 309.285C783.59 308.695 783.442 308.005 783.442 307.217C783.442 306.424 783.59 305.732 783.885 305.138C784.18 304.545 784.594 304.085 785.127 303.756C785.661 303.428 786.286 303.264 787.002 303.264C787.718 303.264 788.342 303.428 788.876 303.756C789.41 304.085 789.824 304.545 790.119 305.138C790.414 305.732 790.561 306.424 790.561 307.217C790.561 308.005 790.414 308.695 790.119 309.285C789.824 309.875 789.41 310.334 788.876 310.662C788.342 310.99 787.718 311.154 787.002 311.154ZM787.007 309.906C787.471 309.906 787.855 309.784 788.16 309.538C788.465 309.293 788.69 308.967 788.836 308.559C788.985 308.151 789.06 307.702 789.06 307.212C789.06 306.724 788.985 306.277 788.836 305.869C788.69 305.458 788.465 305.129 788.16 304.88C787.855 304.631 787.471 304.507 787.007 304.507C786.539 304.507 786.152 304.631 785.843 304.88C785.538 305.129 785.311 305.458 785.162 305.869C785.016 306.277 784.944 306.724 784.944 307.212C784.944 307.702 785.016 308.151 785.162 308.559C785.311 308.967 785.538 309.293 785.843 309.538C786.152 309.784 786.539 309.906 787.007 309.906ZM786.39 302.344L787.554 300.053H789.12L787.578 302.344H786.39ZM794.127 306.466V311H792.641V303.364H794.068V304.607H794.162C794.338 304.202 794.613 303.877 794.987 303.632C795.365 303.387 795.841 303.264 796.414 303.264C796.934 303.264 797.39 303.374 797.781 303.592C798.172 303.808 798.476 304.129 798.691 304.557C798.907 304.984 799.014 305.513 799.014 306.143V311H797.528V306.322C797.528 305.768 797.384 305.336 797.095 305.024C796.807 304.709 796.411 304.552 795.907 304.552C795.562 304.552 795.256 304.626 794.987 304.776C794.722 304.925 794.512 305.143 794.356 305.432C794.203 305.717 794.127 306.062 794.127 306.466Z" fill="#FFFAFA"/>
<path d="M272.076 304V293.091H279.065V294.748H274.052V297.709H278.585V299.366H274.052V304H272.076ZM283.291 293.091V304H281.315V293.091H283.291ZM294.846 293.091V304H293.088L287.948 296.569H287.857V304H285.881V293.091H287.65L292.785 300.527H292.881V293.091H294.846ZM298.85 304H296.741L300.582 293.091H303.021L306.867 304H304.758L301.844 295.328H301.759L298.85 304ZM298.92 299.723H304.672V301.31H298.92V299.723ZM317.719 293.091V304H315.961L310.821 296.569H310.73V304H308.754V293.091H310.522L315.657 300.527H315.753V293.091H317.719ZM329.66 296.772H327.668C327.611 296.445 327.506 296.156 327.353 295.903C327.201 295.648 327.011 295.431 326.783 295.254C326.556 295.076 326.297 294.943 326.006 294.854C325.718 294.762 325.407 294.716 325.074 294.716C324.48 294.716 323.955 294.865 323.497 295.163C323.039 295.458 322.68 295.891 322.421 296.463C322.162 297.031 322.032 297.725 322.032 298.545C322.032 299.38 322.162 300.083 322.421 300.655C322.684 301.223 323.042 301.653 323.497 301.944C323.955 302.232 324.479 302.375 325.068 302.375C325.395 302.375 325.7 302.333 325.984 302.248C326.272 302.159 326.529 302.029 326.757 301.859C326.988 301.688 327.181 301.479 327.337 301.23C327.497 300.982 327.607 300.697 327.668 300.378L329.66 300.388C329.585 300.907 329.424 301.393 329.175 301.848C328.93 302.303 328.609 302.704 328.211 303.052C327.813 303.396 327.348 303.666 326.815 303.862C326.283 304.053 325.691 304.149 325.042 304.149C324.083 304.149 323.227 303.927 322.474 303.483C321.721 303.039 321.128 302.398 320.695 301.56C320.262 300.722 320.045 299.717 320.045 298.545C320.045 297.37 320.263 296.365 320.7 295.531C321.137 294.692 321.732 294.051 322.485 293.608C323.238 293.164 324.09 292.942 325.042 292.942C325.649 292.942 326.213 293.027 326.735 293.197C327.257 293.368 327.723 293.618 328.131 293.949C328.539 294.275 328.875 294.676 329.138 295.152C329.404 295.625 329.578 296.164 329.66 296.772ZM333.896 293.091V304H331.92V293.091H333.896ZM337.887 304H335.777L339.618 293.091H342.057L345.903 304H343.794L340.88 295.328H340.795L337.887 304ZM337.956 299.723H343.709V301.31H337.956V299.723ZM347.79 304V293.091H349.766V302.343H354.571V304H347.79ZM370.655 298.545C370.655 299.721 370.435 300.728 369.994 301.566C369.558 302.4 368.961 303.039 368.205 303.483C367.452 303.927 366.598 304.149 365.642 304.149C364.687 304.149 363.831 303.927 363.075 303.483C362.322 303.036 361.726 302.395 361.285 301.56C360.848 300.722 360.63 299.717 360.63 298.545C360.63 297.37 360.848 296.365 361.285 295.531C361.726 294.692 362.322 294.051 363.075 293.608C363.831 293.164 364.687 292.942 365.642 292.942C366.598 292.942 367.452 293.164 368.205 293.608C368.961 294.051 369.558 294.692 369.994 295.531C370.435 296.365 370.655 297.37 370.655 298.545ZM368.668 298.545C368.668 297.718 368.538 297.02 368.279 296.452C368.024 295.88 367.668 295.449 367.214 295.158C366.759 294.863 366.236 294.716 365.642 294.716C365.049 294.716 364.526 294.863 364.071 295.158C363.617 295.449 363.26 295.88 363 296.452C362.745 297.02 362.617 297.718 362.617 298.545C362.617 299.373 362.745 300.072 363 300.644C363.26 301.212 363.617 301.644 364.071 301.939C364.526 302.23 365.049 302.375 365.642 302.375C366.236 302.375 366.759 302.23 367.214 301.939C367.668 301.644 368.024 301.212 368.279 300.644C368.538 300.072 368.668 299.373 368.668 298.545ZM372.973 304V293.091H377.064C377.902 293.091 378.605 293.237 379.174 293.528C379.745 293.819 380.177 294.227 380.468 294.753C380.763 295.275 380.91 295.884 380.91 296.58C380.91 297.279 380.761 297.887 380.463 298.402C380.168 298.913 379.733 299.309 379.158 299.589C378.582 299.866 377.876 300.005 377.038 300.005H374.124V298.364H376.771C377.261 298.364 377.663 298.297 377.975 298.162C378.288 298.023 378.518 297.823 378.668 297.56C378.82 297.294 378.897 296.967 378.897 296.58C378.897 296.193 378.82 295.863 378.668 295.589C378.515 295.312 378.282 295.103 377.97 294.961C377.657 294.815 377.254 294.742 376.761 294.742H374.949V304H372.973ZM378.609 299.057L381.31 304H379.104L376.452 299.057H378.609ZM392.517 296.772H390.525C390.468 296.445 390.363 296.156 390.21 295.903C390.058 295.648 389.868 295.431 389.64 295.254C389.413 295.076 389.154 294.943 388.863 294.854C388.575 294.762 388.264 294.716 387.931 294.716C387.338 294.716 386.812 294.865 386.354 295.163C385.896 295.458 385.537 295.891 385.278 296.463C385.019 297.031 384.889 297.725 384.889 298.545C384.889 299.38 385.019 300.083 385.278 300.655C385.541 301.223 385.899 301.653 386.354 301.944C386.812 302.232 387.336 302.375 387.925 302.375C388.252 302.375 388.557 302.333 388.841 302.248C389.129 302.159 389.387 302.029 389.614 301.859C389.845 301.688 390.038 301.479 390.194 301.23C390.354 300.982 390.464 300.697 390.525 300.378L392.517 300.388C392.442 300.907 392.281 301.393 392.032 301.848C391.787 302.303 391.466 302.704 391.068 303.052C390.67 303.396 390.205 303.666 389.672 303.862C389.14 304.053 388.548 304.149 387.899 304.149C386.94 304.149 386.084 303.927 385.331 303.483C384.578 303.039 383.985 302.398 383.552 301.56C383.119 300.722 382.902 299.717 382.902 298.545C382.902 297.37 383.121 296.365 383.557 295.531C383.994 294.692 384.589 294.051 385.342 293.608C386.095 293.164 386.947 292.942 387.899 292.942C388.506 292.942 389.07 293.027 389.592 293.197C390.114 293.368 390.58 293.618 390.988 293.949C391.396 294.275 391.732 294.676 391.995 295.152C392.261 295.625 392.435 296.164 392.517 296.772ZM394.777 304V293.091H396.753V297.709H401.808V293.091H403.789V304H401.808V299.366H396.753V304H394.777ZM406.389 304V293.091H413.484V294.748H408.365V297.709H413.116V299.366H408.365V302.343H413.526V304H406.389ZM421.879 296.09C421.829 295.625 421.619 295.262 421.25 295.003C420.884 294.744 420.408 294.614 419.823 294.614C419.411 294.614 419.057 294.676 418.763 294.801C418.468 294.925 418.242 295.094 418.086 295.307C417.93 295.52 417.85 295.763 417.846 296.037C417.846 296.264 417.898 296.461 418.001 296.628C418.107 296.795 418.251 296.937 418.432 297.054C418.613 297.168 418.814 297.263 419.034 297.342C419.254 297.42 419.476 297.485 419.7 297.539L420.723 297.794C421.135 297.89 421.531 298.02 421.911 298.183C422.294 298.347 422.637 298.553 422.939 298.801C423.244 299.05 423.486 299.35 423.663 299.701C423.841 300.053 423.929 300.465 423.929 300.937C423.929 301.576 423.766 302.139 423.439 302.626C423.113 303.109 422.64 303.487 422.022 303.76C421.408 304.03 420.664 304.165 419.791 304.165C418.942 304.165 418.205 304.034 417.58 303.771C416.959 303.508 416.472 303.125 416.12 302.62C415.772 302.116 415.584 301.502 415.556 300.777H417.5C417.528 301.157 417.646 301.473 417.852 301.725C418.058 301.978 418.326 302.166 418.656 302.29C418.99 302.414 419.363 302.477 419.775 302.477C420.204 302.477 420.581 302.413 420.904 302.285C421.231 302.153 421.486 301.972 421.671 301.741C421.856 301.507 421.95 301.234 421.953 300.921C421.95 300.637 421.866 300.403 421.703 300.218C421.54 300.03 421.31 299.874 421.016 299.749C420.725 299.621 420.384 299.508 419.993 299.408L418.752 299.089C417.853 298.858 417.143 298.508 416.621 298.039C416.103 297.567 415.843 296.94 415.843 296.159C415.843 295.516 416.017 294.953 416.366 294.471C416.717 293.988 417.195 293.613 417.798 293.347C418.402 293.077 419.086 292.942 419.849 292.942C420.623 292.942 421.302 293.077 421.884 293.347C422.47 293.613 422.93 293.984 423.264 294.46C423.597 294.932 423.77 295.475 423.78 296.09H421.879ZM425.662 294.748V293.091H434.366V294.748H430.994V304H429.034V294.748H425.662ZM436.494 304V293.091H440.584C441.423 293.091 442.126 293.237 442.694 293.528C443.266 293.819 443.697 294.227 443.988 294.753C444.283 295.275 444.43 295.884 444.43 296.58C444.43 297.279 444.281 297.887 443.983 298.402C443.688 298.913 443.253 299.309 442.678 299.589C442.103 299.866 441.396 300.005 440.558 300.005H437.644V298.364H440.292C440.782 298.364 441.183 298.297 441.495 298.162C441.808 298.023 442.039 297.823 442.188 297.56C442.341 297.294 442.417 296.967 442.417 296.58C442.417 296.193 442.341 295.863 442.188 295.589C442.035 295.312 441.803 295.103 441.49 294.961C441.178 294.815 440.774 294.742 440.281 294.742H438.47V304H436.494ZM442.129 299.057L444.83 304H442.625L439.972 299.057H442.129ZM448.1 304H445.991L449.832 293.091H452.271L456.117 304H454.008L451.094 295.328H451.009L448.1 304ZM448.17 299.723H453.922V301.31H448.17V299.723ZM456.206 294.748V293.091H464.91V294.748H461.538V304H459.578V294.748H456.206ZM469.014 293.091V304H467.038V293.091H469.014ZM481.352 298.545C481.352 299.721 481.132 300.728 480.691 301.566C480.255 302.4 479.658 303.039 478.902 303.483C478.149 303.927 477.295 304.149 476.34 304.149C475.384 304.149 474.528 303.927 473.772 303.483C473.019 303.036 472.423 302.395 471.982 301.56C471.546 300.722 471.327 299.717 471.327 298.545C471.327 297.37 471.546 296.365 471.982 295.531C472.423 294.692 473.019 294.051 473.772 293.608C474.528 293.164 475.384 292.942 476.34 292.942C477.295 292.942 478.149 293.164 478.902 293.608C479.658 294.051 480.255 294.692 480.691 295.531C481.132 296.365 481.352 297.37 481.352 298.545ZM479.365 298.545C479.365 297.718 479.236 297.02 478.976 296.452C478.721 295.88 478.365 295.449 477.911 295.158C477.456 294.863 476.933 294.716 476.34 294.716C475.747 294.716 475.223 294.863 474.768 295.158C474.314 295.449 473.957 295.88 473.698 296.452C473.442 297.02 473.314 297.718 473.314 298.545C473.314 299.373 473.442 300.072 473.698 300.644C473.957 301.212 474.314 301.644 474.768 301.939C475.223 302.23 475.747 302.375 476.34 302.375C476.933 302.375 477.456 302.23 477.911 301.939C478.365 301.644 478.721 301.212 478.976 300.644C479.236 300.072 479.365 299.373 479.365 298.545ZM492.635 293.091V304H490.877L485.737 296.569H485.647V304H483.67V293.091H485.439L490.574 300.527H490.67V293.091H492.635ZM499.409 304V293.091H501.385V302.343H506.19V304H499.409ZM510.166 304H508.057L511.898 293.091H514.337L518.183 304H516.074L513.16 295.328H513.075L510.166 304ZM510.236 299.723H515.988V301.31H510.236V299.723ZM518.211 293.091H520.443L523.111 297.917H523.218L525.887 293.091H528.119L524.15 299.93V304H522.179V299.93L518.211 293.091ZM529.968 304V293.091H537.063V294.748H531.944V297.709H536.696V299.366H531.944V302.343H537.106V304H529.968ZM539.53 304V293.091H543.62C544.458 293.091 545.162 293.237 545.73 293.528C546.302 293.819 546.733 294.227 547.024 294.753C547.319 295.275 547.466 295.884 547.466 296.58C547.466 297.279 547.317 297.887 547.019 298.402C546.724 298.913 546.289 299.309 545.714 299.589C545.139 299.866 544.432 300.005 543.594 300.005H540.68V298.364H543.327C543.818 298.364 544.219 298.297 544.531 298.162C544.844 298.023 545.075 297.823 545.224 297.56C545.376 297.294 545.453 296.967 545.453 296.58C545.453 296.193 545.376 295.863 545.224 295.589C545.071 295.312 544.838 295.103 544.526 294.961C544.213 294.815 543.81 294.742 543.317 294.742H541.506V304H539.53ZM545.165 299.057L547.866 304H545.661L543.008 299.057H545.165Z" fill="white"/>
<path d="M410.803 214.64C410.803 214.333 410.877 214.081 411.023 213.905C411.17 213.728 411.371 213.635 411.637 213.635H420.136C421.409 213.653 422.59 213.858 423.671 214.258C424.761 214.658 425.704 215.235 426.501 216.017C427.298 216.789 427.93 217.747 428.387 218.883C428.845 220.018 429.074 221.33 429.074 222.809V240.209C429.074 241.689 428.845 243.001 428.387 244.136C427.93 245.271 427.298 246.229 426.501 247.002C425.704 247.774 424.761 248.36 423.671 248.76C422.581 249.16 421.418 249.365 420.182 249.384H411.637C411.078 249.384 410.803 249.058 410.803 248.407V214.64ZM417.324 219.906V243.14H419.87C420.282 243.122 420.649 243.028 420.987 242.87C421.326 242.703 421.601 242.48 421.83 242.2C422.059 241.912 422.242 241.586 422.37 241.223C422.499 240.851 422.563 240.442 422.563 239.995V223.079C422.563 221.99 422.297 221.19 421.775 220.679C421.253 220.167 420.575 219.906 419.742 219.906H417.324Z" fill="white"/>
<path d="M436.108 222.056C436.108 220.66 436.355 219.413 436.841 218.297C437.326 217.189 437.994 216.24 438.827 215.468C439.661 214.696 440.632 214.1 441.731 213.7C442.83 213.3 443.993 213.095 445.22 213.095C446.448 213.095 447.611 213.3 448.719 213.7C449.827 214.1 450.808 214.686 451.65 215.459C452.493 216.222 453.161 217.161 453.656 218.269C454.15 219.376 454.406 220.641 454.406 222.046V240.963C454.406 242.359 454.159 243.606 453.656 244.722C453.161 245.829 452.493 246.779 451.65 247.551C450.808 248.323 449.837 248.919 448.719 249.319C447.611 249.719 446.439 249.924 445.22 249.924C444.002 249.924 442.83 249.71 441.731 249.291C440.632 248.872 439.661 248.267 438.827 247.495C437.994 246.723 437.335 245.783 436.841 244.685C436.355 243.587 436.108 242.349 436.108 240.972V222.056ZM442.619 240.609C442.619 241.019 442.675 241.41 442.794 241.782C442.903 242.154 443.077 242.48 443.298 242.759C443.517 243.047 443.783 243.271 444.103 243.447C444.424 243.624 444.789 243.708 445.22 243.708C445.642 243.708 446.018 243.633 446.347 243.475C446.677 243.317 446.951 243.112 447.181 242.843C447.409 242.573 447.584 242.266 447.712 241.912C447.831 241.559 447.894 241.177 447.894 240.768V222.437C447.894 222.028 447.831 221.628 447.712 221.246C447.593 220.865 447.418 220.53 447.199 220.241C446.98 219.953 446.704 219.72 446.374 219.543C446.045 219.376 445.678 219.283 445.275 219.283C444.855 219.283 444.479 219.367 444.149 219.543C443.82 219.72 443.544 219.944 443.325 220.241C443.104 220.53 442.931 220.874 442.812 221.246C442.693 221.628 442.628 222.018 442.628 222.437V240.609H442.619Z" fill="white"/>
<path d="M473.96 249.365C473.713 249.365 473.521 249.263 473.383 249.058C473.246 248.853 473.173 248.611 473.173 248.332V240.842H467.952V248.351C467.952 248.639 467.906 248.881 467.806 249.077C467.705 249.263 467.512 249.365 467.22 249.365H462.054C461.871 249.365 461.725 249.263 461.606 249.067C461.486 248.872 461.422 248.63 461.422 248.36V222.028C461.422 220.79 461.67 219.627 462.155 218.538C462.64 217.45 463.309 216.501 464.151 215.682C464.994 214.863 465.965 214.221 467.064 213.756C468.163 213.29 469.326 213.058 470.553 213.058C471.78 213.058 472.943 213.29 474.051 213.756C475.16 214.221 476.13 214.863 476.964 215.682C477.797 216.501 478.466 217.45 478.961 218.538C479.454 219.627 479.712 220.781 479.712 222.028V248.332C479.712 248.593 479.648 248.825 479.529 249.039C479.409 249.253 479.208 249.365 478.923 249.365H473.96ZM467.952 234.831H473.173V222.409C473.173 222 473.118 221.609 472.999 221.237C472.888 220.865 472.714 220.539 472.495 220.26C472.275 219.981 472 219.748 471.67 219.571C471.34 219.404 470.975 219.311 470.571 219.311C470.15 219.311 469.775 219.394 469.454 219.571C469.133 219.748 468.859 219.971 468.629 220.26C468.401 220.548 468.227 220.874 468.118 221.237C468.007 221.609 467.943 222 467.943 222.409V234.831H467.952Z" fill="white"/>
<path d="M504.814 248.249C504.814 248.49 504.75 248.732 504.622 248.974C504.495 249.216 504.265 249.337 503.936 249.337H499.429C499.155 249.337 498.898 249.244 498.66 249.049C498.421 248.863 498.303 248.565 498.303 248.174V242.777C498.303 240.284 497.881 238.469 497.03 237.343C496.178 236.217 494.914 235.594 493.229 235.473V248.407C493.229 249.039 492.963 249.365 492.423 249.365H487.523C486.983 249.365 486.718 249.049 486.718 248.407V214.64C486.718 214.333 486.791 214.081 486.937 213.905C487.085 213.728 487.286 213.635 487.55 213.635H496.196C497.452 213.635 498.624 213.877 499.695 214.37C500.776 214.863 501.711 215.524 502.498 216.37C503.285 217.217 503.909 218.203 504.356 219.329C504.805 220.455 505.035 221.665 505.035 222.958V226.652C505.035 227.425 504.944 228.141 504.769 228.783C504.586 229.425 504.347 230.02 504.036 230.56C503.724 231.1 503.359 231.593 502.919 232.049C502.488 232.496 502.021 232.896 501.536 233.24C502.626 234.217 503.45 235.548 504 237.232C504.549 238.907 504.823 241.037 504.823 243.624V248.249H504.814ZM493.229 219.906V230.151H495.51C496.49 230.151 497.231 229.881 497.735 229.351C498.239 228.82 498.496 228.113 498.496 227.238V222.958C498.496 222.028 498.239 221.293 497.726 220.734C497.213 220.185 496.526 219.906 495.683 219.906H493.229Z" fill="white"/>
<path d="M399.548 219.125C394.501 211.551 386.314 209.876 384.464 209.541H312.396C312.735 210.778 313.339 212.388 314.493 214.007C317.479 218.222 321.939 219.422 323.395 219.757H373.574C373.263 220.018 372.521 220.706 372.164 221.87C371.733 223.237 372.091 224.391 372.219 224.763H327.379C328.313 226.429 329.834 228.681 332.197 230.83C335.713 234.022 339.377 235.417 341.52 236.041H353.462V240.088H344.24C346.639 243.606 351.191 248.946 358.545 251.691C371.596 256.558 387.504 251.003 394.62 239.772C397.386 235.408 398.275 231.053 398.604 228.383C399.145 228.215 399.941 228.029 400.912 228.048C401.782 228.057 402.497 228.225 403.01 228.383C402.698 226.159 401.892 222.651 399.548 219.125ZM393.283 224.726C391.708 225.201 390.627 226.029 390.05 226.531C390.069 227.545 390.06 237.911 381.533 244.266C374.408 249.57 366.541 248.211 365.194 247.951C370.982 248.044 376.221 245.206 378.74 240.498C380.855 236.534 380.333 232.579 380.068 231.137C379.509 230.076 378.648 228.718 377.375 227.359C375.8 225.675 374.188 224.615 373.016 223.972C375.076 218.39 380.507 214.938 386.039 215.533C390.847 216.045 394.987 219.543 396.553 224.401C395.82 224.335 394.648 224.317 393.283 224.726Z" fill="url(#paint0_linear_49_310)"/>
<circle cx="641" cy="184" r="5" fill="#F3BD07"/>
<circle cx="176" cy="184" r="5" fill="#F3BD07"/>
<circle cx="257" cy="63" r="5" fill="#F3BD07"/>
<circle cx="563" cy="63" r="5" fill="#F3BD07"/>
<defs>
<linearGradient id="paint0_linear_49_310" x1="312.396" y1="231.499" x2="403.003" y2="231.499" gradientUnits="userSpaceOnUse">
<stop stop-color="#F29401"/>
<stop offset="1" stop-color="#FCCC01"/>
</linearGradient>
</defs>
</svg>
