<svg width="577" height="150" viewBox="0 0 577 150" fill="none" xmlns="http://www.w3.org/2000/svg">
<path d="M295.112 27.2823C295.112 26.4133 295.322 25.7023 295.743 25.2019C296.164 24.7016 296.742 24.4382 297.504 24.4382H321.902C325.556 24.4909 328.948 25.0703 332.05 26.2026C335.179 27.335 337.887 28.9677 340.174 31.1798C342.461 33.3656 344.276 36.078 345.59 39.2907C346.904 42.5037 347.562 46.2165 347.562 50.4038V99.6488C347.562 103.836 346.904 107.549 345.59 110.762C344.276 113.975 342.461 116.687 340.174 118.873C337.887 121.059 335.179 122.718 332.05 123.85C328.922 124.982 325.583 125.562 322.034 125.615H297.504C295.9 125.615 295.112 124.693 295.112 122.849V27.2823ZM313.831 42.1875V107.944H321.14C322.323 107.892 323.374 107.628 324.347 107.181C325.32 106.707 326.109 106.074 326.766 105.284C327.423 104.468 327.949 103.547 328.317 102.519C328.685 101.466 328.869 100.307 328.869 99.0432V51.1677C328.869 48.0863 328.107 45.8217 326.608 44.3734C325.109 42.9248 323.164 42.1875 320.771 42.1875H313.831Z" fill="white"/>
<path d="M367.753 48.2708C367.753 44.3206 368.463 40.7918 369.856 37.6317C371.249 34.498 373.169 31.8119 375.559 29.6261C377.953 27.4404 380.741 25.755 383.896 24.6226C387.051 23.4902 390.389 22.9109 393.911 22.9109C397.437 22.9109 400.775 23.4902 403.956 24.6226C407.137 25.755 409.951 27.414 412.367 29.5998C414.788 31.7592 416.706 34.419 418.126 37.5526C419.546 40.6865 420.281 44.2681 420.281 48.2446V101.782C420.281 105.732 419.572 109.261 418.126 112.421C416.706 115.555 414.788 118.241 412.367 120.427C409.951 122.612 407.163 124.298 403.956 125.43C400.775 126.563 397.41 127.142 393.911 127.142C390.415 127.142 387.051 126.536 383.896 125.351C380.741 124.166 377.953 122.454 375.559 120.269C373.169 118.083 371.276 115.423 369.856 112.316C368.463 109.208 367.753 105.706 367.753 101.808V48.2708ZM386.444 100.781C386.444 101.94 386.605 103.046 386.946 104.099C387.26 105.153 387.759 106.074 388.392 106.865C389.021 107.681 389.786 108.313 390.704 108.813C391.625 109.314 392.674 109.551 393.911 109.551C395.121 109.551 396.2 109.34 397.144 108.892C398.092 108.444 398.879 107.865 399.539 107.102C400.194 106.338 400.696 105.469 401.063 104.468C401.404 103.467 401.588 102.388 401.588 101.229V49.3505C401.588 48.1917 401.404 47.0596 401.063 45.9796C400.722 44.9 400.22 43.952 399.591 43.1356C398.962 42.3192 398.171 41.6607 397.223 41.1605C396.279 40.6865 395.226 40.4232 394.068 40.4232C392.862 40.4232 391.783 40.6602 390.835 41.1605C389.891 41.6607 389.1 42.293 388.471 43.1356C387.837 43.952 387.339 44.9262 386.998 45.9796C386.657 47.0596 386.47 48.1655 386.47 49.3505V100.781H386.444Z" fill="white"/>
<path d="M476.411 125.562C475.703 125.562 475.152 125.272 474.755 124.693C474.361 124.113 474.151 123.429 474.151 122.639V101.44H459.164V122.691C459.164 123.508 459.033 124.192 458.745 124.745C458.456 125.272 457.902 125.562 457.063 125.562H442.233C441.708 125.562 441.289 125.272 440.948 124.719C440.603 124.166 440.419 123.481 440.419 122.718V48.1916C440.419 44.6891 441.131 41.3973 442.525 38.3163C443.915 35.2352 445.837 32.5491 448.254 30.2317C450.674 27.9143 453.462 26.0972 456.617 24.7805C459.771 23.4638 463.11 22.8054 466.632 22.8054C470.154 22.8054 473.492 23.4638 476.673 24.7805C479.858 26.0972 482.642 27.9143 485.036 30.2317C487.426 32.5491 489.348 35.2352 490.768 38.3163C492.185 41.3973 492.923 44.6628 492.923 48.1916V122.639C492.923 123.376 492.739 124.034 492.398 124.64C492.053 125.246 491.476 125.562 490.66 125.562H476.411ZM459.164 84.4274H474.151V49.2712C474.151 48.1128 473.994 47.0066 473.653 45.9532C473.335 44.8998 472.836 43.9781 472.207 43.1883C471.574 42.3982 470.787 41.7397 469.839 41.2394C468.891 40.7654 467.842 40.5022 466.684 40.5022C465.474 40.5022 464.399 40.7392 463.477 41.2394C462.555 41.7397 461.768 42.3719 461.109 43.1883C460.453 44.0043 459.955 44.9261 459.64 45.9532C459.322 47.0066 459.138 48.1128 459.138 49.2712V84.4274H459.164Z" fill="white"/>
<path d="M564.984 122.402C564.984 123.086 564.8 123.771 564.433 124.456C564.066 125.141 563.407 125.483 562.462 125.483H549.525C548.738 125.483 548 125.22 547.318 124.667C546.632 124.14 546.291 123.297 546.291 122.191V106.917C546.291 99.8595 545.081 94.7243 542.638 91.5379C540.192 88.3516 536.565 86.5872 531.728 86.2448V122.849C531.728 124.64 530.963 125.562 529.412 125.562H515.347C513.796 125.562 513.035 124.667 513.035 122.849V27.2823C513.035 26.4133 513.245 25.7023 513.665 25.2019C514.088 24.7016 514.665 24.4382 515.426 24.4382H540.244C543.848 24.4382 547.213 25.1229 550.289 26.5187C553.391 27.9144 556.074 29.7841 558.333 32.1805C560.593 34.5769 562.384 37.3684 563.669 40.5548C564.958 43.7412 565.617 47.1645 565.617 50.8253V61.2799C565.617 63.4658 565.355 65.4934 564.853 67.3103C564.328 69.1275 563.643 70.8128 562.751 72.3402C561.855 73.8676 560.806 75.2633 559.544 76.5537C558.307 77.8178 556.966 78.9503 555.572 79.9245C558.701 82.6898 561.069 86.4555 562.646 91.2218C564.223 95.9622 565.01 101.993 565.01 109.314V122.402H564.984ZM531.728 42.1875V71.1814H538.273C541.087 71.1814 543.215 70.4179 544.662 68.9168C546.108 67.4157 546.846 65.4143 546.846 62.9389V50.8253C546.846 48.1917 546.108 46.1112 544.635 44.5313C543.163 42.9777 541.192 42.1875 538.772 42.1875H531.728Z" fill="white"/>
<path d="M262.801 39.9753C248.315 18.5393 224.811 13.7991 219.5 12.8511H12.6196C13.5924 16.3535 15.3276 20.9093 18.6402 25.4915C27.2109 37.4209 40.0144 40.8179 44.1946 41.7659H188.241C187.347 42.5036 185.218 44.4521 184.192 47.7438C182.956 51.6149 183.982 54.8804 184.35 55.9338H55.6312C58.3127 60.6479 62.677 67.0207 69.4601 73.1039C79.5557 82.1366 90.0717 86.0868 96.2239 87.8512H130.507V99.3063H104.032C110.92 109.261 123.987 124.377 145.098 132.145C182.562 145.918 228.229 130.197 248.657 98.4112C256.597 86.0602 259.147 73.7358 260.093 66.1781C261.644 65.7041 263.932 65.1772 266.718 65.2301C269.216 65.2563 271.267 65.7303 272.739 66.1781C271.845 59.8841 269.531 49.9559 262.801 39.9753ZM244.818 55.8284C240.296 57.1717 237.194 59.5154 235.538 60.9374C235.59 63.8077 235.564 93.1443 211.087 111.13C190.633 126.141 168.05 122.296 164.185 121.559C180.8 121.822 195.839 113.79 203.069 100.465C209.142 89.2469 207.643 78.0547 206.881 73.9728C205.277 70.9709 202.806 67.1261 199.151 63.2812C194.629 58.5146 190.003 55.5127 186.637 53.6954C192.553 37.8948 208.143 28.1249 224.022 29.8103C237.825 31.2587 249.708 41.1603 254.204 54.9071C252.101 54.7226 248.735 54.6701 244.818 55.8284Z" fill="url(#paint0_linear_11_40)"/>
<defs>
<linearGradient id="paint0_linear_11_40" x1="12.6196" y1="74.9962" x2="272.721" y2="74.9962" gradientUnits="userSpaceOnUse">
<stop stop-color="#F29401"/>
<stop offset="1" stop-color="#FCCC01"/>
</linearGradient>
</defs>
</svg>
