<svg width="271" height="258" viewBox="0 0 271 258" fill="none" xmlns="http://www.w3.org/2000/svg">
<path d="M255.182 27.1242C240.695 5.68819 217.191 0.948 211.881 0H5C5.97277 3.50242 7.70793 8.05826 11.0205 12.6404C19.5913 24.5699 32.3947 27.9669 36.575 28.9149H180.621C179.728 29.6525 177.598 31.601 176.572 34.8927C175.337 38.7639 176.362 42.0294 176.73 43.0827H48.0116C50.6931 47.7969 55.0573 54.1696 61.8405 60.2529C71.9361 69.2855 82.4521 73.2357 88.6043 75.0001H122.887V86.4552H96.4125C103.301 96.4096 116.367 111.525 137.478 119.294C174.943 133.067 220.609 117.345 241.037 85.5601C248.977 73.2091 251.527 60.8847 252.473 53.327C254.025 52.853 256.312 52.3261 259.099 52.379C261.596 52.4052 263.647 52.8792 265.119 53.327C264.225 47.033 261.912 37.1049 255.182 27.1242ZM237.199 42.9774C232.677 44.3206 229.574 46.6644 227.918 48.0864C227.971 50.9566 227.945 80.2932 203.468 98.2794C183.014 113.29 160.43 109.445 156.565 108.708C173.181 108.971 188.219 100.939 195.449 87.614C201.522 76.3959 200.024 65.2036 199.261 61.1217C197.658 58.1199 195.186 54.275 191.532 50.4301C187.01 45.6635 182.383 42.6616 179.018 40.8444C184.933 25.0437 200.523 15.2739 216.403 16.9593C230.205 18.4076 242.089 28.3092 246.585 42.056C244.481 41.8715 241.116 41.819 237.199 42.9774Z" fill="url(#paint0_linear_99_3)"/>
<path d="M0 157.477C0 156.608 0.210553 155.897 0.630938 155.396C1.0517 154.896 1.6302 154.633 2.39266 154.633H26.7904C30.4446 154.685 33.8362 155.265 36.9385 156.397C40.067 157.53 42.7748 159.162 45.0622 161.374C47.3496 163.56 49.1638 166.273 50.4781 169.485C51.7925 172.698 52.45 176.411 52.45 180.598V229.843C52.45 234.031 51.7925 237.744 50.4781 240.957C49.1638 244.17 47.3496 246.882 45.0622 249.067C42.7748 251.253 40.067 252.912 36.9385 254.045C33.8099 255.177 30.4709 255.756 26.9219 255.809H2.39266C0.788675 255.809 0 254.887 0 253.044V157.477ZM18.7192 172.382V238.139H26.0279C27.2108 238.086 28.2625 237.823 29.2351 237.375C30.2082 236.901 30.9969 236.269 31.6541 235.479C32.3112 234.662 32.8373 233.741 33.2052 232.714C33.5731 231.661 33.7571 230.502 33.7571 229.238V181.362C33.7571 178.281 32.995 176.016 31.4963 174.568C29.9976 173.119 28.0523 172.382 25.6596 172.382H18.7192Z" fill="white"/>
<path d="M72.6411 178.465C72.6411 174.515 73.3508 170.986 74.7442 167.826C76.1376 164.693 78.0567 162.006 80.4475 159.821C82.8417 157.635 85.6292 155.95 88.784 154.817C91.9388 153.685 95.2771 153.105 98.7991 153.105C102.325 153.105 105.663 153.685 108.844 154.817C112.025 155.95 114.839 157.609 117.256 159.794C119.676 161.954 121.594 164.614 123.014 167.747C124.434 170.881 125.169 174.463 125.169 178.439V231.977C125.169 235.927 124.461 239.455 123.014 242.616C121.594 245.749 119.676 248.436 117.256 250.621C114.839 252.807 112.051 254.493 108.844 255.625C105.663 256.757 102.299 257.337 98.7991 257.337C95.3034 257.337 91.9388 256.731 88.784 255.546C85.6292 254.361 82.8417 252.649 80.4475 250.463C78.0567 248.278 76.1638 245.618 74.7442 242.51C73.3508 239.403 72.6411 235.9 72.6411 232.003V178.465ZM91.3318 230.976C91.3318 232.135 91.4929 233.241 91.8339 234.294C92.1486 235.347 92.6469 236.269 93.2801 237.059C93.9096 237.876 94.6739 238.507 95.5919 239.008C96.5136 239.508 97.5627 239.745 98.7991 239.745C100.009 239.745 101.088 239.535 102.033 239.087C102.98 238.639 103.767 238.06 104.427 237.296C105.082 236.532 105.584 235.663 105.952 234.663C106.293 233.662 106.476 232.582 106.476 231.424V179.545C106.476 178.386 106.293 177.254 105.952 176.174C105.611 175.095 105.109 174.147 104.479 173.33C103.85 172.514 103.059 171.855 102.111 171.355C101.167 170.881 100.114 170.618 98.9565 170.618C97.75 170.618 96.6709 170.855 95.723 171.355C94.7788 171.855 93.9883 172.488 93.3588 173.33C92.7256 174.147 92.2273 175.121 91.8863 176.174C91.5454 177.254 91.358 178.36 91.358 179.545V230.976H91.3318Z" fill="white"/>
<path d="M181.299 255.756C180.591 255.756 180.04 255.467 179.643 254.887C179.249 254.308 179.04 253.623 179.04 252.833V231.634H164.053V252.886C164.053 253.702 163.922 254.387 163.633 254.94C163.345 255.467 162.79 255.756 161.951 255.756H147.121C146.597 255.756 146.177 255.467 145.836 254.914C145.491 254.361 145.308 253.676 145.308 252.912V178.386C145.308 174.884 146.02 171.592 147.413 168.511C148.803 165.43 150.725 162.744 153.142 160.426C155.562 158.109 158.35 156.292 161.505 154.975C164.66 153.658 167.998 153 171.52 153C175.042 153 178.38 153.658 181.561 154.975C184.746 156.292 187.53 158.109 189.924 160.426C192.314 162.744 194.236 165.43 195.657 168.511C197.073 171.592 197.811 174.857 197.811 178.386V252.833C197.811 253.571 197.627 254.229 197.286 254.835C196.942 255.44 196.365 255.756 195.548 255.756H181.299ZM164.053 214.622H179.04V179.466C179.04 178.307 178.882 177.201 178.541 176.148C178.223 175.094 177.725 174.173 177.095 173.383C176.462 172.593 175.675 171.934 174.727 171.434C173.779 170.96 172.73 170.697 171.572 170.697C170.362 170.697 169.287 170.934 168.365 171.434C167.443 171.934 166.657 172.567 165.997 173.383C165.342 174.199 164.843 175.121 164.528 176.148C164.21 177.201 164.026 178.307 164.026 179.466V214.622H164.053Z" fill="white"/>
<path d="M269.872 252.596C269.872 253.281 269.688 253.966 269.321 254.65C268.954 255.335 268.295 255.678 267.351 255.678H254.413C253.626 255.678 252.888 255.414 252.206 254.861C251.521 254.334 251.18 253.492 251.18 252.386V237.112C251.18 230.054 249.969 224.919 247.526 221.733C245.08 218.546 241.453 216.782 236.616 216.439V253.044C236.616 254.835 235.852 255.756 234.3 255.756H220.235C218.684 255.756 217.923 254.861 217.923 253.044V157.477C217.923 156.608 218.133 155.897 218.553 155.396C218.976 154.896 219.553 154.633 220.314 154.633H245.132C248.737 154.633 252.101 155.318 255.177 156.713C258.28 158.109 260.962 159.979 263.222 162.375C265.481 164.771 267.272 167.563 268.557 170.749C269.846 173.936 270.505 177.359 270.505 181.02V191.474C270.505 193.66 270.243 195.688 269.741 197.505C269.216 199.322 268.531 201.007 267.639 202.535C266.744 204.062 265.694 205.458 264.432 206.748C263.195 208.012 261.854 209.145 260.46 210.119C263.589 212.884 265.957 216.65 267.534 221.416C269.112 226.157 269.898 232.187 269.898 239.508V252.596H269.872ZM236.616 172.382V201.376H243.161C245.975 201.376 248.103 200.613 249.55 199.111C250.996 197.61 251.734 195.609 251.734 193.134V181.02C251.734 178.386 250.996 176.306 249.523 174.726C248.051 173.172 246.08 172.382 243.66 172.382H236.616Z" fill="white"/>
<defs>
<linearGradient id="paint0_linear_99_3" x1="5" y1="62.1451" x2="265.102" y2="62.1451" gradientUnits="userSpaceOnUse">
<stop stop-color="#F29401"/>
<stop offset="1" stop-color="#FCCC01"/>
</linearGradient>
</defs>
</svg>
